<svg viewBox="0 0 20 20" fill="none" xmlns="http://www.w3.org/2000/svg">
    <path d="M19.182 18.6314C17.9911 18.6031 16.8285 18.6031 15.6375 18.6314C15.3823 18.6314 15.3256 18.5746 15.3256 18.3194C15.3256 16.2211 15.3256 14.0943 15.3256 11.996C15.3256 11.5139 15.2972 11.0318 15.1555 10.5781C14.7301 9.10358 13.0287 8.56482 11.8094 9.55729C11.1572 10.0677 10.902 10.7766 10.902 11.6273C10.902 13.6123 10.902 15.5972 10.902 17.5822C10.902 17.8374 10.8736 18.0926 10.902 18.3762C10.9303 18.6031 10.8169 18.6597 10.6184 18.6314C9.39909 18.6314 8.20812 18.6314 6.9888 18.6314C6.76194 18.6314 6.70523 18.5746 6.70523 18.3478C6.73358 16.5614 6.73358 14.7749 6.73358 12.9601C6.73358 10.7483 6.73358 8.53646 6.70523 6.35301C6.70523 6.0978 6.76194 6.04109 6.9888 6.04109C8.20812 6.04109 9.39909 6.04109 10.6184 6.04109C10.8453 6.04109 10.902 6.0978 10.902 6.32466C10.902 6.77835 10.902 7.23206 10.902 7.77083C10.9871 7.68577 11.0154 7.65742 11.0438 7.62905C12.1497 6.01274 13.7093 5.55903 15.5525 5.8426C17.6792 6.18288 19.0403 7.65742 19.3806 9.92592C19.4657 10.4647 19.494 11.0035 19.494 11.5422C19.494 13.8108 19.494 16.0509 19.494 18.3194C19.494 18.5463 19.4372 18.6314 19.182 18.6314Z" fill="currentColor"/>
    <path d="M4.43583 12.3363C4.43583 14.3213 4.43583 16.3062 4.43583 18.2912C4.43583 18.5463 4.37912 18.6314 4.12391 18.6314C2.93294 18.6031 1.74197 18.6314 0.550992 18.6314C0.324142 18.6314 0.267428 18.5748 0.267428 18.3478C0.267428 14.3496 0.267428 10.323 0.267428 6.32472C0.267428 6.12623 0.324142 6.04117 0.550992 6.04117C1.77032 6.04117 2.98965 6.04117 4.20899 6.04117C4.46419 6.04117 4.49254 6.12623 4.49254 6.35309C4.43583 8.33805 4.43583 10.323 4.43583 12.3363Z" fill="currentColor"/>
    <path d="M4.63565 2.75171C4.35209 3.88595 3.18948 4.53815 1.85672 4.31131C0.438893 4.08446 -0.355088 2.69498 0.155329 1.33388C0.495606 0.483183 1.31794 -0.0272335 2.36714 0.00112298C3.95509 -0.0272335 5.00429 1.24881 4.63565 2.75171Z" fill="currentColor"/>
</svg>
