<svg viewBox="0 0 20 20" fill="none" xmlns="http://www.w3.org/2000/svg">
    <path fill-rule="evenodd" clip-rule="evenodd" d="M15.6098 4.74471C15.7888 4.66941 15.9846 4.64344 16.1769 4.6695C16.3693 4.69556 16.5512 4.77271 16.7036 4.8929C16.856 5.0131 16.9734 5.17195 17.0436 5.35293C17.1138 5.53391 17.1342 5.7304 17.1027 5.92194L15.4607 15.882C15.3014 16.8428 14.2473 17.3937 13.3662 16.9152C12.6291 16.5148 11.5344 15.8979 10.5498 15.2543C10.0575 14.9321 8.54939 13.9004 8.73474 13.1663C8.89402 12.5386 11.428 10.1798 12.876 8.77739C13.4444 8.22643 13.1852 7.90859 12.514 8.41539C10.8474 9.6737 8.17146 11.5872 7.28674 12.1259C6.50626 12.6008 6.09938 12.6819 5.61285 12.6008C4.72522 12.4531 3.90204 12.2244 3.23016 11.9456C2.32227 11.5691 2.36643 10.321 3.22944 9.95751L15.6098 4.74471Z" fill="currentColor"/>
</svg>
