<svg viewBox="0 0 20 20" fill="none" xmlns="http://www.w3.org/2000/svg">
    <path d="M13.8333 4.85C13.2638 4.19961 12.9499 3.3645 12.95 2.5H10.375V12.8333C10.3556 13.3927 10.1196 13.9226 9.71693 14.3112C9.31425 14.6999 8.77634 14.917 8.21667 14.9167C7.03334 14.9167 6.05001 13.95 6.05001 12.75C6.05001 11.3167 7.43334 10.2417 8.85834 10.6833V8.05C5.98334 7.66667 3.46667 9.9 3.46667 12.75C3.46667 15.525 5.76668 17.5 8.20834 17.5C10.825 17.5 12.95 15.375 12.95 12.75V7.50833C13.9942 8.25821 15.2478 8.66054 16.5333 8.65833V6.08333C16.5333 6.08333 14.9667 6.15833 13.8333 4.85Z" fill="currentColor"/>
</svg>
