<svg viewBox="0 0 20 20" fill="none" xmlns="http://www.w3.org/2000/svg">
    <path d="M18.7167 5.00016C18.075 5.29183 17.3833 5.4835 16.6667 5.57516C17.4 5.1335 17.9667 4.4335 18.2333 3.59183C17.5417 4.0085 16.775 4.30016 15.9667 4.46683C15.3083 3.75016 14.3833 3.3335 13.3333 3.3335C11.375 3.3335 9.77499 4.9335 9.77499 6.9085C9.77499 7.19183 9.80833 7.46683 9.86666 7.72516C6.89999 7.57516 4.25833 6.15016 2.49999 3.99183C2.19166 4.51683 2.01666 5.1335 2.01666 5.7835C2.01666 7.02516 2.64166 8.12516 3.60833 8.75016C3.01666 8.75016 2.46666 8.5835 1.98333 8.3335V8.3585C1.98333 10.0918 3.21666 11.5418 4.84999 11.8668C4.32569 12.0109 3.77502 12.0309 3.24166 11.9252C3.468 12.6356 3.91127 13.2572 4.50917 13.7026C5.10707 14.148 5.82953 14.3949 6.57499 14.4085C5.31138 15.4089 3.745 15.9497 2.13333 15.9418C1.84999 15.9418 1.56666 15.9252 1.28333 15.8918C2.86666 16.9085 4.74999 17.5002 6.76666 17.5002C13.3333 17.5002 16.9417 12.0502 16.9417 7.32516C16.9417 7.16683 16.9417 7.01683 16.9333 6.8585C17.6333 6.3585 18.2333 5.72516 18.7167 5.00016Z" fill="currentColor"/>
</svg>
