<svg viewBox="0 0 20 20" fill="none" xmlns="http://www.w3.org/2000/svg">
    <path d="M8.33332 12.4998L12.6583 9.99984L8.33332 7.49984V12.4998ZM17.9667 5.97484C18.075 6.3665 18.15 6.8915 18.2 7.55817C18.2583 8.22484 18.2833 8.79984 18.2833 9.29984L18.3333 9.99984C18.3333 11.8248 18.2 13.1665 17.9667 14.0248C17.7583 14.7748 17.275 15.2582 16.525 15.4665C16.1333 15.5748 15.4167 15.6498 14.3167 15.6998C13.2333 15.7582 12.2417 15.7832 11.325 15.7832L9.99999 15.8332C6.50832 15.8332 4.33332 15.6998 3.47499 15.4665C2.72499 15.2582 2.24166 14.7748 2.03332 14.0248C1.92499 13.6332 1.84999 13.1082 1.79999 12.4415C1.74166 11.7748 1.71666 11.1998 1.71666 10.6998L1.66666 9.99984C1.66666 8.17484 1.79999 6.83317 2.03332 5.97484C2.24166 5.22484 2.72499 4.7415 3.47499 4.53317C3.86666 4.42484 4.58332 4.34984 5.68332 4.29984C6.76666 4.2415 7.75832 4.2165 8.67499 4.2165L9.99999 4.1665C13.4917 4.1665 15.6667 4.29984 16.525 4.53317C17.275 4.7415 17.7583 5.22484 17.9667 5.97484Z" fill="currentColor"/>
</svg>
