<svg viewBox="0 0 116 49" fill="none" xmlns="http://www.w3.org/2000/svg">
<path d="M65.1968 14.1299L62.4922 15.2654L69.4718 19.2835L71.7983 17.9442L65.1968 14.1299Z" fill="currentColor"/>
<path d="M67.1406 17.9432L69.4671 19.2826L83.4262 11.2173L67.1406 17.9432Z" fill="currentColor"/>
<path fill-rule="evenodd" clip-rule="evenodd" d="M63.3047 36.9996C64.4899 36.0697 65.3977 34.8017 65.8813 33.3372H83.4263V36.9996H63.3047Z" fill="currentColor"/>
<path fill-rule="evenodd" clip-rule="evenodd" d="M53.7887 36.9996C52.7058 36.1414 51.8844 34.9443 51.0501 33.3372H32.4141V36.9996H53.7887Z" fill="currentColor"/>
<path fill-rule="evenodd" clip-rule="evenodd" d="M81.1113 14.9209V19.5497C80.0388 18.6652 78.6764 18.1345 77.1981 18.1345C73.7487 18.1345 70.9661 20.9649 70.9661 24.4733C70.9661 27.9817 73.7487 30.8121 77.1981 30.8121C78.6764 30.8121 80.0388 30.2814 81.1113 29.3969V30.6647H83.4302V13.5647L81.1113 14.9209ZM77.1981 28.4535C75.0241 28.4535 73.285 26.6845 73.285 24.4733C73.285 22.2621 75.0241 20.4932 77.1981 20.4932C79.3721 20.4932 81.1113 22.2621 81.1113 24.4733C81.1113 26.655 79.3721 28.4535 77.1981 28.4535ZM42.2694 20.5807C43.0521 19.1065 44.5883 18.1335 46.3276 18.1335C48.8784 18.1335 50.9654 20.2269 50.9654 22.851V30.6643H48.6465V23.2933C48.6465 21.6716 47.342 20.3448 45.7478 20.3448C44.1535 20.3448 42.8492 21.6716 42.8492 23.2933V30.6643H40.5303V23.2933C40.5303 21.6716 39.2259 20.3448 37.6316 20.3448C36.0374 20.3448 34.733 21.6716 34.733 23.2933V30.6643H32.4141V18.2809H34.733V19.7256C35.5736 18.7527 36.82 18.1335 38.2113 18.1335C39.9505 18.1335 41.4868 19.136 42.2694 20.5807ZM69.5168 30.6667H67.1979V20.3472L69.5168 21.733V30.6667ZM62.5596 19.5512V17.6348L64.8785 18.9909V30.1649C64.8785 33.6734 62.0958 36.5037 58.6464 36.5037C56.3565 36.5037 54.3564 35.236 53.284 33.3786L55.284 32.2288C55.9797 33.3786 57.2261 34.1451 58.6464 34.1451C60.8204 34.1451 62.5596 32.3761 62.5596 30.1649V29.3984C61.4871 30.2829 60.1247 30.8136 58.6464 30.8136C55.1971 30.8136 52.4144 27.9832 52.4144 24.4748C52.4144 20.9663 55.1971 18.136 58.6464 18.136C60.1247 18.136 61.4871 18.6667 62.5596 19.5512ZM54.7333 24.4748C54.7333 26.686 56.4724 28.4549 58.6464 28.4549C60.8204 28.4549 62.5596 26.6565 62.5596 24.4748C62.5596 22.2636 60.8204 20.4946 58.6464 20.4946C56.4724 20.4946 54.7333 22.2636 54.7333 24.4748Z" fill="currentColor"/>
</svg>
