<svg viewBox="0 0 116 49" fill="none" xmlns="http://www.w3.org/2000/svg">
    <path fill-rule="evenodd" clip-rule="evenodd" d="M19.9655 19.3766C20.0955 19.2446 20.2718 19.1704 20.4557 19.1704H26.1147C26.3951 19.1704 26.6478 19.342 26.7552 19.6051C26.8625 19.8682 26.8032 20.1711 26.6049 20.3725L23.9714 23.0471H26.317C26.5009 23.0471 26.6771 23.1213 26.8072 23.2533L30.6127 27.1178C30.6815 27.1843 30.7374 27.2656 30.7752 27.3583C30.8817 27.6195 30.824 27.9198 30.6293 28.1212C30.6278 28.1227 30.6263 28.1242 30.6249 28.1257L26.8073 32.0025C26.6773 32.1344 26.5009 32.2086 26.317 32.2086H20.6587C20.3782 32.2086 20.1254 32.0371 20.0181 31.7739C19.9108 31.5108 19.9701 31.208 20.1684 31.0066L22.8019 28.3319H20.4558C20.2719 28.3319 20.0956 28.2578 19.9656 28.1258L16.16 24.2607C16.0915 24.1943 16.0358 24.1132 15.9981 24.0207C15.8908 23.7576 15.9501 23.4547 16.1484 23.2533L19.9655 19.3766ZM28.4606 26.9236H24.4757C24.4702 26.9236 24.4647 26.9237 24.4593 26.9238H20.7429L18.3125 24.4554H22.2976L22.3128 24.4553H26.0299L28.4606 26.9236ZM24.7629 28.3319L22.3325 30.8003H26.0299L28.4606 28.3319H24.7629ZM24.4408 20.5787L22.0104 23.0471H18.3125L20.7429 20.5787H24.4408Z" fill="currentColor"/>
    <path fill-rule="evenodd" clip-rule="evenodd" d="M36.4846 23.3697C36.4846 23.6372 36.622 23.8558 36.8972 24.0245C37.1724 24.1937 37.5736 24.3534 38.1008 24.505C38.502 24.5981 38.8516 24.6969 39.1496 24.8017C39.4477 24.9064 39.7631 25.0605 40.0954 25.2645C40.4281 25.4685 40.6831 25.736 40.8606 26.0678C41.0381 26.3998 41.1214 26.7866 41.11 27.2288C41.11 28.0669 40.7892 28.7247 40.1475 29.2022C39.5053 29.6797 38.7088 29.9184 37.7576 29.9184C36.9096 29.9184 36.1816 29.7381 35.5741 29.377C34.9666 29.0158 34.5252 28.5157 34.25 27.8751L35.8488 26.9322C36.1354 27.7702 36.7718 28.1893 37.7571 28.1893C38.7316 28.1893 39.2186 27.8634 39.2186 27.2117C39.2186 26.7342 38.6741 26.3615 37.5855 26.0941C37.173 25.9893 36.8263 25.8845 36.5456 25.7798C36.2649 25.675 35.9554 25.5234 35.6172 25.326C35.279 25.128 35.0211 24.8661 34.8436 24.5402C34.6661 24.2144 34.5832 23.8361 34.5942 23.4055C34.5942 22.6021 34.8922 21.9559 35.4883 21.4674C36.0958 20.9783 36.8466 20.7336 37.7407 20.7336C38.4514 20.7336 39.0847 20.8937 39.6406 21.2135C40.1965 21.5339 40.6236 21.9791 40.9215 22.5493L39.357 23.4397C39.0703 22.7764 38.5318 22.4445 37.7407 22.4445C37.3738 22.4445 37.0732 22.5261 36.8382 22.6888C36.6021 22.8515 36.4846 23.0786 36.4846 23.3697ZM47.1339 20.7325C48.3028 20.7325 49.3115 21.1808 50.16 22.0773C50.9966 22.9623 51.4152 24.0446 51.4152 25.3249C51.4152 26.6173 50.9966 27.7058 50.16 28.5902C49.3229 29.4752 48.3147 29.9174 47.1339 29.9174C45.8386 29.9174 44.8359 29.4283 44.1252 28.4507V33.1827H42.268V20.9597H44.1252V22.2168C44.8244 21.2277 45.8272 20.7325 47.1339 20.7325ZM44.8988 27.3331C45.4146 27.8569 46.0623 28.1188 46.8413 28.1188C47.6209 28.1188 48.2681 27.8569 48.7844 27.3331C49.3001 26.7977 49.558 26.1283 49.558 25.3249C49.558 24.5221 49.3001 23.8583 48.7844 23.3345C48.2686 22.7991 47.6209 22.5311 46.8413 22.5311C46.0623 22.5311 45.4141 22.7986 44.8988 23.3345C44.3831 23.8583 44.1252 24.5216 44.1252 25.3249C44.1252 26.1167 44.3831 26.7861 44.8988 27.3331ZM60.9299 26.1283H54.0872C54.2245 26.7801 54.537 27.2867 55.0245 27.6474C55.512 28.0085 56.1165 28.1888 56.8385 28.1888C57.8125 28.1888 58.5519 27.8282 59.0568 27.1064L60.5867 28.0146C59.7496 29.2833 58.4949 29.9179 56.8212 29.9179C55.4346 29.9179 54.3054 29.4873 53.4341 28.6255C52.5747 27.7526 52.1447 26.6521 52.1447 25.3249C52.1447 24.033 52.5687 22.9441 53.4172 22.0597C54.2538 21.1748 55.3428 20.7325 56.6838 20.7325C57.933 20.7325 58.9645 21.1808 59.7788 22.0773C60.5926 22.9738 60.9993 24.0618 60.9993 25.3426C60.9988 25.5753 60.976 25.8372 60.9299 26.1283ZM54.0698 24.5916H59.1247C58.9983 23.9046 58.7151 23.3753 58.2737 23.0026C57.8329 22.6299 57.2967 22.4435 56.6664 22.4435C55.9786 22.4435 55.4058 22.6354 54.9471 23.0197C54.4884 23.4045 54.1963 23.9283 54.0698 24.5916ZM66.6795 20.7325C67.6768 20.7325 68.4762 21.0559 69.0777 21.7016C69.6793 22.3478 69.9803 23.2237 69.9803 24.3297V29.6903H68.1236V24.5221C68.1236 23.8704 67.9515 23.3697 67.6079 23.0202C67.2637 22.6711 66.7941 22.4964 66.1979 22.4964C65.5215 22.4964 64.9889 22.7084 64.5991 23.1335C64.2098 23.5581 64.015 24.1842 64.015 25.0107V29.6903H62.1577V20.9597H64.015V22.0773C64.5877 21.1808 65.4764 20.7325 66.6795 20.7325ZM78.3092 22.1997V17.4678H80.166V29.6907H78.3092V28.4336C77.61 29.4233 76.6073 29.9179 75.3005 29.9179C74.1198 29.9179 73.1111 29.4756 72.2744 28.5908C71.4378 27.7058 71.0193 26.6174 71.0193 25.3255C71.0193 24.0336 71.4378 22.9446 72.2744 22.0602C73.1111 21.1758 74.1198 20.7331 75.3005 20.7331C76.6073 20.7326 77.61 21.2216 78.3092 22.1997ZM73.6501 27.3331C74.1659 27.8569 74.8135 28.1188 75.5932 28.1188C76.3727 28.1188 77.0199 27.8569 77.5362 27.3331C78.0519 26.7977 78.3098 26.1283 78.3098 25.3249C78.3098 24.5221 78.0519 23.8583 77.5362 23.3345C77.0204 22.7991 76.3727 22.5311 75.5932 22.5311C74.8135 22.5311 74.1659 22.7986 73.6501 23.3345C73.1344 23.8583 72.8765 24.5216 72.8765 25.3249C72.8765 26.1167 73.1344 26.7861 73.6501 27.3331ZM88.7012 22.2521V20.9602H90.5234V29.2893C90.5234 30.6165 90.0944 31.6349 89.2343 32.3451C88.386 33.0553 87.3428 33.4103 86.1053 33.4103C84.1222 33.4103 82.7644 32.7062 82.0306 31.2975L83.6297 30.3546C84.0764 31.2511 84.9136 31.6994 86.14 31.6994C86.9425 31.6994 87.5697 31.4869 88.0223 31.0622C88.4749 30.6371 88.7012 30.0463 88.7012 29.2898V28.2245C88.0021 29.2374 87.0046 29.7436 85.7096 29.7436C84.5061 29.7436 83.4799 29.307 82.6323 28.4336C81.7951 27.5486 81.3772 26.4839 81.3772 25.2383C81.3772 23.9812 81.7957 22.9215 82.6323 22.0602C83.4688 21.1752 84.4944 20.7331 85.7096 20.7331C87.0046 20.7326 88.0021 21.2392 88.7012 22.2521ZM84.0071 27.1936C84.5343 27.7174 85.1877 27.9793 85.9673 27.9793C86.7463 27.9793 87.3944 27.7179 87.9105 27.1936C88.4377 26.6697 88.7012 26.018 88.7012 25.2378C88.7012 24.4577 88.4377 23.8059 87.9105 23.2821C87.3944 22.7583 86.7469 22.4964 85.9673 22.4964C85.1877 22.4964 84.5343 22.7583 84.0071 23.2821C83.4917 23.8059 83.234 24.4577 83.234 25.2378C83.234 26.018 83.4917 26.6697 84.0071 27.1936ZM100.52 26.1283H93.6766C93.814 26.7801 94.1266 27.2867 94.6139 27.6474C95.1011 28.0085 95.7055 28.1888 96.4282 28.1888C97.4021 28.1888 98.1412 27.8282 98.6461 27.1064L100.176 28.0146C99.3394 29.2833 98.0843 29.9179 96.4106 29.9179C95.024 29.9179 93.8951 29.4873 93.0239 28.6255C92.1645 27.7526 91.7341 26.6521 91.7341 25.3249C91.7341 24.033 92.1586 22.9441 93.0062 22.0597C93.8428 21.1748 94.9318 20.7325 96.2732 20.7325C97.5218 20.7325 98.5539 21.1808 99.3682 22.0773C100.182 22.9738 100.589 24.0618 100.589 25.3426C100.589 25.5753 100.566 25.8372 100.52 26.1283ZM93.6596 24.5916H98.7148C98.5886 23.9046 98.3054 23.3753 97.8639 23.0026C97.4224 22.6299 96.8867 22.4435 96.2562 22.4435C95.5688 22.4435 94.9952 22.6354 94.5374 23.0197C94.0782 23.4045 93.7858 23.9283 93.6596 24.5916Z" fill="currentColor"/>
</svg>
