<svg viewBox="0 0 116 49" fill="none" xmlns="http://www.w3.org/2000/svg">
    <path d="M26.5593 19.6238C29.4909 19.6238 32.249 21.5843 32.249 25.7503C32.249 29.9163 29.4909 31.8768 26.5593 31.8768H17.5391L17.5391 19.6238H26.5593ZM25.1716 28.0258C26.143 28.0258 27.7389 28.0258 27.7389 25.7503C27.7389 23.4747 26.143 23.4747 25.1716 23.4747H22.0492V28.0259L25.1716 28.0258Z" fill="currentColor"/>
    <path d="M45.9537 23.1246H37.6273V24.2624H45.9537V27.2382H37.6273V28.3759L45.9537 28.376V31.8768H33.1172V19.6238H45.9537V23.1246Z" fill="currentColor"/>
    <path d="M58.9519 19.6238H63.9131L58.8825 31.8768H52.1868L47.1562 19.6238H52.1174L55.5346 28.726L58.9519 19.6238Z" fill="currentColor"/>
    <path d="M69.6507 19.6238V31.8768H65.1406V19.6238H69.6507Z" fill="currentColor"/>
    <path d="M75.1976 28.0259H83.1771V31.8768H70.6875V19.6238H75.1976V28.0259Z" fill="currentColor"/>
    <path d="M83.8672 27.5544H88.3773C88.3773 28.1496 88.9324 28.5522 91.7946 28.5522C94.466 28.5522 94.865 28.3772 94.865 27.922C94.865 27.3969 94.466 27.3269 91.6211 27.2394C86.1396 27.0643 84.0407 26.1541 84.0407 23.3009C84.0407 20.6052 86.66 19.45 91.4476 19.45C96.1833 19.45 98.8547 20.6052 98.8547 23.7385H94.3446C94.3446 23.0908 93.3037 22.9508 91.1007 22.9508C88.9845 22.9508 88.5508 23.0558 88.5508 23.5285C88.5508 24.0011 88.9845 23.9836 91.6211 24.0886C96.4088 24.2811 99.3751 24.6137 99.3751 27.8171C99.3751 31.1953 96.5996 32.0531 91.6211 32.0531C86.6427 32.0531 83.8672 31.1953 83.8672 27.5544Z" fill="currentColor"/>
</svg>
