<svg viewBox="0 0 116 49" fill="none" xmlns="http://www.w3.org/2000/svg">
    <path d="M57.6579 10.2478H62.1325L63.3972 13.1865C58.5507 17.3848 54.5067 22.3801 51.0312 27.944L57.6579 10.2478Z" fill="currentColor"/>
    <path d="M82.2182 10.456H76.1175C73.9227 10.456 71.8024 11.3594 70.3516 13.0015C67.2588 16.5089 67.1737 21.4245 69.7299 25.0169C71.2444 27.1425 73.758 28.3223 76.3673 28.3223H82.2129V24.1985H75.6711C71.3188 24.1985 71.3082 14.0856 75.7296 14.0856H82.2182V10.4507V10.456Z" fill="currentColor"/>
    <path d="M74.421 10.7405C62.5332 12.5845 55.7841 25.0994 51.8516 40.5052C54.6256 33.9369 57.4209 28.3038 60.2534 24.4511H63.9095L65.2381 28.3251H70.2069L66.8058 20.2741C65.8758 18.0687 66.4763 15.4914 68.3309 13.9821C70.074 12.5632 72.4707 11.527 74.421 10.7458V10.7405Z" fill="currentColor"/>
    <path d="M97.6564 10.2478V28.3213H93.4688V21.1259H88.1387V28.3213H83.3984V10.4551H88.1387V17.4804H93.2828V10.2478H97.6564Z" fill="currentColor"/>
    <path d="M31.8317 21.0702C35.0042 18.9657 36.0724 14.5869 32.3525 11.6535C31.3587 10.8723 30.1205 10.4578 28.8504 10.4578H19.625V28.324H23.9507V21.6175H27.1871L30.9814 28.324H36.083L31.8317 21.0702ZM30.2481 16.2289C30.1365 17.0154 29.3925 17.5628 28.5953 17.5628H23.9082V14.454H28.6166C29.3234 14.454 30.0036 14.8845 30.2002 15.5647C30.264 15.7879 30.2799 16.0111 30.2481 16.2289Z" fill="currentColor"/>
    <path d="M50.0399 28.324H43.2218C41.3246 28.324 39.4593 27.6279 38.1308 26.2781C34.0017 22.0745 34.2993 13.5453 39.5869 11.053C40.485 10.6278 41.484 10.4578 42.4831 10.4578H49.907V14.3849L44.1783 14.3265C42.4565 14.3105 40.8676 15.4106 40.4212 17.0739L40.4106 17.1164H50.0452V21.3518H40.4106C40.4106 21.3518 40.4106 21.3784 40.4106 21.3943C40.4743 23.0417 41.8773 24.3224 43.5247 24.3224H50.0399V28.3187V28.324Z" fill="currentColor"/>
    <path d="M70.7536 37.3903H68.3888C67.7299 37.3903 67.0815 37.1459 66.6245 36.6729C65.1897 35.1956 65.296 32.1984 67.1294 31.3215C67.4429 31.1727 67.7883 31.1143 68.1337 31.1143H70.7111V32.4959L68.7236 32.4747C68.1284 32.4694 67.5758 32.8573 67.4216 33.4419V33.4578H70.7589V34.9458H67.4163C67.4163 34.9458 67.4163 34.9564 67.4163 34.9617C67.4376 35.541 67.9265 35.9926 68.4951 35.9926H70.7536V37.3956V37.3903Z" fill="currentColor"/>
    <path d="M87.6286 37.3903H85.2638C84.6049 37.3903 83.9565 37.1459 83.4995 36.6729C82.0647 35.1956 82.171 32.1984 84.0044 31.3215C84.3179 31.1727 84.6633 31.1143 85.0087 31.1143H87.5861V32.4959L85.5986 32.4747C85.0034 32.4694 84.4508 32.8573 84.2966 33.4419V33.4578H87.634V34.9458H84.2913C84.2913 34.9458 84.2913 34.9564 84.2913 34.9617C84.3126 35.541 84.8015 35.9926 85.3701 35.9926H87.6286V37.3956V37.3903Z" fill="currentColor"/>
    <path d="M93.1833 37.3865H90.8185C90.1596 37.3865 89.5112 37.1421 89.0542 36.6638C87.6194 35.1865 87.7257 32.1839 89.5591 31.3071C89.8726 31.1583 90.218 31.0999 90.5634 31.0999H93.1408V32.4815L91.1533 32.4603C90.5581 32.455 90.0054 32.8429 89.8513 33.4275V33.4434C89.7663 33.9111 89.7769 34.4106 89.8513 34.9314C89.8513 34.9314 89.8513 34.942 89.8513 34.9473C89.8726 35.5266 90.3615 35.9783 90.9301 35.9783H93.1886V37.3865H93.1833Z" fill="currentColor"/>
    <path d="M76.4669 32.6197V31.0999H72.9967C72.7576 31.0999 72.5185 31.1477 72.3165 31.2646C71.6416 31.6632 71.3334 32.5241 71.344 33.7941V37.3812H72.9808L72.9967 34.8729H76.4722L76.4935 33.5923H73.002C73.002 33.5923 72.9064 32.6622 73.8098 32.6357C74.304 32.6197 76.4722 32.6197 76.4722 32.6197H76.4669Z" fill="currentColor"/>
    <path d="M82.0919 32.6197V31.0999H78.6217C78.3826 31.0999 78.1434 31.1477 77.9415 31.2646C77.2666 31.6632 76.9584 32.5241 76.969 33.7941V37.3812H78.6058L78.6217 34.8729H82.0972L82.1185 33.5922H78.627C78.627 33.5922 78.5314 32.6622 79.4348 32.6357C79.929 32.6197 82.0972 32.6197 82.0972 32.6197H82.0919Z" fill="currentColor"/>
    <path d="M95.1977 37.3883H96.6963V32.4514L98.365 32.4674L98.3703 31.1069H93.5078V32.478L95.1712 32.4567L95.1977 37.3883Z" fill="currentColor"/>
</svg>
