<svg viewBox="0 0 116 49" fill="none" xmlns="http://www.w3.org/2000/svg">
    <path d="M105.673 16.2024H11.0312V34.5769H105.673V16.2024Z" fill="white"/>
    <path d="M105.673 16.2061H11.0312V34.5805H105.673V16.2061Z" fill="white"/>
    <path d="M39.2225 26.0127L31.9688 18.5613V32.2218H36.2307V29.148L39.2225 32.2218L42.2144 29.148V32.2218H46.4762V18.5613L39.2225 26.0127ZM48.6068 32.2213H58.5122V28.4827H52.8682V27.2603H57.881V23.5217H52.8682V22.2993H58.5122V18.5608H48.6068V32.2213ZM81.9168 32.2213H91.8222V28.4827H86.1783V27.2603H91.191V23.5217H86.1783V22.2993H91.8222V18.5608H81.9168V32.2213ZM75.5245 32.2213H79.786V18.5608H75.5245V32.2213ZM103.353 28.0574L105.673 32.2213H101.411L99.5364 28.856H98.215V32.2213H93.953V18.5608H100.689C103.441 18.5608 105.673 20.8656 105.673 23.7084C105.673 25.5384 104.747 27.1445 103.353 28.0574ZM101.118 23.7084C101.118 22.8785 100.467 22.2055 99.6635 22.2055H98.2145V23.5766C98.2112 23.62 98.2084 23.6639 98.2084 23.7084C98.2084 23.7529 98.2112 23.7968 98.2145 23.8401V25.2113H99.6635C100.467 25.2113 101.118 24.5383 101.118 23.7084ZM73.8684 25.3913C73.8684 29.1633 70.9083 32.2213 67.2563 32.2213H60.6437V18.5613H67.2563C70.9083 18.5613 73.8684 21.6193 73.8684 25.3913ZM69.3077 25.3913C69.3077 23.6837 68.1546 22.2999 66.7328 22.2999H64.9046V28.4833H66.7328C68.1552 28.4833 69.3077 27.0989 69.3077 25.3919V25.3913Z" fill="currentColor"/>
    <path d="M11.0312 21.7488V29.0277L17.2254 25.388L11.0312 21.7488Z" fill="currentColor"/>
    <path d="M29.2128 25.3936L22.7014 29.2194L13.5781 34.5805V29.5158L20.5938 25.3936L13.5781 21.2708V16.2061L22.7014 21.5672L29.2128 25.3936Z" fill="currentColor"/>
</svg>
