<svg viewBox="0 0 116 49" fill="none" xmlns="http://www.w3.org/2000/svg">
    <path d="M35.2344 19.7361H38.3958L40.5681 25.1813H40.6796L42.8519 19.7361H46.0133V29.3462H43.5307V23.7914H43.458L41.373 29.2715H39.8747L37.7897 23.7515H37.717V29.3462H35.2344V19.7361Z" fill="currentColor"/>
    <path d="M49.2057 29.4652C48.7596 29.4652 48.362 29.3905 48.0177 29.241C47.6783 29.0866 47.4068 28.8574 47.2128 28.5485C47.0189 28.2396 46.9219 27.8461 46.9219 27.3678C46.9219 26.9742 46.9849 26.6355 47.1158 26.3565C47.2467 26.0725 47.431 25.8433 47.6637 25.669C47.8965 25.4896 48.1729 25.3551 48.4832 25.2605C48.7984 25.1658 49.1329 25.106 49.4966 25.0761C49.8894 25.0462 50.2045 25.0064 50.4421 24.9615C50.6846 24.9167 50.8543 24.8519 50.9609 24.7672C51.0676 24.6826 51.1209 24.5729 51.1209 24.4335V24.4135C51.1209 24.2242 51.0531 24.0797 50.9125 23.9801C50.7718 23.8805 50.5924 23.8306 50.3742 23.8306C50.1318 23.8306 49.9378 23.8854 49.7827 23.995C49.6324 24.0997 49.5451 24.2641 49.5111 24.4883H47.1934C47.2225 24.0498 47.3583 23.6463 47.6007 23.2777C47.8432 22.904 48.1971 22.6101 48.6626 22.3859C49.1281 22.1617 49.7099 22.0471 50.4082 22.0471C50.9124 22.0471 51.3634 22.1069 51.761 22.2314C52.1586 22.351 52.498 22.5154 52.7792 22.7346C53.0605 22.9488 53.2738 23.1979 53.4193 23.4869C53.5696 23.7709 53.6423 24.0797 53.6423 24.4185V29.3556H51.2858V28.3443H51.2325C51.0919 28.6133 50.9221 28.8325 50.7233 28.9969C50.5245 29.1613 50.2967 29.2809 50.0445 29.3606C49.7875 29.4253 49.5111 29.4652 49.2057 29.4652ZM50.0251 27.8311C50.2191 27.8311 50.3985 27.7913 50.5633 27.7116C50.733 27.6318 50.8737 27.5123 50.9803 27.3578C51.087 27.2034 51.1403 27.0191 51.1403 26.7999V26.1971C51.0725 26.2269 50.9997 26.2519 50.927 26.2768C50.8543 26.3017 50.7767 26.3266 50.6894 26.3465C50.607 26.3664 50.5197 26.3864 50.4227 26.4063C50.3306 26.4262 50.2336 26.4412 50.1366 26.4561C49.9427 26.486 49.7827 26.5408 49.6566 26.6106C49.5354 26.6803 49.4433 26.765 49.3802 26.8696C49.322 26.9692 49.2929 27.0838 49.2929 27.2084C49.2929 27.4077 49.3608 27.5621 49.4966 27.6667C49.6372 27.7763 49.8118 27.8311 50.0251 27.8311Z" fill="currentColor"/>
    <path d="M57.116 27.6374L57.1354 24.5586H57.4651L59.1622 22.1374H61.9939L59.1428 25.9087H58.43L57.116 27.6374ZM54.8516 29.3462V19.7361H57.3729V29.3462H54.8516ZM59.1816 29.3462L57.5717 26.4916L59.2155 24.6532L62.0666 29.3462H59.1816Z" fill="currentColor"/>
    <path d="M65.7217 29.4801C64.975 29.4801 64.3253 29.3307 63.7871 29.0367C63.2488 28.7378 62.8318 28.3144 62.5409 27.7614C62.25 27.2034 62.1094 26.5358 62.1094 25.7636C62.1094 25.0213 62.2548 24.3687 62.5458 23.8107C62.8367 23.2527 63.2488 22.8193 63.7822 22.5104C64.3156 22.2016 64.9459 22.0471 65.6684 22.0471C66.1969 22.0471 66.677 22.1318 67.1085 22.3012C67.54 22.4706 67.9037 22.7147 68.2092 23.0385C68.5147 23.3574 68.7474 23.746 68.9123 24.2043C69.0771 24.6626 69.1596 25.1758 69.1596 25.7487V26.3515H62.89V24.9267H66.837C66.8321 24.7224 66.7836 24.5381 66.6818 24.3836C66.5848 24.2242 66.4539 24.0997 66.2842 24.015C66.1193 23.9253 65.9351 23.8805 65.7217 23.8805C65.5181 23.8805 65.329 23.9253 65.1593 24.015C64.9896 24.1046 64.849 24.2242 64.7471 24.3787C64.6453 24.5331 64.592 24.7174 64.5871 24.9267V26.4661C64.5871 26.6952 64.6356 26.9045 64.7277 27.0838C64.8247 27.2632 64.9556 27.4077 65.135 27.5123C65.3096 27.6169 65.5229 27.6667 65.7751 27.6667C65.9496 27.6667 66.1048 27.6418 66.2503 27.592C66.3957 27.5422 66.5218 27.4724 66.6236 27.3778C66.7254 27.2831 66.803 27.1635 66.8515 27.029H69.1547C69.0771 27.5272 68.888 27.9656 68.5922 28.3343C68.2965 28.698 67.9037 28.9869 67.4188 29.1862C66.9339 29.3805 66.3715 29.4801 65.7217 29.4801Z" fill="currentColor"/>
    <path d="M70.1484 29.3462V19.7361H72.6698V23.3978H72.7086C72.8007 23.1537 72.9317 22.9295 73.1111 22.7252C73.2905 22.521 73.5087 22.3566 73.7705 22.232C74.0323 22.1075 74.3378 22.0427 74.6821 22.0427C75.1427 22.0427 75.584 22.1673 76.001 22.4213C76.4228 22.6754 76.7622 23.074 77.0241 23.617C77.2907 24.16 77.4217 24.8675 77.4217 25.7393C77.4217 26.5713 77.2956 27.2588 77.0435 27.8068C76.7962 28.3548 76.4616 28.7633 76.0398 29.0323C75.6228 29.3014 75.167 29.4359 74.6675 29.4359C74.3378 29.4359 74.0469 29.3811 73.7851 29.2715C73.5281 29.1569 73.3099 29.0074 73.1256 28.8181C72.9462 28.6238 72.8056 28.4046 72.7086 28.1605H72.6553V29.3412H70.1484V29.3462ZM72.6165 25.7443C72.6165 26.093 72.6601 26.3969 72.7474 26.656C72.8395 26.91 72.9656 27.1043 73.1305 27.2488C73.3002 27.3883 73.499 27.4531 73.7269 27.4531C73.9596 27.4531 74.1536 27.3833 74.3184 27.2488C74.4833 27.1093 74.6094 26.915 74.6918 26.6609C74.7791 26.4069 74.8227 26.098 74.8227 25.7393C74.8227 25.3806 74.7791 25.0767 74.6918 24.8226C74.6045 24.5685 74.4833 24.3693 74.3184 24.2348C74.1584 24.0953 73.9596 24.0305 73.7269 24.0305C73.4941 24.0305 73.2953 24.1002 73.1305 24.2348C72.9656 24.3693 72.8395 24.5636 72.7474 24.8226C72.6601 25.0817 72.6165 25.3856 72.6165 25.7443Z" fill="currentColor"/>
    <path d="M81.8311 29.4801C81.0844 29.4801 80.4347 29.3307 79.8964 29.0367C79.3582 28.7378 78.9412 28.3144 78.6503 27.7614C78.3594 27.2034 78.2188 26.5358 78.2188 25.7636C78.2188 25.0213 78.3642 24.3687 78.66 23.8107C78.9509 23.2527 79.3631 22.8193 79.8964 22.5104C80.4298 22.2016 81.0602 22.0471 81.7826 22.0471C82.3112 22.0471 82.7912 22.1318 83.2227 22.3012C83.6543 22.4706 84.0179 22.7147 84.3234 23.0385C84.6289 23.3574 84.8616 23.746 85.0265 24.2043C85.1914 24.6626 85.2738 25.1758 85.2738 25.7487V26.3515H79.0091V24.9267H82.956C82.9512 24.7224 82.9027 24.5381 82.8009 24.3836C82.7039 24.2242 82.573 24.0997 82.4033 24.015C82.2384 23.9253 82.0542 23.8805 81.8408 23.8805C81.6372 23.8805 81.4481 23.9253 81.2784 24.015C81.1086 24.1046 80.9729 24.2242 80.8662 24.3787C80.7644 24.5331 80.711 24.7174 80.7062 24.9267V26.4661C80.7062 26.6952 80.7547 26.9045 80.8468 27.0838C80.9389 27.2632 81.0796 27.4077 81.2541 27.5123C81.4287 27.6169 81.642 27.6667 81.8942 27.6667C82.0687 27.6667 82.2239 27.6418 82.3693 27.592C82.5148 27.5422 82.6409 27.4724 82.7427 27.3778C82.8445 27.2831 82.9221 27.1635 82.9706 27.029H85.2738C85.1962 27.5272 85.0071 27.9656 84.7113 28.3343C84.4155 28.698 84.0228 28.9869 83.5379 29.1862C83.0482 29.3805 82.4809 29.4801 81.8311 29.4801Z" fill="currentColor"/>
    <path d="M86.3047 29.3506V22.1418H88.7533V23.5118H88.8261C88.9521 23.0036 89.1558 22.635 89.4322 22.4008C89.7134 22.1667 90.0383 22.0471 90.4116 22.0471C90.5232 22.0471 90.6298 22.0571 90.7365 22.077C90.848 22.092 90.9499 22.1169 91.0517 22.1468V24.3587C90.9256 24.3139 90.7753 24.284 90.591 24.2591C90.4068 24.2392 90.2516 24.2242 90.1207 24.2242C89.8734 24.2242 89.6504 24.284 89.4516 24.3986C89.2576 24.5132 89.1025 24.6726 88.9909 24.8768C88.8794 25.0811 88.8212 25.3202 88.8212 25.5942V29.3506H86.3047Z" fill="currentColor"/>
    <path d="M91.875 29.3506V22.1418H94.3237V23.5118H94.3964C94.5225 23.0036 94.7261 22.635 95.0025 22.4008C95.2837 22.1667 95.6086 22.0471 95.9819 22.0471C96.0935 22.0471 96.2001 22.0571 96.3068 22.077C96.4183 22.092 96.5202 22.1169 96.622 22.1468V24.3587C96.4959 24.3139 96.3408 24.284 96.1614 24.2591C95.9771 24.2392 95.8219 24.2242 95.691 24.2242C95.4437 24.2242 95.2207 24.284 95.0219 24.3986C94.8279 24.5132 94.6728 24.6726 94.5612 24.8768C94.4497 25.0811 94.3915 25.3202 94.3915 25.5942V29.3506H91.875Z" fill="currentColor"/>
    <path d="M99.2011 32.0554C98.9102 32.0554 98.6338 32.0305 98.3768 31.9856C98.115 31.9408 97.8871 31.881 97.6883 31.8013L98.2362 29.963C98.4447 30.0377 98.6338 30.0875 98.8035 30.1074C98.9781 30.1274 99.1235 30.1174 99.2447 30.0676C99.3708 30.0227 99.4581 29.9331 99.5163 29.7986L99.5696 29.669L97.1016 22.1414H99.7345L100.869 27.1332H100.942L102.091 22.1414H104.738L102.178 29.948C102.052 30.3466 101.863 30.7003 101.621 31.0191C101.378 31.338 101.063 31.592 100.67 31.7764C100.282 31.9607 99.7927 32.0554 99.2011 32.0554Z" fill="currentColor"/>
    <path d="M18.868 22.4082C22.4464 18.8113 25.6515 16.2157 26.0297 16.6093C26.4031 17.0028 23.8041 20.2311 20.2208 23.8281C16.6424 27.42 13.4325 30.0156 13.0591 29.622C12.6858 29.2334 15.2847 26.0002 18.868 22.4082Z" fill="currentColor"/>
    <path d="M21.9305 25.6314C25.5138 22.0395 28.7188 19.4439 29.0922 19.8325C29.4656 20.226 26.8666 23.4543 23.2833 27.0513C19.7 30.6432 16.495 33.2388 16.1216 32.8502C15.7483 32.4566 18.3472 29.2234 21.9305 25.6314Z" fill="currentColor"/>
    <path d="M20.1464 23.7585C23.8896 20.0021 27.3372 17.3916 27.8463 17.9296C28.3603 18.4677 25.7419 21.9451 21.9986 25.7014C18.2553 29.4578 14.8127 32.0633 14.2987 31.5253C13.7847 30.9872 16.4079 27.5099 20.1464 23.7585Z" fill="currentColor"/>
    <path d="M17.5839 21.0662C21.0023 17.6337 24.0329 15.1178 24.348 15.4466C24.6632 15.7754 22.1467 18.8243 18.7283 22.2569C15.305 25.6944 12.2793 28.2103 11.9642 27.8765C11.649 27.5477 14.1655 24.4987 17.5839 21.0662Z" fill="currentColor"/>
    <path d="M23.4285 27.1988C26.8469 23.7662 29.8774 21.2504 30.1926 21.5842C30.5077 21.913 27.9912 24.9619 24.5728 28.3944C21.1544 31.827 18.1239 34.3428 17.8087 34.0091C17.4887 33.6803 20.0052 30.6263 23.4285 27.1988Z" fill="currentColor"/>
    <path d="M16.6544 20.1018C19.6316 17.1126 22.2209 14.8758 22.4391 15.1C22.6573 15.3291 20.4171 17.9347 17.4399 20.9188C14.4628 23.913 11.8735 26.1498 11.6553 25.9207C11.4371 25.6965 13.6773 23.0909 16.6544 20.1018Z" fill="currentColor"/>
    <path d="M24.7007 28.5427C27.6779 25.5536 30.2672 23.3167 30.4854 23.5409C30.7036 23.77 28.4634 26.3756 25.4862 29.3597C22.5091 32.3489 19.9198 34.5858 19.7016 34.3616C19.4882 34.1374 21.7235 31.5319 24.7007 28.5427Z" fill="currentColor"/>
    <path d="M15.7273 19.1247C18.1032 16.7434 20.1543 14.9449 20.3094 15.1093C20.4694 15.2737 18.6705 17.3412 16.2946 19.7226C13.9187 22.1039 11.8676 23.9024 11.7125 23.738C11.5573 23.5736 13.3514 21.5061 15.7273 19.1247Z" fill="currentColor"/>
    <path d="M25.8523 29.7319C28.2282 27.3506 30.2793 25.5521 30.4344 25.7165C30.5896 25.8809 28.7955 27.9484 26.4196 30.3297C24.0437 32.7111 21.9926 34.5096 21.8375 34.3452C21.6823 34.1808 23.4764 32.1182 25.8523 29.7319Z" fill="currentColor"/>
    <path d="M15.0208 18.3809C16.1894 17.2102 17.1979 16.3284 17.2755 16.4081C17.3531 16.4928 16.4706 17.5091 15.3069 18.6798C14.1383 19.8506 13.1298 20.7324 13.0522 20.6527C12.9698 20.568 13.8523 19.5517 15.0208 18.3809Z" fill="currentColor"/>
    <path d="M26.9896 30.93C28.1581 29.7592 29.1667 28.8774 29.2443 28.9572C29.3219 29.0418 28.4394 30.0582 27.2757 31.2289C26.1071 32.3997 25.0985 33.2815 25.021 33.2017C24.9385 33.1171 25.821 32.1007 26.9896 30.93Z" fill="currentColor"/>
    <path d="M35.5983 35.8818H34.9922L35.7777 33.4905H36.5244L37.3099 35.8818H36.7038L36.1559 34.0933H36.1365L35.5983 35.8818ZM35.5159 34.9402H36.7814V35.3786H35.5159V34.9402Z" fill="currentColor"/>
    <path d="M37.8594 35.8818V33.4905H39.4498V33.9588H38.4218V34.447H39.348V34.9153H38.4218V35.8768H37.8594V35.8818Z" fill="currentColor"/>
    <path d="M40.0312 35.8818V33.4905H41.6217V33.9588H40.5937V34.447H41.5198V34.9153H40.5937V35.8768H40.0312V35.8818Z" fill="currentColor"/>
    <path d="M42.7578 33.4905V35.8818H42.1953V33.4905H42.7578Z" fill="currentColor"/>
    <path d="M43.3984 35.8818V33.4905H43.9609V35.4135H44.9307V35.8818H43.3984Z" fill="currentColor"/>
    <path d="M46.0781 33.4905V35.8818H45.5156V33.4905H46.0781Z" fill="currentColor"/>
    <path d="M47.2233 35.8818H46.6172L47.4027 33.4905H48.1494L48.9349 35.8818H48.3288L47.7809 34.0933H47.7615L47.2233 35.8818ZM47.1409 34.9402H48.4064V35.3786H47.1409V34.9402Z" fill="currentColor"/>
    <path d="M49.4141 33.9588V33.4905H51.3827V33.9588H50.6748V35.8818H50.122V33.9588H49.4141Z" fill="currentColor"/>
    <path d="M51.9531 35.8818V33.4905H53.5775V33.9588H52.5156V34.447H53.495V34.9153H52.5156V35.4085H53.5775V35.8768H51.9531V35.8818Z" fill="currentColor"/>
<path d="M55.474 34.2066C55.4644 34.1219 55.4353 34.0522 55.3722 34.0073C55.3092 33.9625 55.2268 33.9376 55.1201 33.9376C55.0474 33.9376 54.9843 33.9476 54.9358 33.9675C54.8873 33.9874 54.8486 34.0123 54.8292 34.0472C54.8098 34.0821 54.7904 34.1219 54.7904 34.1618C54.7904 34.1966 54.7952 34.2315 54.8098 34.2564C54.8243 34.2813 54.8486 34.3063 54.8776 34.3262C54.9067 34.3461 54.9455 34.366 54.9843 34.381C55.0231 34.3959 55.0764 34.4109 55.1298 34.4208L55.3286 34.4657C55.445 34.4906 55.5468 34.5255 55.6341 34.5703C55.7213 34.6151 55.7989 34.665 55.8571 34.7247C55.9153 34.7845 55.9638 34.8543 55.9929 34.929C56.022 35.0037 56.0414 35.0934 56.0414 35.1881C56.0414 35.3375 56.0026 35.467 55.9298 35.5766C55.8571 35.6862 55.7504 35.766 55.6147 35.8257C55.4789 35.8855 55.3092 35.9104 55.1152 35.9104C54.9213 35.9104 54.7516 35.8805 54.6061 35.8208C54.4606 35.761 54.3491 35.6713 54.2667 35.5467C54.1843 35.4222 54.1455 35.2678 54.1406 35.0834H54.6788C54.6837 35.1582 54.7031 35.2229 54.737 35.2777C54.771 35.3325 54.8195 35.3674 54.8825 35.3923C54.9455 35.4172 55.0183 35.4322 55.1007 35.4322C55.1783 35.4322 55.2413 35.4222 55.2946 35.4023C55.348 35.3823 55.3868 35.3525 55.4159 35.3126C55.445 35.2727 55.4595 35.2329 55.4595 35.1831C55.4595 35.1382 55.445 35.0984 55.4207 35.0685C55.3965 35.0386 55.3528 35.0087 55.2995 34.9838C55.2462 34.9589 55.1734 34.939 55.091 34.919L54.8486 34.8592C54.6449 34.8094 54.4897 34.7347 54.3734 34.6301C54.257 34.5255 54.1988 34.381 54.1988 34.1967C54.1988 34.0472 54.2376 33.9177 54.3152 33.8081C54.3928 33.6985 54.4994 33.6088 54.6401 33.549C54.7807 33.4892 54.9358 33.4543 55.1104 33.4543C55.2898 33.4543 55.445 33.4842 55.5807 33.549C55.7165 33.6138 55.8183 33.6985 55.891 33.813C55.9638 33.9276 56.0026 34.0572 56.0026 34.2066H55.474Z" fill="currentColor"/>
</svg>
