<svg viewBox="0 0 116 49" fill="none" xmlns="http://www.w3.org/2000/svg">
    <path fill-rule="evenodd" clip-rule="evenodd" d="M101.408 24.6622C102.325 24.6622 103.39 23.9408 103.39 22.5827V22.0876C102.621 22.7382 100.121 22.2571 100.121 23.5021C100.121 24.2236 100.727 24.6622 101.408 24.6622ZM100.846 25.9919C99.5591 25.9919 98.3906 25.1574 98.3906 23.6577C98.3906 20.4746 103.39 21.9884 103.39 20.5455C103.39 19.824 102.769 19.5832 102.015 19.5832C101.068 19.5832 99.9143 19.9512 99.4408 20.2059L98.9378 19.0035C99.781 18.5931 100.875 18.2676 102.059 18.2676C103.627 18.2676 105.017 18.8335 105.017 20.5455V22.5827C105.017 23.3325 105.091 24.9873 105.209 25.6664L103.597 25.8648C103.538 25.5676 103.508 24.8887 103.508 24.5347C102.828 25.5108 101.807 25.9919 100.846 25.9919Z" fill="currentColor"/>
    <path fill-rule="evenodd" clip-rule="evenodd" d="M95.2612 25.992C93.1903 25.992 91.2969 24.4642 91.2969 22.13C91.2969 19.852 93.1167 18.2676 95.2466 18.2676C95.9416 18.2676 96.6666 18.4376 97.3766 18.8054L96.8295 19.9512C96.2968 19.6965 95.7938 19.5832 95.3353 19.5832C93.9895 19.5832 93.013 20.5596 93.0275 22.13C93.0275 23.6861 94.004 24.6622 95.2762 24.6622C95.7787 24.6622 96.3264 24.5067 96.8735 24.1811L97.5539 25.3273C96.8144 25.7801 96.0303 25.992 95.2612 25.992Z" fill="currentColor"/>
    <path fill-rule="evenodd" clip-rule="evenodd" d="M87.8644 25.8289H89.4918V18.4018H87.8644V25.8289ZM87.8203 17.4755H89.5364V15.8767H87.8203V17.4755Z" fill="currentColor"/>
    <path fill-rule="evenodd" clip-rule="evenodd" d="M82.3224 18.4076L82.367 16.4128H83.9493V18.4076H86.2862V19.6242H83.9493V23.1327C83.9493 24.1795 84.4824 24.6606 85.2215 24.6606C85.5617 24.6606 85.9465 24.5616 86.3308 24.3636L86.7747 25.5376C86.2125 25.8209 85.5321 25.9905 84.8818 25.9905C83.55 25.9905 82.3224 25.2829 82.3224 23.4297V19.6242H81.1094V18.4925L82.3224 18.4076Z" fill="currentColor"/>
    <path fill-rule="evenodd" clip-rule="evenodd" d="M76.111 24.6622C77.0279 24.6622 78.0932 23.9408 78.0932 22.5827V22.0876C77.3241 22.7382 74.8244 22.2571 74.8244 23.5021C74.8244 24.2236 75.4306 24.6622 76.111 24.6622ZM75.5488 25.9919C74.2622 25.9919 73.0938 25.1574 73.0938 23.6577C73.0938 20.4746 78.0932 21.9884 78.0932 20.5455C78.0932 19.824 77.4719 19.5832 76.7178 19.5832C75.7708 19.5832 74.6174 19.9512 74.1439 20.2059L73.6409 19.0035C74.4842 18.5931 75.5784 18.2676 76.7619 18.2676C78.3297 18.2676 79.7201 18.8335 79.7201 20.5455V22.5827C79.7201 23.3325 79.7942 24.9873 79.9125 25.6664L78.3001 25.8648C78.241 25.5676 78.2114 24.8887 78.2114 24.5347C77.531 25.5108 76.5104 25.9919 75.5488 25.9919Z" fill="currentColor"/>
    <path fill-rule="evenodd" clip-rule="evenodd" d="M63.6803 18.282C64.7155 18.282 65.6774 18.8479 66.1353 19.9088C66.8604 18.7911 67.9106 18.2676 68.8866 18.2676C70.3065 18.2676 71.5937 19.3713 71.5937 21.2954V25.8363H69.9518V21.578C69.9518 20.234 69.0935 19.5832 68.2212 19.5832C67.3188 19.5832 66.4019 20.2768 66.4019 21.578V25.8363H64.7603V21.578C64.7603 20.234 63.9023 19.5832 63.0298 19.5832C62.1273 19.5832 61.2104 20.2768 61.2104 21.578V25.8363H59.583V21.6629C59.583 20.913 59.509 19.2583 59.3906 18.5792L61.003 18.3808C61.0623 18.6778 61.1067 19.357 61.1067 19.7109C61.7724 18.7347 62.7482 18.282 63.6803 18.282Z" fill="currentColor"/>
    <path fill-rule="evenodd" clip-rule="evenodd" d="M53.6661 24.6622C54.5829 24.6622 55.6479 23.9408 55.6479 22.5827V22.0876C54.8787 22.7382 52.3791 22.2571 52.3791 23.5021C52.3791 24.2236 52.9853 24.6622 53.6661 24.6622ZM53.1036 25.9919C51.8171 25.9919 50.6484 25.1574 50.6484 23.6577C50.6484 20.4746 55.6479 21.9884 55.6479 20.5455C55.6479 19.824 55.0266 19.5832 54.2723 19.5832C53.3256 19.5832 52.1722 19.9512 51.6987 20.2059L51.1957 19.0035C52.0387 18.5931 53.1333 18.2676 54.3167 18.2676C55.8846 18.2676 57.2749 18.8335 57.2749 20.5455V22.5827C57.2749 23.3325 57.3489 24.9873 57.4673 25.6664L55.8549 25.8648C55.796 25.5676 55.7663 24.8887 55.7663 24.5347C55.086 25.5108 54.0653 25.9919 53.1036 25.9919Z" fill="currentColor"/>
    <path fill-rule="evenodd" clip-rule="evenodd" d="M45.033 24.6622C46.4974 24.6622 47.6806 23.9548 47.6806 22.1299C47.6806 20.3756 46.7043 19.5832 45.6988 19.5832C44.6338 19.5832 43.5537 20.3616 43.5537 21.578V24.4783C44.0567 24.6055 44.5597 24.6622 45.033 24.6622ZM46.098 18.2676C47.7545 18.2676 49.4111 19.6541 49.4111 22.1299C49.4111 24.7185 47.1926 25.9919 45.1217 25.9919C44.5743 25.9919 44.027 25.8927 43.5537 25.7232V28.1067H41.9268V21.6629C41.9268 20.913 41.8527 19.2582 41.7344 18.5792L43.3467 18.3808C43.4061 18.6778 43.4504 19.357 43.4504 19.7108C44.1458 18.7347 45.1217 18.2676 46.098 18.2676Z" fill="currentColor"/>
    <path fill-rule="evenodd" clip-rule="evenodd" d="M38.2299 25.992C36.1588 25.992 34.2656 24.4642 34.2656 22.13C34.2656 19.852 36.0853 18.2676 38.2152 18.2676C38.9101 18.2676 39.6351 18.4376 40.3451 18.8054L39.7979 19.9512C39.2651 19.6965 38.7621 19.5832 38.3039 19.5832C36.9579 19.5832 35.9816 20.5596 35.9962 22.13C35.9962 23.6861 36.9725 24.6622 38.2445 24.6622C38.7475 24.6622 39.2949 24.5067 39.8421 24.1811L40.5224 25.3273C39.7828 25.7801 38.9988 25.992 38.2299 25.992Z" fill="currentColor"/>
    <path d="M36.5521 30.2515H36.9615L38.5238 33.9197H38.0067L37.5541 32.8451H35.9487L35.5016 33.9197H34.9844L36.5521 30.2515ZM37.4464 32.4834L36.7568 30.7888L36.0456 32.4834H37.4464Z" fill="currentColor"/>
    <path d="M40.0078 33.9197V30.2515H42.5345V30.6648H40.4927V31.8893H42.2112V32.2768H40.4927V33.9197H40.0078Z" fill="currentColor"/>
    <path d="M44.1172 33.9197V30.2515H46.6438V30.6648H44.6021V31.8893H46.3206V32.2768H44.6021V33.9197H44.1172Z" fill="currentColor"/>
    <path d="M48.2266 33.9197V30.2515H48.7114V33.9197H48.2266Z" fill="currentColor"/>
    <path d="M50.5938 33.9197V30.2515H51.0786V33.5064H53.212V33.9197H50.5938Z" fill="currentColor"/>
    <path d="M54.7109 33.9197V30.2515H55.1958V33.9197H54.7109Z" fill="currentColor"/>
    <path d="M58.2474 30.2515H58.6568L60.2192 33.9197H59.702L59.2494 32.8451H57.644L57.1969 33.9197H56.6797L58.2474 30.2515ZM59.1417 32.4834L58.4521 30.7888L57.741 32.4834H59.1417Z" fill="currentColor"/>
    <path d="M64.0856 30.6648H62.7657V33.9197H62.2808V30.6648H60.9609V30.2515H64.0856V30.6648Z" fill="currentColor"/>
    <path d="M68.2058 33.5064V33.9197H65.6094V30.2515H68.1575V30.6648H66.0942V31.8531H67.8882V32.2406H66.0942V33.5064H68.2058Z" fill="currentColor"/>
    <path d="M72.6645 31.1194V33.9197H72.1797V30.2515H72.5564L74.9272 33.1086V30.2566H75.412V33.9197H75.0024L72.6645 31.1194Z" fill="currentColor"/>
    <path d="M79.8861 33.5064V33.9197H77.2891V30.2515H79.8377V30.6648H77.7738V31.8531H79.5679V32.2406H77.7738V33.5064H79.8861Z" fill="currentColor"/>
    <path d="M84.281 30.6648H82.961V33.9197H82.4762V30.6648H81.1562V30.2515H84.281V30.6648Z" fill="currentColor"/>
    <path d="M87.2008 30.2721H87.6587L88.165 31.5483L88.6772 30.2721H89.1351L88.4724 31.8686L89.1297 33.3824L90.4223 30.2515H90.9506L89.3506 33.9197H88.9303L88.1704 32.1889L87.4055 33.9197H86.9853L85.3906 30.2515H85.913L87.2115 33.3824L87.8635 31.8686L87.2008 30.2721Z" fill="currentColor"/>
    <path d="M93.8307 33.9567C93.5614 33.9567 93.3152 33.9051 93.0927 33.8017C92.8734 33.695 92.6848 33.5555 92.5268 33.3832C92.3688 33.2076 92.2468 33.0078 92.1608 32.784C92.0742 32.5601 92.0312 32.331 92.0312 32.0968C92.0312 31.8522 92.0759 31.618 92.1661 31.3941C92.2591 31.1703 92.3865 30.9722 92.5483 30.8C92.7101 30.6277 92.9003 30.4917 93.1196 30.3918C93.3421 30.2885 93.5829 30.2368 93.8414 30.2368C94.1107 30.2368 94.3547 30.2919 94.574 30.4021C94.7932 30.5089 94.9819 30.6502 95.1399 30.8258C95.2979 31.0015 95.4199 31.2012 95.5059 31.4251C95.5924 31.6456 95.6354 31.8712 95.6354 32.1019C95.6354 32.3465 95.5887 32.5807 95.4952 32.8046C95.4054 33.0285 95.2796 33.2265 95.1184 33.3988C94.9598 33.5675 94.7696 33.7036 94.5471 33.8069C94.3278 33.9068 94.0892 33.9567 93.8307 33.9567ZM92.5214 32.0968C92.5214 32.2828 92.552 32.4636 92.6128 32.6393C92.6778 32.8115 92.7676 32.9647 92.8826 33.0991C92.9976 33.2334 93.1357 33.3402 93.297 33.4194C93.4587 33.4987 93.6382 33.5383 93.836 33.5383C94.0408 33.5383 94.2241 33.4969 94.3853 33.4143C94.5471 33.3281 94.6836 33.2179 94.7949 33.0836C94.9099 32.9458 94.9959 32.7908 95.0534 32.6186C95.1146 32.4464 95.1453 32.2725 95.1453 32.0968C95.1453 31.9108 95.1125 31.7317 95.048 31.5595C94.9873 31.3838 94.8975 31.2305 94.7787 31.0996C94.6637 30.9653 94.5256 30.8585 94.3638 30.7793C94.2058 30.7001 94.03 30.6605 93.836 30.6605C93.6313 30.6605 93.448 30.7018 93.2862 30.7845C93.125 30.8671 92.9863 30.9756 92.8718 31.11C92.76 31.2443 92.674 31.3976 92.6128 31.5698C92.552 31.742 92.5214 31.9177 92.5214 32.0968Z" fill="currentColor"/>
    <path d="M97.2812 33.9197V30.2515H98.9194C99.0882 30.2515 99.2424 30.2859 99.3827 30.3548C99.5262 30.4202 99.6482 30.5098 99.7487 30.6235C99.853 30.7337 99.9336 30.8594 99.9911 31.0006C100.049 31.1384 100.078 31.2796 100.078 31.4243C100.078 31.5517 100.058 31.6757 100.018 31.7963C99.9825 31.9134 99.9282 32.0202 99.8567 32.1166C99.7885 32.213 99.7041 32.2957 99.6036 32.3646C99.5063 32.4335 99.3967 32.4834 99.2747 32.5144L100.201 33.9197H99.652L98.7791 32.6022H97.7666V33.9197H97.2812ZM97.7666 32.1889H98.9248C99.0253 32.1889 99.115 32.1683 99.1941 32.1269C99.2768 32.0856 99.3467 32.0305 99.4042 31.9616C99.4617 31.8893 99.5063 31.8066 99.5386 31.7136C99.5708 31.6206 99.5875 31.5242 99.5875 31.4243C99.5875 31.3209 99.5676 31.2245 99.5278 31.1349C99.4918 31.0419 99.4418 30.961 99.3773 30.8921C99.3161 30.8198 99.2424 30.7647 99.1564 30.7268C99.0737 30.6855 98.9855 30.6648 98.8925 30.6648H97.7666V32.1889Z" fill="currentColor"/>
    <path d="M101.789 33.9197V30.2566H102.274V32.2819L104.245 30.2515H104.768L103.233 31.8686L104.854 33.9197H104.326L102.937 32.1373L102.274 32.7986V33.9197H101.789Z" fill="currentColor"/>
    <path fill-rule="evenodd" clip-rule="evenodd" d="M24.4533 30.5652L29.3407 32.6254L22.4116 35.6071L24.4533 30.5652ZM11.5326 25.4348L16.8795 30.7458L14.9975 32.6461L11.5326 25.4348ZM14.4967 18.1681L16.6619 20.2676L11.5223 25.302L14.4967 18.1681ZM29.1016 18.2117L24.3148 20.1189L22.2674 15.2656L29.1016 18.2117ZM25.2993 22.4526L29.1564 18.5577L26.4624 25.2097L25.2993 22.4526ZM29.302 32.3205L25.3101 28.4496L26.4655 25.5966L29.302 32.3205ZM25.2508 28.5961L29.0418 32.272L24.5109 30.4231L25.2508 28.5961ZM19.4509 28.3582L22.1719 25.6106L25.136 28.4848L24.3737 30.367L19.4509 28.3582ZM18.7819 22.3233L12.0259 25.0149L16.7677 20.3702L18.7819 22.3233ZM22.0663 25.5082L19.3035 28.298L11.8318 25.249L18.8963 22.4343L22.0663 25.5082ZM25.187 22.566L26.384 25.4034L25.1953 28.3382L22.275 25.5065L25.187 22.566ZM24.3714 20.253L29.1598 18.3452L25.2375 22.306L24.3714 20.253ZM25.1251 22.4194L22.1694 25.4041L19.0454 22.3749L24.2343 20.3076L25.1251 22.4194ZM16.7666 20.1652L14.5824 18.0473L21.7907 15.2439L16.7666 20.1652ZM22.0671 15.1792L24.1776 20.1735L18.931 22.264L16.8724 20.2677L22.0671 15.1792ZM11.6783 25.3554L19.1857 28.417L16.987 30.6372L11.6783 25.3554ZM21.7707 35.6041L15.1038 32.7478L16.9839 30.8494L21.7707 35.6041ZM17.0912 30.7409L19.3331 28.4771L24.3161 30.5092L22.2176 35.6907L22.1119 35.7361L17.0912 30.7409ZM29.6095 32.6601L26.5439 25.4029L29.458 18.2067L22.0184 15L14.4126 17.9447L11.3359 25.3634L14.9207 32.8254L22.0921 35.9024L29.6095 32.6601Z" fill="currentColor" stroke="currentColor" stroke-width="0.265709"/>
    <path fill-rule="evenodd" clip-rule="evenodd" d="M11.5156 25.2739L22.036 35.8662L29.571 32.607L11.5156 25.2739Z" fill="currentColor"/>
    <path fill-rule="evenodd" clip-rule="evenodd" d="M22.0462 15.0869L11.4922 25.3519C13.4901 20.5122 14.4976 18.0718 14.5145 18.0307C14.5315 17.9896 17.0379 16.9652 22.0462 15.0869Z" fill="currentColor"/>
    <path fill-rule="evenodd" clip-rule="evenodd" d="M29.2488 18.2749L22.1386 25.449L18.8984 22.3491L29.2488 18.2749Z" fill="currentColor"/>
</svg>
