<svg xmlns="http://www.w3.org/2000/svg" xmlns:xlink="http://www.w3.org/1999/xlink"><defs><symbol fill="none" viewBox="0 0 24 24" id="angle-down"><path stroke="currentColor" stroke-linecap="round" stroke-linejoin="round" stroke-width="2" d="m7 10 5 5M12 15l5-5" /></symbol><symbol fill="none" viewBox="0 0 24 24" id="angle-left"><path stroke="currentColor" stroke-linecap="round" stroke-linejoin="round" stroke-width="2" d="m14 7-5 5M9 12l5 5" /></symbol><symbol fill="none" viewBox="0 0 24 24" id="angle-right"><path stroke="currentColor" stroke-linecap="round" stroke-linejoin="round" stroke-width="2" d="m10 17 5-5M15 12l-5-5" /></symbol><symbol fill="none" viewBox="0 0 24 24" id="angle-up"><path stroke="currentColor" stroke-linecap="round" stroke-linejoin="round" stroke-width="2" d="m17 14-5-5M12 9l-5 5" /></symbol><symbol fill="none" viewBox="0 0 24 24" id="arrow-down"><path stroke="currentColor" stroke-linecap="round" stroke-linejoin="round" stroke-width="2" d="M12 19V5M5 12l7 7 7-7" /></symbol><symbol fill="none" viewBox="0 0 24 24" id="arrow-down-circle"><circle cx="12" cy="12" r="9" stroke="currentColor" stroke-linecap="round" stroke-linejoin="round" stroke-width="2" /><path stroke="currentColor" stroke-linecap="round" stroke-linejoin="round" stroke-width="2" d="m9 12 3 3m0 0 3-3m-3 3V9" /></symbol><symbol fill="none" viewBox="0 0 24 24" id="arrow-left"><path stroke="currentColor" stroke-linecap="round" stroke-linejoin="round" stroke-width="2" d="M5 12h14M12 5l-7 7 7 7" /></symbol><symbol fill="none" viewBox="0 0 24 24" id="arrow-left-circle"><circle cx="12" cy="12" r="9" stroke="currentColor" stroke-linecap="round" stroke-linejoin="round" stroke-width="2" /><path stroke="currentColor" stroke-linecap="round" stroke-linejoin="round" stroke-width="2" d="m12 9-3 3m0 0 3 3m-3-3h6" /></symbol><symbol fill="none" viewBox="0 0 24 24" id="arrow-right"><path stroke="currentColor" stroke-linecap="round" stroke-linejoin="round" stroke-width="2" d="M19 12H5M12 19l7-7-7-7" /></symbol><symbol fill="none" viewBox="0 0 24 24" id="arrow-right-circle"><circle cx="12" cy="12" r="9" stroke="currentColor" stroke-linecap="round" stroke-linejoin="round" stroke-width="2" /><path stroke="currentColor" stroke-linecap="round" stroke-linejoin="round" stroke-width="2" d="m12 15 3-3m0 0-3-3m3 3H9" /></symbol><symbol fill="none" viewBox="0 0 24 24" id="arrow-up"><path stroke="currentColor" stroke-linecap="round" stroke-linejoin="round" stroke-width="2" d="M12 5v14M19 12l-7-7-7 7" /></symbol><symbol fill="none" viewBox="0 0 24 24" id="arrow-up-circle"><circle cx="12" cy="12" r="9" stroke="currentColor" stroke-linecap="round" stroke-linejoin="round" stroke-width="2" /><path stroke="currentColor" stroke-linecap="round" stroke-linejoin="round" stroke-width="2" d="m15 12-3-3m0 0-3 3m3-3v6" /></symbol><symbol fill="none" viewBox="0 0 24 24" id="calendar"><path stroke="currentColor" stroke-linecap="round" stroke-linejoin="round" stroke-width="2" d="M4 8h16M4 8v8.8c0 1.12 0 1.68.218 2.108a2 2 0 0 0 .874.874c.427.218.987.218 2.105.218h9.606c1.118 0 1.677 0 2.104-.218.377-.192.683-.498.875-.874.218-.428.218-.986.218-2.104V8M4 8v-.8c0-1.12 0-1.68.218-2.108.192-.377.497-.682.874-.874C5.52 4 6.08 4 7.2 4H8m12 4v-.803c0-1.118 0-1.678-.218-2.105a2 2 0 0 0-.875-.874C18.48 4 17.92 4 16.8 4H16m0-2v2m0 0H8m0-2v2" /></symbol><symbol fill="none" viewBox="0 0 24 24" id="close"><path stroke="currentColor" stroke-linecap="round" stroke-linejoin="round" stroke-width="2" d="m18 18-6-6m0 0L6 6m6 6 6-6m-6 6-6 6" /></symbol><symbol fill="none" viewBox="0 0 20 20" id="facebook"><path fill="currentColor" d="M11.667 11.25h2.083l.833-3.333h-2.916V6.25c0-.859 0-1.667 1.666-1.667h1.25v-2.8a24 24 0 0 0-2.38-.116c-2.263 0-3.87 1.38-3.87 3.916v2.334h-2.5v3.333h2.5v7.083h3.334z" /></symbol><symbol fill="none" viewBox="0 0 24 24" id="filter"><path stroke="currentColor" stroke-linecap="round" stroke-linejoin="round" stroke-width="2" d="M20 5.6c0-.56 0-.84-.11-1.054a1 1 0 0 0-.436-.437C19.24 4 18.96 4 18.4 4H5.6c-.56 0-.84 0-1.054.109a1 1 0 0 0-.437.437C4 4.76 4 5.04 4 5.6v.737c0 .245 0 .367.028.482a1 1 0 0 0 .12.29c.061.1.148.187.32.36l5.063 5.062c.173.173.26.26.321.36q.083.136.12.29c.028.114.028.235.028.474v4.756c0 .857 0 1.286.18 1.544a1 1 0 0 0 .674.416c.311.046.695-.145 1.461-.529l.8-.4c.322-.16.482-.24.599-.36a1 1 0 0 0 .231-.374c.055-.158.055-.338.055-.697v-4.348c0-.245 0-.367.028-.482a1 1 0 0 1 .12-.29c.06-.1.147-.186.317-.356l.004-.004 5.063-5.062c.172-.173.258-.26.32-.36q.083-.136.12-.29C20 6.706 20 6.584 20 6.345z" /></symbol><symbol fill="none" viewBox="0 0 20 20" id="instagram"><path fill="currentColor" d="M6.5 1.667h7A4.837 4.837 0 0 1 18.333 6.5v7a4.833 4.833 0 0 1-4.833 4.833h-7A4.837 4.837 0 0 1 1.667 13.5v-7A4.833 4.833 0 0 1 6.5 1.667m-.167 1.666a3 3 0 0 0-3 3v7.333c0 1.659 1.342 3 3 3h7.334a3 3 0 0 0 3-3V6.333c0-1.658-1.342-3-3-3zm8.042 1.25a1.042 1.042 0 1 1 0 2.084 1.042 1.042 0 0 1 0-2.084M10 5.833a4.167 4.167 0 1 1 0 8.334 4.167 4.167 0 0 1 0-8.334M10 7.5a2.5 2.5 0 1 0 0 5 2.5 2.5 0 0 0 0-5" /></symbol><symbol fill="none" viewBox="0 0 20 20" id="location"><path stroke="currentColor" stroke-linecap="round" stroke-linejoin="round" stroke-width="1.5" d="M4.167 8.269c0 4.043 3.537 7.387 5.102 8.669.224.183.338.276.505.323.13.037.322.037.452 0 .167-.047.28-.139.505-.323 1.565-1.282 5.102-4.625 5.102-8.669 0-1.53-.614-2.997-1.708-4.08A5.87 5.87 0 0 0 10 2.5c-1.547 0-3.031.608-4.125 1.69a5.74 5.74 0 0 0-1.708 4.079" /><path stroke="currentColor" stroke-linecap="round" stroke-linejoin="round" stroke-width="1.5" d="M8.333 7.5a1.667 1.667 0 1 0 3.334 0 1.667 1.667 0 0 0-3.334 0" /></symbol><symbol fill="none" viewBox="0 0 24 24" id="search"><path stroke="currentColor" stroke-linecap="round" stroke-linejoin="round" stroke-width="2" d="m21 21-4.343-4.343m0 0A8 8 0 1 0 5.343 5.343a8 8 0 0 0 11.314 11.314" /></symbol><symbol fill="none" viewBox="0 0 20 20" id="telegram"><path fill="currentColor" fill-rule="evenodd" d="M15.61 4.745a1.086 1.086 0 0 1 1.493 1.177l-1.642 9.96c-.16.96-1.214 1.512-2.095 1.033a42 42 0 0 1-2.816-1.66c-.493-.323-2-1.355-1.815-2.089.159-.627 2.693-2.986 4.141-4.389.568-.55.31-.868-.362-.362-1.667 1.259-4.343 3.172-5.227 3.71-.78.476-1.188.557-1.674.476-.888-.148-1.711-.377-2.383-.655-.908-.377-.864-1.625 0-1.988z" clip-rule="evenodd" /></symbol><symbol fill="none" viewBox="0 0 20 20" id="tiktok"><path fill="currentColor" d="M13.833 4.85a3.57 3.57 0 0 1-.883-2.35h-2.575v10.333a2.16 2.16 0 0 1-2.158 2.084A2.173 2.173 0 0 1 6.05 12.75a2.163 2.163 0 0 1 2.808-2.067V8.05c-2.875-.383-5.391 1.85-5.391 4.7 0 2.775 2.3 4.75 4.741 4.75a4.746 4.746 0 0 0 4.742-4.75V7.508a6.13 6.13 0 0 0 3.583 1.15V6.083s-1.566.075-2.7-1.233" /></symbol><symbol fill="none" viewBox="0 0 18 20" id="top"><path fill="currentColor" d="M5.644 20C-2.473 16.581-.613 6.325 3.615 4.103 4.461 17.436 12.07 7.693 11.563 0c10.823 7.35 5.75 17.778 1.015 19.658 1.015-15.897-6.765-6.325-6.934.342" /></symbol><symbol fill="none" viewBox="0 0 20 20" id="twitter"><path fill="currentColor" d="M18.717 5a7.1 7.1 0 0 1-2.05.575 3.58 3.58 0 0 0 1.566-1.983 7.2 7.2 0 0 1-2.266.875c-.659-.717-1.584-1.133-2.634-1.133a3.57 3.57 0 0 0-3.558 3.575c0 .283.033.558.092.816A10.16 10.16 0 0 1 2.5 3.992a3.54 3.54 0 0 0-.483 1.792c0 1.241.625 2.341 1.591 2.966a3.54 3.54 0 0 1-1.625-.416v.024a3.58 3.58 0 0 0 2.867 3.509 3.5 3.5 0 0 1-1.608.058 3.57 3.57 0 0 0 3.333 2.483 7.1 7.1 0 0 1-4.442 1.534q-.424 0-.85-.05A10.1 10.1 0 0 0 6.767 17.5c6.566 0 10.175-5.45 10.175-10.175 0-.158 0-.308-.009-.466.7-.5 1.3-1.134 1.784-1.859" /></symbol><symbol fill="none" viewBox="0 0 20 20" id="x"><path fill="currentColor" d="M14.78 2.466h2.55l-5.57 6.382 6.554 8.687h-5.131l-4.021-5.267-4.597 5.267H2.013l5.957-6.83-6.284-8.238h5.262l3.63 4.814zm-.896 13.54h1.413L6.176 3.915H4.66z" /></symbol><symbol fill="none" viewBox="0 0 20 20" id="youtube"><path fill="currentColor" d="m8.333 12.5 4.325-2.5-4.325-2.5zm9.634-6.525c.108.392.183.917.233 1.583.058.667.083 1.242.083 1.742l.05.7c0 1.825-.133 3.166-.366 4.025q-.315 1.127-1.442 1.441c-.392.109-1.108.184-2.208.234a56 56 0 0 1-2.992.083l-1.325.05c-3.492 0-5.667-.133-6.525-.367-.75-.208-1.233-.691-1.442-1.441-.108-.392-.183-.917-.233-1.584a20 20 0 0 1-.083-1.741l-.05-.7c0-1.825.133-3.167.366-4.025q.315-1.127 1.442-1.442c.392-.108 1.108-.183 2.208-.233a56 56 0 0 1 2.992-.083L10 4.167c3.492 0 5.667.133 6.525.366.75.208 1.233.692 1.442 1.442" /></symbol></defs></svg>