<svg viewBox="0 0 116 49" fill="none" xmlns="http://www.w3.org/2000/svg">
    <path d="M34.0079 22.166H39.2224C40.7357 22.166 41.3332 22.8697 41.3332 24.1892V24.981C41.3332 26.3005 40.7357 27.0042 39.2224 27.0042H35.473V28.7538C35.473 28.92 35.3863 29.0079 35.2224 29.0079H33.9694C33.8055 29.0079 33.7188 28.92 33.7188 28.7538V22.4592C33.7188 22.2638 33.8151 22.166 34.0079 22.166ZM35.473 23.8765V25.4794H38.8754C39.4055 25.4794 39.579 25.2644 39.579 24.7953V24.4336C39.579 23.9742 39.4055 23.7592 38.8754 23.7592H35.5887C35.5115 23.7592 35.473 23.7983 35.473 23.8765Z" fill="currentColor"/>
    <path d="M44.7669 22.166H45.4416C46.0199 22.166 46.3572 22.3322 46.7235 23.0261L49.7307 28.744C49.8175 28.9004 49.7886 29.0079 49.5958 29.0079H48.1307C47.9958 29.0079 47.938 28.9688 47.8801 28.8711L47.2922 27.7275H43.109L42.5307 28.8711C42.4825 28.9688 42.4151 29.0079 42.2801 29.0079H40.7765C40.5934 29.0079 40.5645 28.9004 40.6415 28.744L43.6006 23.0261C43.9572 22.3322 44.3139 22.166 44.7669 22.166ZM45.0464 23.8765L43.7837 26.3885H46.6078L45.3163 23.8765C45.2874 23.8276 45.2585 23.8081 45.2102 23.8081H45.1621C45.1138 23.8081 45.0849 23.8276 45.0464 23.8765Z" fill="currentColor"/>
    <path d="M50.6095 22.166H55.824C57.3371 22.166 57.9346 22.8697 57.9346 24.1892V24.7855C57.9346 25.8606 57.5397 26.5155 56.5758 26.7305L58.1274 28.7245C58.1951 28.8125 58.1853 29.0079 57.9831 29.0079H56.4987C56.3156 29.0079 56.2577 28.9591 56.1902 28.8711L54.7733 26.9162H52.0746V28.7538C52.0746 28.92 51.9878 29.0079 51.824 29.0079H50.5709C50.4071 29.0079 50.3203 28.92 50.3203 28.7538V22.4592C50.3203 22.2638 50.4167 22.166 50.6095 22.166ZM52.0746 23.8765V25.5185H55.477C56.0071 25.5185 56.1806 25.3035 56.1806 24.8441V24.4238C56.1806 23.9644 56.0071 23.7494 55.477 23.7494H52.1902C52.1131 23.7494 52.0746 23.7885 52.0746 23.8765Z" fill="currentColor"/>
    <path d="M58.6179 22.166H66.1648C66.3287 22.166 66.4155 22.254 66.4155 22.4201V23.5637C66.4155 23.7299 66.3287 23.8178 66.1648 23.8178H63.2636V28.7538C63.2636 28.92 63.1768 29.0079 63.0129 29.0079H61.7694C61.5961 29.0079 61.5093 28.92 61.5093 28.7538V23.8178H58.6179C58.4442 23.8178 58.3672 23.7299 58.3672 23.5637V22.4201C58.3672 22.254 58.4442 22.166 58.6179 22.166Z" fill="currentColor"/>
    <path d="M68.0144 22.166H69.0264C69.8261 22.166 69.961 22.3322 70.3083 22.8404L73.2866 27.2486C73.3249 27.2974 73.3538 27.317 73.4023 27.317H73.4794C73.5372 27.317 73.5564 27.2877 73.5564 27.2192V22.4201C73.5564 22.254 73.6334 22.166 73.8071 22.166H75.0119C75.1758 22.166 75.2626 22.254 75.2626 22.4201V27.835C75.2626 28.7636 74.9349 29.0079 74.2697 29.0079H73.2866C72.4865 29.0079 72.3516 28.8418 72.0047 28.3335L69.0068 23.9254C68.9779 23.8765 68.9396 23.8569 68.8915 23.8569H68.8141C68.766 23.8569 68.737 23.8863 68.737 23.9547V28.7538C68.737 28.92 68.66 29.0079 68.4864 29.0079H67.2815C67.1177 29.0079 67.0312 28.92 67.0312 28.7538V23.3389C67.0312 22.4104 67.3492 22.166 68.0144 22.166Z" fill="currentColor"/>
    <path d="M78.9624 22.166H83.2128C83.3864 22.166 83.4634 22.254 83.4634 22.4201V23.5149C83.4634 23.6908 83.3864 23.7787 83.2128 23.7787H78.9913C78.1623 23.7787 77.9406 23.9938 77.9406 24.8539H83.1549C83.3285 24.8539 83.4056 24.9321 83.4056 25.108V26.0073C83.4056 26.1832 83.3285 26.2614 83.1549 26.2614H77.9406C77.9406 27.1801 78.1525 27.405 78.9913 27.405H83.2128C83.3864 27.405 83.4634 27.4832 83.4634 27.6591V28.7538C83.4634 28.92 83.3864 29.0079 83.2128 29.0079H78.9624C76.9864 29.0079 76.2344 28.3042 76.2344 26.4275V24.7464C76.2344 22.8697 76.9864 22.166 78.9624 22.166Z" fill="currentColor"/>
    <path d="M84.6331 22.166H89.8475C91.3609 22.166 91.9584 22.8697 91.9584 24.1892V24.7855C91.9584 25.8606 91.563 26.5155 90.5991 26.7305L92.1512 28.7245C92.2184 28.8125 92.2091 29.0079 92.0065 29.0079H90.522C90.339 29.0079 90.2811 28.9591 90.2139 28.8711L88.7967 26.9162H86.098V28.7538C86.098 28.92 86.0112 29.0079 85.8474 29.0079H84.5944C84.4306 29.0079 84.3438 28.92 84.3438 28.7538V22.4592C84.3438 22.2638 84.4403 22.166 84.6331 22.166ZM86.098 23.8765V25.5185H89.5006C90.0305 25.5185 90.2041 25.3035 90.2041 24.8441V24.4238C90.2041 23.9644 90.0305 23.7494 89.5006 23.7494H86.2138C86.1367 23.7494 86.098 23.7885 86.098 23.8765Z" fill="currentColor"/>
    <path d="M94.4785 22.166H99.5388C99.7124 22.166 99.7895 22.254 99.7895 22.4201V23.5149C99.7895 23.6908 99.7124 23.7787 99.5388 23.7787H94.8254C94.5653 23.7787 94.4496 23.9254 94.4496 24.1892V24.4434C94.4496 24.7171 94.5653 24.8539 94.816 24.8539H98.2859C99.423 24.8539 100.04 25.4892 100.04 26.5937V27.3757C100.04 28.353 99.4618 29.0079 98.2569 29.0079H92.9558C92.7919 29.0079 92.7051 28.92 92.7051 28.7538V27.6591C92.7051 27.4832 92.7919 27.405 92.9558 27.405H97.91C98.1799 27.405 98.2956 27.2486 98.2956 26.9847V26.6719C98.2956 26.3982 98.1799 26.2614 97.9194 26.2614H94.4594C93.3124 26.2614 92.6953 25.626 92.6953 24.5216V23.8081C92.6953 22.8209 93.2835 22.166 94.4785 22.166Z" fill="currentColor"/>
    <path d="M29.2527 28.9535C29.15 28.9535 29.0649 28.921 28.9976 28.8525C28.9303 28.7839 28.8984 28.7009 28.8984 28.5926V26.983C28.8984 26.8783 28.9303 26.7917 28.9976 26.7231C29.0649 26.6546 29.1464 26.6221 29.2527 26.6221H30.8327C30.9354 26.6221 31.0204 26.6546 31.0878 26.7231C31.1551 26.7917 31.1869 26.8747 31.1869 26.983V28.5926C31.1869 28.6973 31.1551 28.7839 31.0878 28.8525C31.0204 28.921 30.9354 28.9535 30.8327 28.9535H29.2527Z" fill="currentColor"/>
    <path d="M31.0964 17.4028C31.0035 17.2581 30.8477 17.1741 30.6786 17.1741H26.5498C26.3508 17.1741 26.1684 17.2951 26.0888 17.4801L21.509 28.2449C21.4426 28.4029 21.4592 28.5811 21.5521 28.7258C21.645 28.8704 21.8008 28.9545 21.9699 28.9545H26.0987C26.2977 28.9545 26.4801 28.8334 26.5597 28.6484L31.1395 17.8837C31.2058 17.729 31.1892 17.5474 31.0964 17.4028Z" fill="#B0B0BA"/>
    <path d="M25.6416 28.6658L21.8378 20.4871L21.6355 20.0533C21.5526 19.8751 21.3768 19.7607 21.1812 19.7607H18.0041H16.7837C16.6113 19.7607 16.4521 19.8482 16.3592 19.9961C16.2664 20.1441 16.2564 20.3291 16.3294 20.4871L20.1332 28.6624C20.2161 28.8407 20.3919 28.955 20.5875 28.955H21.8112H24.9882H26.0992C25.9002 28.955 25.7245 28.844 25.6416 28.6658Z" fill="currentColor"/>
</svg>
