<svg viewBox="0 0 116 49" fill="none" xmlns="http://www.w3.org/2000/svg">
    <path fill-rule="evenodd" clip-rule="evenodd" d="M24.9649 34.3024L15.4222 17.8338C15.4222 17.8338 15.1246 17.3008 15.5466 17.3008H26.4805C26.4805 17.3008 26.9109 17.3396 26.6165 17.8327C26.3221 18.3259 23.0358 24.054 23.0215 24.079C23.0215 24.079 23.0162 24.0928 23.0002 24.0934C22.9843 24.0934 22.979 24.0796 22.979 24.0796L21.4947 21.3199C21.4947 21.3199 21.1982 20.8507 21.4724 20.8507H22.8695L23.7564 19.5827C23.7564 19.5827 24.054 19.0194 23.301 19.0194H18.3578L25.8455 32.4026L25.8672 33.06L24.9649 34.3024Z" fill="currentColor"/>
    <path fill-rule="evenodd" clip-rule="evenodd" d="M27.0051 30.8222L27.8266 29.5776V28.9915L26.0692 26.1112L26.0618 25.5633L28.7061 21.313C28.7061 21.313 28.9336 20.8438 28.5371 20.8438H26.7941L23.9531 25.7626L27.0051 30.8222Z" fill="currentColor"/>
    <path fill-rule="evenodd" clip-rule="evenodd" d="M28.9483 27.5147L28.0922 26.1218L28.1496 25.4012L31.5215 19.5785C31.5215 19.5785 31.819 19.0152 31.2781 19.0152H28.1703C28.1703 19.0152 27.7388 19.0401 28.0922 18.4348L28.4451 17.829L28.7352 17.2976H34.3204C34.3204 17.2976 35.0054 17.211 34.5973 17.829C34.1892 18.4471 28.9483 27.5147 28.9483 27.5147Z" fill="currentColor"/>
    <path d="M38.9766 25.8478C39.1923 25.8478 39.3802 25.8216 39.5405 25.7691C39.7008 25.7137 39.8335 25.6365 39.9384 25.5374C40.0462 25.4354 40.1264 25.313 40.1788 25.1702C40.2313 25.0245 40.2575 24.8627 40.2575 24.6849C40.2575 24.5159 40.2313 24.3629 40.1788 24.2259C40.1264 24.0889 40.0477 23.9723 39.9427 23.8762C39.8378 23.78 39.7052 23.7071 39.5449 23.6576C39.3846 23.6051 39.1952 23.5789 38.9766 23.5789H38.0979V25.8478H38.9766ZM38.9766 22.6696C39.3992 22.6696 39.765 22.7191 40.0739 22.8182C40.3828 22.9173 40.6379 23.0557 40.839 23.2335C41.0401 23.4113 41.1887 23.6241 41.2849 23.8718C41.384 24.1195 41.4335 24.3906 41.4335 24.6849C41.4335 24.9909 41.3825 25.2722 41.2805 25.5287C41.1785 25.7822 41.0255 26.0008 40.8215 26.1844C40.6175 26.368 40.361 26.5109 40.052 26.6129C39.746 26.7149 39.3875 26.7659 38.9766 26.7659H38.0979V28.9911H36.9219V22.6696H38.9766Z" fill="currentColor"/>
    <path d="M44.2458 25.6773C44.4673 25.6773 44.6596 25.6496 44.8228 25.5942C44.989 25.5389 45.1245 25.4631 45.2294 25.3669C45.3372 25.2678 45.4174 25.1512 45.4698 25.0172C45.5223 24.8831 45.5485 24.7359 45.5485 24.5756C45.5485 24.255 45.4422 24.0088 45.2294 23.8368C45.0196 23.6649 44.6975 23.5789 44.2633 23.5789H43.5113V25.6773H44.2458ZM47.271 28.9911H46.2087C46.0076 28.9911 45.8618 28.9124 45.7715 28.755L44.4425 26.7309C44.3929 26.6551 44.3376 26.6012 44.2764 26.5691C44.2181 26.5371 44.1306 26.5211 44.0141 26.5211H43.5113V28.9911H42.3353V22.6696H44.2633C44.6917 22.6696 45.0589 22.7147 45.3649 22.8051C45.6739 22.8925 45.926 23.0164 46.1212 23.1767C46.3194 23.337 46.4651 23.5293 46.5584 23.7537C46.6517 23.9752 46.6983 24.2201 46.6983 24.4882C46.6983 24.701 46.6662 24.9021 46.6021 25.0915C46.5409 25.2809 46.4506 25.4529 46.3311 25.6074C46.2145 25.7618 46.0688 25.8974 45.8939 26.0139C45.722 26.1305 45.5252 26.2223 45.3037 26.2894C45.3795 26.3331 45.4494 26.3855 45.5136 26.4467C45.5777 26.505 45.636 26.575 45.6884 26.6566L47.271 28.9911Z" fill="currentColor"/>
    <path d="M53.8969 25.8303C53.8969 26.2937 53.8197 26.7236 53.6652 27.12C53.5137 27.5134 53.298 27.8544 53.0182 28.143C52.7384 28.4315 52.4018 28.6574 52.0083 28.8206C51.6149 28.9809 51.1777 29.061 50.6968 29.061C50.2188 29.061 49.7831 28.9809 49.3897 28.8206C48.9962 28.6574 48.6581 28.4315 48.3754 28.143C48.0956 27.8544 47.8785 27.5134 47.724 27.12C47.5696 26.7236 47.4923 26.2937 47.4923 25.8303C47.4923 25.3669 47.5696 24.9385 47.724 24.545C47.8785 24.1487 48.0956 23.8062 48.3754 23.5177C48.6581 23.2291 48.9962 23.0047 49.3897 22.8444C49.7831 22.6812 50.2188 22.5996 50.6968 22.5996C51.0174 22.5996 51.3191 22.6375 51.6018 22.7133C51.8845 22.7861 52.1439 22.8911 52.3799 23.028C52.616 23.1621 52.8273 23.3268 53.0138 23.522C53.2033 23.7144 53.3636 23.9301 53.4947 24.1691C53.6259 24.4081 53.725 24.6674 53.792 24.9472C53.8619 25.227 53.8969 25.5214 53.8969 25.8303ZM52.6947 25.8303C52.6947 25.4835 52.6481 25.1731 52.5548 24.8991C52.4615 24.6223 52.3289 24.3876 52.157 24.1953C51.985 24.0029 51.7752 23.8558 51.5274 23.7537C51.2826 23.6517 51.0057 23.6007 50.6968 23.6007C50.3879 23.6007 50.1095 23.6517 49.8618 23.7537C49.617 23.8558 49.4071 24.0029 49.2323 24.1953C49.0603 24.3876 48.9277 24.6223 48.8344 24.8991C48.7412 25.1731 48.6946 25.4835 48.6946 25.8303C48.6946 26.1771 48.7412 26.489 48.8344 26.7659C48.9277 27.0398 49.0603 27.273 49.2323 27.4654C49.4071 27.6548 49.617 27.8005 49.8618 27.9025C50.1095 28.0045 50.3879 28.0555 50.6968 28.0555C51.0057 28.0555 51.2826 28.0045 51.5274 27.9025C51.7752 27.8005 51.985 27.6548 52.157 27.4654C52.3289 27.273 52.4615 27.0398 52.5548 26.7659C52.6481 26.489 52.6947 26.1771 52.6947 25.8303Z" fill="currentColor"/>
    <path d="M59.8359 28.9911H58.6643C58.5827 28.9911 58.5171 28.9707 58.4676 28.9299C58.4209 28.8891 58.3831 28.8425 58.3539 28.79L56.8894 26.3637C56.8661 26.4365 56.8384 26.4992 56.8063 26.5517L55.403 28.79C55.368 28.8395 55.3272 28.8862 55.2806 28.9299C55.2369 28.9707 55.1786 28.9911 55.1057 28.9911H54.0084L56.1068 25.7385L54.0915 22.6696H55.2631C55.3447 22.6696 55.403 22.6812 55.438 22.7045C55.4758 22.7249 55.5108 22.7599 55.5429 22.8095L56.9812 25.1265C57.0103 25.0536 57.0453 24.9807 57.0861 24.9079L58.4064 22.8313C58.4384 22.7759 58.4734 22.7351 58.5113 22.7089C58.5492 22.6827 58.5973 22.6696 58.6556 22.6696H59.7791L57.7462 25.6904L59.8359 28.9911Z" fill="currentColor"/>
    <path d="M63.28 26.5429V28.9911H62.1083V26.5429L59.8044 22.6696H60.8405C60.9425 22.6696 61.0227 22.6943 61.081 22.7439C61.1422 22.7934 61.1932 22.8561 61.234 22.9319L62.3881 25.0434C62.4552 25.1687 62.5135 25.2868 62.563 25.3975C62.6155 25.5083 62.6621 25.619 62.7029 25.7298C62.7408 25.619 62.7845 25.5083 62.834 25.3975C62.8836 25.2868 62.9404 25.1687 63.0045 25.0434L64.1543 22.9319C64.1864 22.8677 64.2345 22.808 64.2986 22.7526C64.3627 22.6972 64.4443 22.6696 64.5434 22.6696H65.5839L63.28 26.5429Z" fill="currentColor"/>
    <path d="M69.3704 23.8193C69.3354 23.8805 69.2976 23.9257 69.2567 23.9548C69.2189 23.9811 69.1708 23.9942 69.1125 23.9942C69.0513 23.9942 68.9842 23.9723 68.9114 23.9286C68.8414 23.882 68.7569 23.831 68.6578 23.7756C68.5587 23.7202 68.4421 23.6707 68.3081 23.627C68.1769 23.5803 68.021 23.557 67.8403 23.557C67.6771 23.557 67.5343 23.5774 67.4119 23.6182C67.2895 23.6561 67.186 23.71 67.1015 23.78C67.0199 23.8499 66.9587 23.9344 66.9179 24.0335C66.8771 24.1297 66.8567 24.2361 66.8567 24.3527C66.8567 24.5013 66.8975 24.6252 66.9791 24.7243C67.0636 24.8234 67.1743 24.9079 67.3113 24.9778C67.4483 25.0478 67.6042 25.1104 67.7791 25.1658C67.954 25.2212 68.1332 25.2809 68.3168 25.3451C68.5004 25.4063 68.6797 25.4791 68.8545 25.5636C69.0294 25.6453 69.1853 25.7502 69.3223 25.8784C69.4593 26.0037 69.5686 26.1582 69.6502 26.3418C69.7347 26.5254 69.777 26.7484 69.777 27.0107C69.777 27.2963 69.7274 27.5644 69.6283 27.8151C69.5322 28.0628 69.3894 28.28 69.1999 28.4665C69.0134 28.6501 68.7846 28.7958 68.5135 28.9037C68.2425 29.0086 67.9321 29.061 67.5824 29.061C67.3813 29.061 67.1831 29.0406 66.9878 28.9998C66.7925 28.9619 66.6046 28.9066 66.4239 28.8337C66.2461 28.7608 66.0785 28.6734 65.9211 28.5714C65.7637 28.4694 65.6238 28.3557 65.5014 28.2304L65.8468 27.6665C65.8759 27.6256 65.9138 27.5921 65.9605 27.5659C66.0071 27.5368 66.0566 27.5222 66.1091 27.5222C66.182 27.5222 66.2606 27.5528 66.3452 27.614C66.4297 27.6723 66.5302 27.7379 66.6468 27.8107C66.7634 27.8836 66.8989 27.9506 67.0534 28.0118C67.2108 28.0701 67.3988 28.0993 67.6173 28.0993C67.9525 28.0993 68.2119 28.0206 68.3955 27.8632C68.5791 27.7029 68.6709 27.4741 68.6709 27.1768C68.6709 27.0107 68.6287 26.8752 68.5442 26.7702C68.4625 26.6653 68.3533 26.5779 68.2163 26.5079C68.0793 26.4351 67.9234 26.3739 67.7485 26.3243C67.5736 26.2748 67.3958 26.2209 67.2151 26.1626C67.0344 26.1043 66.8567 26.0343 66.6818 25.9527C66.5069 25.8711 66.351 25.7647 66.214 25.6336C66.077 25.5024 65.9663 25.3392 65.8818 25.144C65.8002 24.9458 65.7594 24.7024 65.7594 24.4139C65.7594 24.1836 65.8045 23.9592 65.8949 23.7406C65.9881 23.522 66.1222 23.3282 66.2971 23.1592C66.4719 22.9902 66.6876 22.8546 66.9441 22.7526C67.2006 22.6506 67.4949 22.5996 67.8272 22.5996C68.2002 22.5996 68.5442 22.6579 68.8589 22.7745C69.1737 22.8911 69.4418 23.0543 69.6633 23.2641L69.3704 23.8193Z" fill="currentColor"/>
    <path d="M71.9832 23.6051V25.3582H74.1953V26.2631H71.9832V28.0512H74.7899V28.9911H70.8028V22.6696H74.7899V23.6051H71.9832Z" fill="currentColor"/>
    <path d="M79.5349 28.0206V28.9911H75.832V22.6696H77.008V28.0206H79.5349Z" fill="currentColor"/>
    <path d="M84.0774 28.0206V28.9911H80.3745V22.6696H81.5505V28.0206H84.0774Z" fill="currentColor"/>
    <path d="M86.0974 23.6051V25.3582H88.3095V26.2631H86.0974V28.0512H88.9041V28.9911H84.9171V22.6696H88.9041V23.6051H86.0974Z" fill="currentColor"/>
    <path d="M91.8567 25.6773C92.0782 25.6773 92.2706 25.6496 92.4338 25.5942C92.5999 25.5389 92.7354 25.4631 92.8404 25.3669C92.9482 25.2678 93.0283 25.1512 93.0808 25.0172C93.1333 24.8831 93.1595 24.7359 93.1595 24.5756C93.1595 24.255 93.0531 24.0088 92.8404 23.8368C92.6305 23.6649 92.3085 23.5789 91.8742 23.5789H91.1223V25.6773H91.8567ZM94.882 28.9911H93.8196C93.6185 28.9911 93.4728 28.9124 93.3824 28.755L92.0534 26.7309C92.0039 26.6551 91.9485 26.6012 91.8873 26.5691C91.829 26.5371 91.7416 26.5211 91.625 26.5211H91.1223V28.9911H89.9463V22.6696H91.8742C92.3026 22.6696 92.6699 22.7147 92.9759 22.8051C93.2848 22.8925 93.5369 23.0164 93.7322 23.1767C93.9304 23.337 94.0761 23.5293 94.1694 23.7537C94.2626 23.9752 94.3093 24.2201 94.3093 24.4882C94.3093 24.701 94.2772 24.9021 94.2131 25.0915C94.1519 25.2809 94.0615 25.4529 93.942 25.6074C93.8255 25.7618 93.6797 25.8974 93.5049 26.0139C93.3329 26.1305 93.1362 26.2223 92.9147 26.2894C92.9904 26.3331 93.0604 26.3855 93.1245 26.4467C93.1886 26.505 93.2469 26.575 93.2994 26.6566L94.882 28.9911Z" fill="currentColor"/>
</svg>
