<svg viewBox="0 0 116 49" fill="none" xmlns="http://www.w3.org/2000/svg">
    <path d="M54.1157 27.0021H52.7843V29.8948H50.7109V21.0095H54.6289C55.071 21.0045 55.508 21.0802 55.9247 21.2266C56.3008 21.3629 56.6463 21.5699 56.9411 21.8324C57.2307 22.0949 57.4594 22.4231 57.6119 22.7815C57.7745 23.1703 57.8558 23.5842 57.8507 24.0033C57.8507 24.3011 57.8151 24.599 57.7338 24.8918C57.6576 25.1594 57.5458 25.4168 57.3984 25.6541C57.2561 25.8813 57.0783 26.0883 56.8699 26.2599C56.6616 26.4366 56.4278 26.583 56.1788 26.6991L58.0692 29.8948H55.6757L54.1157 27.0021ZM54.5374 25.225C54.7001 25.225 54.8627 25.1947 55.0151 25.1341C55.1574 25.0786 55.2946 24.9928 55.4064 24.8918C55.5182 24.7858 55.6097 24.6545 55.6707 24.5132C55.7977 24.1951 55.7977 23.8417 55.6707 23.5237C55.6097 23.3772 55.5182 23.246 55.4064 23.1349C55.2946 23.0289 55.1625 22.9431 55.0151 22.8825C54.8627 22.8219 54.7001 22.7916 54.5374 22.7916H52.7893V25.23H54.5374V25.225Z" fill="currentColor"/>
    <path d="M75.1723 26.4845C75.0402 26.0302 74.7556 25.6364 74.3694 25.3587C74.1712 25.2174 73.9578 25.0962 73.7291 24.9952C73.4801 24.8842 73.226 24.7933 72.9618 24.7176C72.6924 24.6368 72.4028 24.561 72.0979 24.4904C71.8387 24.4449 71.5948 24.3944 71.3712 24.3389C71.173 24.2935 70.9799 24.2278 70.797 24.142C70.6547 24.0764 70.5276 23.9855 70.4158 23.8745C70.3295 23.7785 70.2786 23.6473 70.2837 23.516C70.2837 23.415 70.304 23.3141 70.3396 23.2232C70.3803 23.1222 70.4514 23.0314 70.5378 22.9657C70.6547 22.8799 70.7919 22.8193 70.9342 22.784C71.1527 22.7335 71.3712 22.7133 71.5948 22.7184C71.7981 22.7133 72.0064 22.7385 72.1995 22.7991C72.3418 22.8446 72.479 22.9152 72.5959 23.0061C72.6924 23.0869 72.7687 23.1879 72.8144 23.304C72.8601 23.415 72.8805 23.5362 72.8805 23.6574H74.9792C74.9843 23.2686 74.9131 22.885 74.7658 22.5215C74.6286 22.1883 74.4151 21.8904 74.1458 21.6531C73.8511 21.4007 73.5106 21.2139 73.1396 21.0978C72.6975 20.9615 72.2402 20.8959 71.7777 20.9009C71.234 20.8959 70.6953 20.9615 70.1719 21.0978C69.7654 21.2038 69.3792 21.3957 69.054 21.6582C68.7643 21.8955 68.5407 22.1984 68.3984 22.5467C68.251 22.9203 68.1799 23.3191 68.185 23.723C68.1799 23.9704 68.2206 24.2127 68.312 24.4399C68.4035 24.6671 68.5407 24.8741 68.7186 25.0457C68.8812 25.2022 69.0692 25.3335 69.2674 25.4395C69.4656 25.5455 69.6739 25.6364 69.8873 25.7171C70.0957 25.7929 70.304 25.8585 70.5175 25.914L71.0663 26.0554C71.4068 26.1513 71.6964 26.2321 71.9505 26.2927C72.1741 26.3482 72.3977 26.4239 72.6111 26.5199C72.7737 26.5855 72.916 26.6915 73.0278 26.8228C73.1244 26.9641 73.1752 27.1307 73.165 27.2973C73.165 27.4286 73.1396 27.5548 73.0786 27.6709C73.0177 27.787 72.9262 27.8829 72.8144 27.9486C72.667 28.0344 72.4993 28.095 72.3316 28.1303C72.0877 28.1758 71.8438 28.201 71.5999 28.1959C71.173 28.2212 70.7462 28.1152 70.3854 27.888C70.2481 27.7971 70.1414 27.676 70.0652 27.5346C69.989 27.3932 69.9534 27.2317 69.9534 27.0701H67.875C67.875 27.4286 67.9411 27.787 68.0732 28.1202C68.2155 28.4787 68.434 28.7967 68.7186 29.0592C69.0489 29.3571 69.4351 29.5893 69.8569 29.7307C70.4006 29.9175 70.9748 30.0033 71.5491 29.9882C72.0471 29.9932 72.5451 29.9326 73.0278 29.8165C73.4496 29.7155 73.8511 29.5439 74.2119 29.3016C74.5371 29.0845 74.8064 28.7967 74.9995 28.4534C75.1875 28.095 75.279 27.6962 75.2689 27.2923C75.279 27.0247 75.2434 26.7521 75.1723 26.4845Z" fill="currentColor"/>
    <path d="M66.6537 21.0093V26.2597C66.6537 26.8251 66.5216 27.3855 66.2675 27.8903C66.0134 28.3952 65.6374 28.8344 65.18 29.1727C64.9767 29.3241 64.7532 29.4554 64.5194 29.5614C64.0417 29.7785 63.5234 29.8895 62.9949 29.8895C62.4664 29.8895 61.9481 29.7785 61.4704 29.5614C61.2366 29.4554 61.013 29.3241 60.8098 29.1727C60.3524 28.8344 59.9814 28.3952 59.7223 27.8903C59.4682 27.3855 59.331 26.8251 59.3361 26.2597V21.0093H61.4704V26.5626C61.4704 26.9665 61.633 27.3502 61.9176 27.6329C62.2021 27.9156 62.5934 28.0771 62.9949 28.0771C63.4014 28.0771 63.7876 27.9156 64.0722 27.6329C64.3568 27.3502 64.5194 26.9614 64.5194 26.5626V21.0093H66.6537Z" fill="currentColor"/>
    <path d="M49.2317 21.0093H46.64H44.5057H41.9141V22.8267H44.5057V29.8946H46.64V22.8267H49.2317V21.0093Z" fill="currentColor"/>
    <path d="M83.302 21.0093H80.7103H78.576H75.9844V22.8267H78.576V29.8946H80.7103V22.8267H83.302V21.0093Z" fill="currentColor"/>
    <path d="M91.0591 22.8267V21.0093H86.8921H84.7578V22.8267V24.5432V26.3607V28.0771V29.8946H86.8921H91.0591V28.0771H86.8921V26.3607H90.4493V24.5432H86.8921V22.8267H91.0591Z" fill="currentColor"/>
    <path d="M98.8325 22.8267V21.0093H94.6656H92.5312V22.8267V24.5432V26.3607V28.0771V29.8946H94.6656H98.8325V28.0771H94.6656V26.3607H98.2227V24.5432H94.6656V22.8267H98.8325Z" fill="currentColor"/>
    <path d="M31.3457 15.3589C33.6223 15.3589 34.7609 15.3591 35.6299 15.7983C36.392 16.187 37.0169 16.8028 37.4082 17.5649C37.8503 18.4282 37.8506 19.5592 37.8506 21.8208V29.0903C37.8506 31.3518 37.8502 32.4829 37.4082 33.3462C37.0169 34.1035 36.3972 34.725 35.6299 35.1138C34.7609 35.553 33.6223 35.5532 31.3457 35.5532H24.0283C21.7517 35.5532 20.6131 35.553 19.7441 35.1138C18.982 34.725 18.3571 34.1085 17.9658 33.3462C17.5239 32.4829 17.5234 31.3518 17.5234 29.0903V21.8208C17.5234 19.5592 17.5237 18.4282 17.9658 17.5649C18.3571 16.8078 18.977 16.1871 19.7441 15.7983C20.6131 15.3591 21.7517 15.3589 24.0283 15.3589H31.3457ZM26.3486 31.8081C26.3487 31.9039 26.379 31.9998 26.4297 32.0854C26.4855 32.1712 26.562 32.2365 26.6533 32.2769C26.7448 32.3172 26.8417 32.333 26.9434 32.3179C27.0397 32.3027 27.1309 32.2622 27.207 32.1968L28.9297 30.6919C28.9856 30.6465 29.032 30.5858 29.0625 30.5151C29.0929 30.4496 29.1084 30.3738 29.1084 30.3032L29.1025 28.0767L26.3486 26.2339V31.8081ZM22.6523 23.394C22.6828 23.4394 22.724 23.4798 22.7646 23.5151L22.8105 23.5454L29.0859 27.731V24.5854C29.0859 24.4998 29.0611 24.4189 29.0205 24.3433C28.9799 24.2676 28.9187 24.207 28.8477 24.1616L27.5869 23.354H22.7852C22.7293 23.354 22.6731 23.3488 22.6172 23.3286C22.6273 23.3487 22.6373 23.3739 22.6523 23.394ZM24.6953 20.3247C24.614 20.3247 24.5321 20.345 24.4609 20.3804C24.3899 20.4157 24.324 20.4711 24.2783 20.5366L24.0293 20.8901L22.6621 22.8032C22.6316 22.8386 22.6166 22.8847 22.6064 22.9302C22.6065 22.95 22.6112 22.9651 22.6162 22.9849C22.6517 23.0504 22.7533 23.0561 22.7891 23.0562H30.7881C30.8642 23.0561 30.9457 23.036 31.0117 22.9956C31.0828 22.9603 31.1389 22.9048 31.1846 22.8442C31.1846 22.8442 31.2354 22.778 31.2354 22.7729L33.0293 20.3149H24.6953V20.3247ZM31.7334 18.5903C31.6624 18.5903 31.5913 18.6004 31.5254 18.6255C31.4593 18.6507 31.3975 18.6914 31.3467 18.7368L29.8984 20.0396H32.9424C32.983 20.0345 33.0343 20.0392 33.0801 20.0493C33.0801 19.9838 33.0647 19.9183 33.0293 19.8628L32.0996 18.7671C32.059 18.7166 32.0024 18.6712 31.9414 18.646C31.8754 18.6158 31.8045 18.5954 31.7334 18.5903Z" fill="currentColor"/>
</svg>
