<svg viewBox="0 0 116 49" fill="none" xmlns="http://www.w3.org/2000/svg">
    <path d="M24.5716 21.2876V22.91C25.4648 22.91 25.9742 23.4553 25.9742 24.2237C25.9742 25.0057 25.4614 25.5682 24.5716 25.5682H22.4525H20.7578V29.1251C20.7578 29.2589 20.8291 29.3309 20.9616 29.3309H22.2487C22.3811 29.3309 22.4525 29.2555 22.4525 29.1251V27.1906H24.5716C26.341 27.1906 27.6688 25.9353 27.6688 24.2237C27.6723 22.5738 26.341 21.2876 24.5716 21.2876Z" fill="currentColor"/>
    <path d="M30.5938 21.4934C30.5938 21.3596 30.6684 21.2876 30.7975 21.2876H32.0846C32.2171 21.2876 32.2884 21.3631 32.2884 21.4934V25.774C32.2884 26.9711 32.9473 27.8251 34.1596 27.8251C35.3449 27.8251 36.0445 27.0122 36.0445 25.774V21.4934C36.0445 21.3596 36.1192 21.2876 36.2482 21.2876H37.5353C37.6678 21.2876 37.7391 21.3631 37.7391 21.4934V25.7877C37.7391 27.8697 36.3671 29.4476 34.1596 29.4476C31.9692 29.4476 30.5938 27.8697 30.5938 25.7877V21.4934Z" fill="currentColor"/>
    <path d="M47.4879 22.3925C47.5898 22.468 47.6034 22.5537 47.532 22.6566L46.8019 23.5724C46.7136 23.6753 46.6117 23.689 46.4962 23.5861C45.8374 23.0545 44.9918 22.7595 43.9831 22.7595C42.9881 22.7595 42.4481 23.0408 42.4481 23.4969C42.4481 23.9703 42.8862 24.207 44.2175 24.3373C46.2619 24.5294 47.7392 25.2222 47.7392 26.9064C47.7392 28.515 46.2483 29.4446 44.248 29.4446C42.7877 29.4446 41.6466 29.0913 40.5938 28.2063C40.4919 28.1309 40.4919 28.028 40.5802 27.9114L41.2663 26.9818C41.3546 26.8652 41.4564 26.8481 41.5583 26.9372C42.3632 27.5718 43.1205 27.8531 44.2752 27.8531C45.5012 27.8531 46.0581 27.4826 46.0581 26.9372C46.0581 26.361 45.5012 26.1106 44.0273 25.9768C42.0677 25.8156 40.767 25.2257 40.767 23.5553C40.767 22.0941 42.156 21.1646 44.068 21.1646C45.3551 21.168 46.554 21.6105 47.4879 22.3925Z" fill="currentColor"/>
    <path d="M52.155 21.2876C52.2874 21.2876 52.3587 21.3631 52.3587 21.4934V24.3403H55.9824V21.4934C55.9824 21.3596 56.0572 21.2876 56.1862 21.2876H57.4731C57.6058 21.2876 57.6769 21.3631 57.6769 21.4934V29.1251C57.6769 29.2589 57.6058 29.3309 57.4731 29.3309H56.1862C56.0535 29.3309 55.9824 29.2555 55.9824 29.1251V25.9661H52.3587V29.1251C52.3587 29.2589 52.284 29.3309 52.155 29.3309H50.8678C50.7354 29.3309 50.6641 29.2555 50.6641 29.1251V21.4968C50.6641 21.3631 50.7388 21.291 50.8678 21.291H52.155V21.2876Z" fill="currentColor"/>
    <path d="M61.8443 29.3306H60.8626C60.7302 29.3306 60.625 29.2243 60.625 29.0905V28.0992C60.625 27.9655 60.7302 27.8591 60.8626 27.8591H61.8443C61.9767 27.8591 62.0819 27.9655 62.0819 28.0992V29.0905C62.0819 29.2209 61.9734 29.3306 61.8443 29.3306Z" fill="currentColor"/>
    <path d="M60.625 19.3237L62.0852 18.4491V15.7737H63.9804V17.2932L69.9167 13.8975L79.1878 19.3237L96.0733 19.7868L79.1369 20.1229L69.9167 15.7222L62.7713 19.0665L60.625 20.1229" fill="currentColor"/>
    <path d="M65.7724 19.3133V22.901C66.2477 22.4208 66.9576 22.1841 67.9052 22.1841H68.6148C70.038 22.1841 70.7476 22.901 70.7476 24.3382V29.3631H70.038V24.3382C70.038 23.3812 69.5624 22.901 68.6148 22.901H67.9052C66.9576 22.901 66.2477 23.1411 65.7724 23.6179V29.3597H65.0625V19.3098H65.7724V19.3133Z" fill="currentColor"/>
    <path d="M77.1262 27.211C77.1262 28.6482 76.4163 29.365 74.9935 29.365H73.5703C72.1474 29.365 71.4375 28.6482 71.4375 27.211V24.3401C71.4375 22.9029 72.1474 22.186 73.5703 22.186H74.9935C76.4163 22.186 77.1262 22.9029 77.1262 24.3401V27.211ZM72.1507 27.211C72.1507 28.168 72.6263 28.6482 73.5739 28.6482H74.9968C75.9443 28.6482 76.4196 28.168 76.4196 27.211V24.3401C76.4196 23.3831 75.9443 22.9029 74.9968 22.9029H73.5739C72.6263 22.9029 72.1507 23.3831 72.1507 24.3401V27.211Z" fill="currentColor"/>
    <path d="M83.0174 29.365L82.8033 28.6482C82.3313 29.1284 81.6181 29.365 80.6705 29.365H79.9609C78.5377 29.365 77.8281 28.6482 77.8281 27.211V22.186H78.5377V27.211C78.5377 28.168 79.0133 28.6482 79.9609 28.6482H80.6705C81.6181 28.6482 82.328 28.4081 82.8033 27.9313V22.186H83.5132V29.365H83.0174Z" fill="currentColor"/>
    <path d="M84.2109 29.365V28.6482H87.4101C88.3577 28.6482 88.8329 28.264 88.8329 27.4991V27.211C88.8329 26.4461 88.3577 26.0619 87.4101 26.0619H86.3437C84.9209 26.0619 84.2109 25.4891 84.2109 24.3401V24.052C84.2109 22.8069 84.9209 22.186 86.3437 22.186H89.5429V22.9029H86.3437C85.3961 22.9029 84.9209 23.2871 84.9209 24.052V24.3401C84.9209 25.0089 85.3961 25.3451 86.3437 25.3451H87.4101C88.8329 25.3451 89.5429 25.9659 89.5429 27.211V27.4991C89.5429 28.7442 88.8329 29.365 87.4101 29.365H84.2109Z" fill="currentColor"/>
    <path d="M90.9443 26.134V27.211C90.9443 28.168 91.4196 28.6482 92.3672 28.6482H95.5663V29.365H92.3672C90.9443 29.365 90.2344 28.6482 90.2344 27.211V24.3401C90.2344 22.9029 90.9443 22.186 92.3672 22.186H93.7867C95.2099 22.186 95.9195 22.9029 95.9195 24.3401V26.134H90.9443ZM90.9443 25.4171H95.2099V24.3401C95.2099 23.3831 94.7376 22.9029 93.7867 22.9029H92.3638C91.4163 22.9029 90.9407 23.3831 90.9407 24.3401V25.4171H90.9443Z" fill="currentColor"/>
    <path d="M21.2472 36.2267L21.023 36.9127H20.7344L21.4679 34.7278H21.8041L22.5411 36.9127H22.2422L22.0113 36.2267H21.2472ZM21.9536 36.0037L21.743 35.376C21.6955 35.232 21.6615 35.1051 21.6309 34.9782H21.6242C21.5936 35.1085 21.5562 35.2423 21.5155 35.3726L21.3049 36.0037H21.9536Z" fill="currentColor"/>
    <path d="M25.2266 34.7579C25.3964 34.7305 25.6001 34.7134 25.8209 34.7134C26.2216 34.7134 26.5069 34.806 26.6971 34.9843C26.8907 35.1627 27.0027 35.4165 27.0027 35.7698C27.0027 36.1265 26.8941 36.4181 26.6903 36.617C26.4865 36.8194 26.1537 36.9326 25.736 36.9326C25.5356 36.9326 25.3692 36.9223 25.23 36.9051V34.7579H25.2266ZM25.505 36.6891C25.5764 36.7028 25.6782 36.7062 25.7869 36.7062C26.3846 36.7062 26.7073 36.3701 26.7073 35.7801C26.7107 35.2656 26.422 34.9363 25.8311 34.9363C25.6884 34.9363 25.5764 34.95 25.505 34.9637V36.6891Z" fill="currentColor"/>
    <path d="M30.1908 36.9127L29.4844 34.7278H29.7866L30.1229 35.8048C30.2145 36.0998 30.296 36.3639 30.3538 36.6212H30.3606C30.4217 36.3673 30.51 36.0929 30.6085 35.8083L30.9753 34.7278H31.2741L30.4998 36.9127H30.1908Z" fill="currentColor"/>
    <path d="M34.9845 35.8871H34.1457V36.676H35.083V36.9127H33.8672V34.7278H35.0354V34.9644H34.1457V35.6539H34.9845V35.8871Z" fill="currentColor"/>
    <path d="M37.8047 34.7579C37.9473 34.7305 38.1477 34.7134 38.3413 34.7134C38.6401 34.7134 38.8303 34.7682 38.9661 34.8917C39.0748 34.9878 39.136 35.1387 39.136 35.3068C39.136 35.5949 38.9559 35.787 38.7284 35.8624V35.8727C38.8948 35.931 38.9933 36.0854 39.0476 36.3117C39.119 36.617 39.1699 36.8262 39.2141 36.912H38.9254C38.8914 36.8503 38.8405 36.6616 38.7827 36.3906C38.7182 36.0888 38.6028 35.9756 38.348 35.9653H38.0832V36.912H37.8047V34.7579ZM38.0832 35.7527H38.3684C38.6673 35.7527 38.8575 35.588 38.8575 35.3376C38.8575 35.0564 38.6537 34.9329 38.3616 34.9295C38.2258 34.9295 38.1307 34.9432 38.0865 34.9569V35.7527H38.0832Z" fill="currentColor"/>
    <path d="M42.3385 34.9679H41.6797V34.7278H43.2792V34.9679H42.617V36.9127H42.3351V34.9679H42.3385Z" fill="currentColor"/>
    <path d="M46.1613 34.7278V36.9127H45.8828V34.7278H46.1613Z" fill="currentColor"/>
    <path d="M48.9653 36.5749C49.091 36.6538 49.2744 36.719 49.4646 36.719C49.7498 36.719 49.9162 36.5681 49.9162 36.3451C49.9162 36.1428 49.8008 36.0227 49.5087 35.9095C49.1555 35.7826 48.9382 35.5974 48.9382 35.2921C48.9382 34.9525 49.2166 34.6987 49.6378 34.6987C49.8585 34.6987 50.0181 34.7502 50.1166 34.8051L50.0385 35.0349C49.9672 34.9971 49.8245 34.932 49.6276 34.932C49.3321 34.932 49.22 35.1103 49.22 35.2578C49.22 35.4636 49.3525 35.5631 49.6513 35.6797C50.0181 35.8238 50.2015 36.0021 50.2015 36.3211C50.2015 36.6572 49.9536 36.9488 49.4442 36.9488C49.237 36.9488 49.0095 36.8871 48.8906 36.8082L48.9653 36.5749Z" fill="currentColor"/>
    <path d="M53.2238 34.7278V36.9127H52.9453V34.7278H53.2238Z" fill="currentColor"/>
    <path d="M56.0781 36.9127V34.7278H56.3839L57.0767 35.8322C57.2362 36.0895 57.362 36.3193 57.4639 36.5423L57.4705 36.5388C57.4434 36.2473 57.4401 35.9831 57.4401 35.6402V34.7278H57.7015V36.9127H57.4196L56.7338 35.8048C56.5842 35.5613 56.4382 35.3109 56.3297 35.0742L56.3194 35.0776C56.3363 35.3521 56.3432 35.6161 56.3432 35.9797V36.9127H56.0781Z" fill="currentColor"/>
    <path d="M62.1901 36.8155C62.0646 36.8601 61.8167 36.9355 61.5245 36.9355C61.1985 36.9355 60.9267 36.8498 60.7162 36.6474C60.5296 36.4656 60.4141 36.1741 60.4141 35.8345C60.4174 35.1828 60.8589 34.7061 61.5857 34.7061C61.8369 34.7061 62.0305 34.7609 62.1258 34.8055L62.0577 35.0353C61.9422 34.9839 61.7995 34.9427 61.5791 34.9427C61.0525 34.9427 60.7096 35.272 60.7096 35.8208C60.7096 36.3765 61.0389 36.7023 61.545 36.7023C61.7283 36.7023 61.8541 36.6749 61.9187 36.644V35.9923H61.4805V35.7659H62.1937V36.8155H62.1901Z" fill="currentColor"/>
    <path d="M68.0156 36.9127V34.7278H68.3214L69.0142 35.8322C69.1737 36.0895 69.2995 36.3193 69.4014 36.5423L69.408 36.5388C69.3809 36.2473 69.3776 35.9831 69.3776 35.6402V34.7278H69.639V36.9127H69.357L68.6713 35.8048C68.5217 35.5613 68.3757 35.3109 68.2672 35.0742L68.2569 35.0776C68.2738 35.3521 68.2807 35.6161 68.2807 35.9797V36.9127H68.0156Z" fill="currentColor"/>
    <path d="M73.6095 35.8871H72.7705V36.676H73.7078V36.9127H72.4922V34.7278H73.6605V34.9644H72.7705V35.6539H73.6095V35.8871Z" fill="currentColor"/>
    <path d="M76.8933 34.9679H76.2344V34.7278H77.834V34.9679H77.1717V36.9127H76.89V34.9679H76.8933Z" fill="currentColor"/>
    <path d="M80.9176 36.9127L80.3672 34.7278H80.6627L80.9209 35.8322C80.9854 36.1032 81.043 36.3776 81.0804 36.5869H81.0874C81.1211 36.3708 81.189 36.1101 81.2638 35.8288L81.5524 34.7278H81.8446L82.1061 35.8357C82.1673 36.0964 82.2249 36.3536 82.2554 36.5834H82.2623C82.3063 36.3433 82.3676 36.0998 82.4354 35.8288L82.7207 34.7278H83.006L82.3947 36.9127H82.1028L81.8311 35.7739C81.7632 35.4961 81.7189 35.28 81.6884 35.0605H81.6815C81.6441 35.2766 81.5934 35.4927 81.5153 35.7739L81.2062 36.9127H80.9176Z" fill="currentColor"/>
    <path d="M87.4844 35.8032C87.4844 36.5544 87.0329 36.9522 86.4792 36.9522C85.9086 36.9522 85.5078 36.5063 85.5078 35.8443C85.5078 35.1515 85.9358 34.6987 86.5133 34.6987C87.1041 34.6987 87.4844 35.1549 87.4844 35.8032ZM85.8067 35.8375C85.8067 36.304 86.0582 36.7224 86.4961 36.7224C86.9376 36.7224 87.1891 36.3108 87.1891 35.8169C87.1891 35.3813 86.9647 34.9285 86.4997 34.9285C86.0377 34.9285 85.8067 35.3607 85.8067 35.8375Z" fill="currentColor"/>
    <path d="M90.2109 34.7579C90.3533 34.7305 90.5538 34.7134 90.7474 34.7134C91.0463 34.7134 91.2399 34.7682 91.3723 34.8917C91.4809 34.9878 91.5421 35.1387 91.5421 35.3068C91.5421 35.5949 91.3621 35.787 91.1347 35.8624V35.8727C91.3008 35.931 91.3995 36.0854 91.4504 36.3117C91.5216 36.617 91.5726 36.8262 91.6169 36.912H91.328C91.2942 36.8503 91.2432 36.6616 91.182 36.3906C91.1175 36.0888 91.002 35.9756 90.7508 35.9653H90.4893V36.912H90.2109V34.7579ZM90.4926 35.7527H90.7779C91.0768 35.7527 91.2671 35.588 91.2671 35.3376C91.2671 35.0564 91.0665 34.9329 90.7713 34.9295C90.6352 34.9295 90.5403 34.9432 90.4959 34.9569V35.7527H90.4926Z" fill="currentColor"/>
    <path d="M94.2969 34.7278H94.5752V35.7808H94.5855C94.6431 35.695 94.701 35.6196 94.7553 35.5476L95.4175 34.7278H95.7641L94.983 35.6539L95.825 36.9093H95.4956L94.7824 35.8357L94.5789 36.0758V36.9093H94.3002V34.7278H94.2969Z" fill="currentColor"/>
</svg>
