<svg viewBox="0 0 116 49" fill="none" xmlns="http://www.w3.org/2000/svg">
    <path d="M92.3516 28.365H90.2262C90.0272 28.365 89.8672 28.1992 89.8672 27.993V20.1514H92.3536V28.3671L92.3516 28.365Z" fill="currentColor"/>
    <path d="M96.6715 22.0942H93.2578V20.1514H102.602V22.0942H99.1785V28.365H97.0306C96.8316 28.365 96.6715 28.1992 96.6715 27.993V22.0942Z" fill="currentColor"/>
    <path d="M88.827 22.0177V20.1514H83.3207L80.625 22.9402V27.993C80.625 28.1992 80.785 28.365 80.984 28.365H83.0991V25.1084H88.6875V23.2315H83.0991V22.0156H88.827V22.0177Z" fill="currentColor"/>
    <path d="M74.1573 20.0127C79.1486 20.0127 79.7354 22.6081 79.7354 24.077V24.4086C79.7354 25.854 79.1589 28.5175 74.1573 28.5175H73.6977C68.6735 28.5175 68.1094 25.8562 68.1094 24.4086V24.077C68.1094 22.6081 68.6735 20.0127 73.6977 20.0127H74.1573ZM77.132 24.1535C77.132 23.2161 76.6088 22.0002 73.9213 22.0002C71.2338 22.0002 70.7107 23.2161 70.7107 24.1535V24.2874C70.7107 25.2248 71.2338 26.5173 73.9213 26.5173C76.6088 26.5173 77.132 25.2589 77.132 24.3087V24.1535Z" fill="currentColor"/>
    <path d="M67.4521 27.3054V26.1023C67.4521 25.0416 66.7587 24.457 65.9483 24.2147C66.4715 24.0382 67.4213 23.5961 67.4213 22.4142V22.2803C67.4213 21.0984 66.6212 20.1504 63.9768 20.1504H60.3025L57.5781 22.9712V27.9941C57.5781 28.2003 57.7381 28.3661 57.9371 28.3661H60.0625V25.4518H63.306C64.5328 25.4518 64.9595 25.894 64.9595 26.8973V27.8475C64.9595 28.145 65.0026 28.2662 65.0764 28.3661H67.606V28.3108C67.528 28.1812 67.4541 27.9707 67.4541 27.3075L67.4521 27.3054ZM64.8282 22.8202C64.8282 23.273 64.541 23.6259 63.825 23.6259H60.0605V22.0146H63.825C64.5512 22.0146 64.8282 22.3781 64.8282 22.8096V22.8202Z" fill="currentColor"/>
    <path d="M53.0473 20.1525H49.8141L47.0938 22.9669V27.9941C47.0938 28.2003 47.2538 28.3661 47.4528 28.3661H49.5781V25.6283H53.0452C55.8825 25.6283 56.7462 24.4017 56.7462 22.9329V22.8224C56.7462 21.3216 55.905 20.1504 53.0452 20.1504L53.0473 20.1525ZM54.1571 22.9244C54.1571 23.4877 53.7838 23.7853 53.0042 23.7853H49.5802V22.0189H53.0042C53.8043 22.0189 54.1571 22.3271 54.1571 22.8925V22.9244Z" fill="currentColor"/>
    <path d="M29.6039 20.23H26.465L24.3438 22.4258V28.0737C24.3438 28.2799 24.5038 28.4457 24.7028 28.4457H29.6121C34.1603 28.4457 35.1614 26.303 35.1984 24.5536L31.1056 20.3171C30.6522 20.2619 30.1537 20.2321 29.6018 20.2321L29.6039 20.23ZM32.6011 24.2815V24.3474C32.6011 25.1871 32.2277 26.4667 29.411 26.4667H26.8302V22.1707H29.411C32.2708 22.1707 32.6011 23.4419 32.6011 24.2815Z" fill="currentColor"/>
    <path d="M38.5411 26.4029V20.23H36.0547V25.4379L38.9596 28.4457H44.0556V26.4029H38.5411Z" fill="currentColor"/>
    <path d="M20.2718 20.2321H17.0488L14.3203 23.055V28.4457H16.8068V25.7078H20.2738C20.6205 25.7078 20.9365 25.6887 21.2278 25.6547L23.9727 22.8127C23.9378 21.3545 23.0721 20.23 20.2738 20.23L20.2718 20.2321ZM21.3816 23.0019C21.3816 23.5652 21.0083 23.8628 20.2287 23.8628H16.8047V22.0963H20.2287C21.0288 22.0963 21.3816 22.4045 21.3816 22.97V23.0019Z" fill="currentColor"/>
    <path d="M29.6039 20.23H26.465L24.3438 22.4258V28.0737C24.3438 28.2799 24.5038 28.4457 24.7028 28.4457H29.6121C34.1603 28.4457 35.1614 26.303 35.1984 24.5536L31.1056 20.3171C30.6522 20.2619 30.1537 20.2321 29.6018 20.2321L29.6039 20.23ZM32.6011 24.2815V24.3474C32.6011 25.1871 32.2277 26.4667 29.411 26.4667H26.8302V22.1707H29.411C32.2708 22.1707 32.6011 23.4419 32.6011 24.2815Z" fill="currentColor"/>
</svg>
