<svg viewBox="0 0 116 49" fill="none" xmlns="http://www.w3.org/2000/svg">
    <path fill-rule="evenodd" clip-rule="evenodd" d="M33.3346 30.8303V21.9141L29.3617 27.257H28.8985L24.9217 22.0437L24.8362 21.9282V24.6528H22.4844V18.7498V18.5652H25.1749L29.0766 23.8384L32.9784 18.5652H35.6866V30.8303H33.3346Z" fill="currentColor"/>
    <path fill-rule="evenodd" clip-rule="evenodd" d="M24.8353 25.6072V30.8303H22.4835V27.9228H19.5312V25.6072H21.3641H22.0494H24.8353Z" fill="currentColor"/>
    <path d="M93.9365 18.562V23.3522C93.4196 22.4577 91.9766 21.9664 91.05 21.9664C88.4847 21.9664 86.5782 23.5102 86.5782 26.4934C86.5782 29.3356 88.5202 31.0206 91.1037 31.0206C92.1724 31.0206 93.2591 30.6692 93.9365 29.634L94.0789 30.8277H96.1097V18.562H93.9365ZM91.2459 23.9667C92.6177 23.9667 93.7936 24.9844 93.7936 26.4934C93.7936 28.0552 92.6177 29.0378 91.2459 29.0378C89.8562 29.0378 88.7518 28.0025 88.7518 26.4934C88.7518 24.9316 89.8562 23.9667 91.2459 23.9667ZM79.982 23.8787C83.4027 23.8787 83.4027 29.1251 79.982 29.1251C78.5392 29.1251 77.381 28.1425 77.381 26.4934C77.381 24.8437 78.5392 23.8787 79.982 23.8787ZM82.5836 23.3699C82.0845 22.5101 80.9621 21.9664 79.7862 21.9664C77.2208 21.9485 75.2077 23.5102 75.2077 26.4934C75.2077 29.5291 77.1317 31.1085 79.7328 31.0909C80.7129 31.0727 82.0845 30.5821 82.5836 29.5643L82.6902 30.8277H84.7392V22.1768H82.6547L82.5836 23.3699ZM70.9456 19.7374C70.9456 21.4047 73.5112 21.4047 73.5112 19.7374C73.5112 18.0706 70.9456 18.0706 70.9456 19.7374ZM73.3151 22.1417V30.8277H71.1414V22.1417H73.3151ZM66.666 18.562V23.3522C66.1493 22.4577 64.7061 21.9664 63.7798 21.9664C61.2142 21.9664 59.3077 23.5102 59.3077 26.4934C59.3077 29.3356 61.2495 31.0206 63.8332 31.0206C64.9023 31.0206 65.989 30.6692 66.666 29.634L66.8084 30.8277H68.8396V18.562H66.666ZM63.9756 23.9667C65.3472 23.9667 66.5231 24.9844 66.5231 26.4934C66.5231 28.0552 65.3472 29.0378 63.9756 29.0378C62.5857 29.0378 61.4813 28.0025 61.4813 26.4934C61.4813 24.9316 62.5857 23.9667 63.9756 23.9667ZM57.4331 30.8277V26.2826C57.4331 23.563 55.7763 22.0364 53.7095 22.0364C52.6048 22.0364 51.714 22.4752 50.8233 23.3346L50.6808 22.1592H48.7389V30.8277H50.8944V26.4055C50.8944 25.0893 51.8032 23.9843 53.1393 23.9843C54.529 23.9843 55.2597 24.9844 55.2597 26.3003V30.8277H57.4331ZM42.3032 23.9491C43.7641 23.9491 44.6905 25.2125 44.6905 26.5111C44.6905 27.8269 43.8888 29.0555 42.3032 29.0555C40.7176 29.0555 39.916 27.8269 39.916 26.5111C39.916 25.2125 40.7354 23.9491 42.3032 23.9491ZM42.2852 22.0008C39.4883 22.0008 37.7422 24.0367 37.7422 26.5111C37.7422 29.0026 39.4525 31.0206 42.3032 31.0206C45.1539 31.0206 46.8823 29.0026 46.8823 26.5111C46.8823 24.0367 45.0826 22.0008 42.2852 22.0008Z" fill="currentColor"/>
</svg>
