<svg viewBox="0 0 116 49" fill="none" xmlns="http://www.w3.org/2000/svg">
    <path d="M93.6428 10.1787C93.6428 16.7787 92.3376 22.7925 89.9576 27.0736C87.2706 31.9153 83.4321 34.3871 78.5951 34.3871C75.0127 34.3871 71.9159 32.4249 70.048 28.9848C74.0912 29.4944 77.6226 28.0674 79.4399 24.9331C80.54 23.0474 80.668 20.9068 79.7979 19.1231C78.8768 17.2119 76.9829 15.9123 74.6286 15.53C71.3275 14.9949 69.4849 16.4219 68.5124 17.7215C66.8489 19.964 66.5418 23.5061 67.5909 26.9462C66.9512 26.7168 66.2858 26.462 65.6207 26.1307C64.3665 25.5192 63.4197 24.8566 62.6777 24.1941C62.7286 23.557 62.78 22.8945 62.78 22.2574C62.78 19.7092 62.2683 18.4605 61.2188 18.4605C60.2976 18.4605 59.581 19.0721 59.3251 20.0404C59.018 21.2891 59.5299 23.0219 61.1164 24.7037C60.9118 26.4111 60.5023 27.991 59.9649 29.0612C59.6834 29.6218 59.1204 30.5902 58.4038 30.5902C56.5357 30.5902 55.8447 27.0226 55.3329 24.3979C54.8723 22.079 54.5908 20.5501 53.388 20.5501C52.4411 20.5501 52.2875 21.5694 51.8781 24.3215C51.6734 25.7485 51.1104 29.5454 50.4194 29.9531C49.8308 29.6473 48.9863 26.8442 48.628 25.6466C47.9626 23.4041 47.6555 22.3848 46.7598 22.3848C46.0945 22.3848 45.6083 22.869 45.2244 25.0605C44.5846 24.3979 43.7145 23.9392 42.742 23.8373C41.5904 23.7099 40.4388 24.0667 39.5943 24.8311C38.7498 25.5956 38.238 26.6659 38.238 27.7871C38.238 28.8319 38.5963 29.6983 39.1849 30.3353H38.11C37.4447 30.3353 36.8049 30.0295 36.421 29.4944L35.4997 28.2458C36.1907 27.8635 36.6769 27.1755 36.7281 26.3601C36.7793 25.6975 36.549 25.0859 36.0883 24.6018C35.6277 24.1176 35.0135 23.8628 34.3481 23.8628H25.7239C23.4719 23.8628 21.6293 25.5956 21.5781 27.7616C21.5781 28.8319 21.962 29.8512 22.7297 30.6156C23.4975 31.3801 24.5211 31.8133 25.6215 31.8133C28.411 31.8133 29.6649 29.8257 29.6649 27.8381C29.6649 27.4303 29.3323 27.1246 28.9228 27.1246H25.6727V28.577H28.1039C27.9247 29.3415 27.3361 30.3863 25.6215 30.3863C24.9306 30.3863 24.2652 30.106 23.779 29.6218C23.2927 29.1377 23.0368 28.5006 23.0368 27.8126C23.0624 26.4365 24.2652 25.3408 25.7239 25.3408H34.3993C34.6552 25.3408 34.8855 25.4427 35.0647 25.6211C35.2438 25.7995 35.3206 26.0543 35.3206 26.3091C35.295 26.7678 34.8599 27.15 34.3481 27.15C32.3008 27.15 30.663 28.7809 30.663 30.7686V31.8388H32.1473V30.7686C32.1473 29.6983 32.9662 28.7809 34.0154 28.628L35.295 30.3863C35.9604 31.3037 37.0352 31.8388 38.1612 31.8388H42.3581C42.6396 31.8133 42.9212 31.7624 43.2027 31.7114C44.0472 31.5585 44.8661 31.0998 45.4547 30.3608C46.0433 29.6728 46.376 28.8064 46.376 27.9145C46.5551 26.3346 46.7087 25.3408 46.8366 24.7292C46.9902 25.1624 47.1437 25.672 47.2717 26.1053C48.2441 29.3415 48.9863 31.4566 50.4706 31.4821C52.3643 31.4821 52.8506 28.1438 53.3624 24.6018C53.4391 24.1431 53.5159 23.6589 53.5671 23.2002C53.6951 23.6844 53.7974 24.2705 53.8998 24.7547C54.514 27.8635 55.3329 32.1191 58.4294 32.1191C59.4275 32.1191 60.8606 31.4821 61.8585 28.4242C62.1146 27.6852 62.2936 26.8442 62.4473 25.9524C63.1637 26.4875 63.9828 26.9972 64.9553 27.4813C66.0558 28.0164 67.1559 28.4242 68.2307 28.7045C68.3587 28.9593 68.4611 29.2141 68.5891 29.469C70.6877 33.5461 74.3215 35.8905 78.5698 35.8905C83.9181 35.8905 88.2944 33.1129 91.2118 27.8381C93.7198 23.3276 95.076 17.0844 95.076 10.2552H93.5918L93.6428 10.1787ZM44.2775 29.4434C43.9192 29.8512 43.4074 30.1315 42.87 30.2334C42.6653 30.2589 42.4605 30.2844 42.2558 30.2589C41.0274 30.2079 39.7735 29.316 39.7735 27.7616C39.7735 27.0481 40.0805 26.3601 40.6179 25.8759C41.1042 25.4427 41.6928 25.2389 42.3326 25.2389C42.4349 25.2389 42.5373 25.2389 42.6396 25.2389C43.8168 25.3663 44.7637 26.3091 44.8917 27.4558C44.8917 27.5577 44.8917 27.6342 44.8917 27.7361C44.8149 28.4751 44.5846 29.0103 44.2519 29.3925L44.2775 29.4434ZM61.3211 22.5122C60.8094 21.6458 60.6814 20.8814 60.8094 20.3717C60.8606 20.1678 60.9374 20.0149 61.0653 19.9385C61.1931 20.2697 61.3468 21.1107 61.3211 22.5122ZM69.7153 18.5625C70.7644 17.1609 72.3252 16.6258 74.3982 16.957C76.2665 17.2629 77.7506 18.2821 78.4674 19.7347C79.1329 21.1107 79.0301 22.7161 78.1604 24.2196C76.5225 27.0226 73.1444 28.1693 69.3312 27.4049C68.0774 24.1431 68.2054 20.601 69.7153 18.5879V18.5625Z" fill="currentColor"/>
    <path d="M26.9526 36.4519C26.9526 36.7322 26.8758 36.9615 26.7478 37.1654C26.6967 37.2418 26.6199 37.3438 26.4663 37.4712C26.3384 37.5986 26.2104 37.7005 26.1337 37.7515C25.9033 37.9299 25.6218 38.0063 25.2891 38.0063H23.3954V40.5546H22.0391V33.8782H25.2891C25.6218 33.8782 25.9033 33.9546 26.1337 34.133C26.364 34.3113 26.5687 34.5152 26.7478 34.7446C26.9014 34.9484 26.9526 35.1778 26.9526 35.4835V36.4264V36.4519ZM25.5963 36.4519V35.4581C25.5963 35.4581 25.4171 35.2542 25.3147 35.2033H23.421V36.7322H25.3147C25.3147 36.7322 25.3915 36.7067 25.4427 36.6303C25.5195 36.5793 25.5706 36.5029 25.5963 36.4519Z" fill="currentColor"/>
    <path d="M33.2747 40.5763H31.816L31.3809 39.3022H29.0521C29.001 39.4551 28.9242 39.6589 28.8218 39.9393C28.7195 40.2195 28.6427 40.4489 28.5915 40.5763H27.1328L29.4616 33.8999H30.9715L33.2747 40.5763ZM30.9715 38.0026L30.2038 35.862C30.127 36.0914 29.999 36.4481 29.8199 36.9323C29.6407 37.4165 29.5384 37.7732 29.436 38.0026H30.9459H30.9715Z" fill="currentColor"/>
    <path d="M39.0598 36.4519C39.0598 36.7322 38.983 36.9615 38.8551 37.1654C38.8039 37.2418 38.7271 37.3438 38.5736 37.4712C38.4456 37.5986 38.3177 37.7005 38.2409 37.7515C38.1897 37.8025 38.0873 37.8534 37.985 37.9044L39.4437 40.5546H37.9338L36.603 38.0063H35.5282V40.5546H34.1719V33.8782H37.422C37.7547 33.8782 38.0362 33.9546 38.2665 34.133C38.4968 34.3113 38.7015 34.5152 38.8807 34.7446C39.0342 34.9484 39.0854 35.1778 39.0854 35.4835V36.4264L39.0598 36.4519ZM37.7035 36.4519V35.4581C37.7035 35.4581 37.5243 35.2542 37.422 35.2033H35.5282V36.7322H37.422C37.422 36.7322 37.4987 36.7067 37.5499 36.6303C37.6267 36.5793 37.6779 36.5029 37.7035 36.4519Z" fill="currentColor"/>
    <path d="M45.0919 35.1995H43.3005V40.5763H41.9185V35.1995H40.1016V33.8999H45.0919V35.1995Z" fill="currentColor"/>
    <path d="M51.0619 40.5763H49.68L47.5048 36.652V40.5763H46.1484V33.8999H47.556L49.7056 37.8751V33.8999H51.0619V40.5763Z" fill="currentColor"/>
    <path d="M56.847 40.5763H52.4453V33.8999H56.847V35.1995H53.8016V36.5755H56.7446V37.8751H53.8016V39.2767H56.847V40.5763Z" fill="currentColor"/>
    <path d="M63.1146 36.4519C63.1146 36.7322 63.0375 36.9615 62.9099 37.1654C62.8585 37.2418 62.7818 37.3438 62.6281 37.4712C62.5001 37.5986 62.3725 37.7005 62.2954 37.7515C62.2444 37.8025 62.1421 37.8534 62.0398 37.9044L63.4983 40.5546H61.9884L60.6577 38.0063H59.5829V40.5546H58.2266V33.8782H61.4767C61.8094 33.8782 62.0907 33.9546 62.3211 34.133C62.5515 34.3113 62.7562 34.5152 62.9352 34.7446C63.0889 34.9484 63.1403 35.1778 63.1403 35.4835V36.4264L63.1146 36.4519ZM61.758 36.4519V35.4581C61.758 35.4581 61.579 35.2542 61.4767 35.2033H59.5829V36.7322H61.4767C61.4767 36.7322 61.5533 36.7067 61.6047 36.6303C61.6814 36.5793 61.7327 36.5029 61.758 36.4519Z" fill="currentColor"/>
    <path d="M66.2574 35.1485C66.2574 35.1485 66.1547 35.225 66.078 35.2759C66.0014 35.3269 65.95 35.4034 65.899 35.4543C65.8477 35.5053 65.8477 35.5308 65.8477 35.5308V36.1933L68.7141 36.9578C68.9954 37.0342 69.2258 37.2126 69.4048 37.442C69.5585 37.6968 69.6609 37.9516 69.6609 38.2319V38.8945C69.6609 39.1493 69.5842 39.3786 69.4562 39.5825C69.3795 39.6844 69.2515 39.8373 69.0721 40.0157C68.8931 40.1941 68.7398 40.3215 68.6374 40.3979C68.3814 40.5508 68.151 40.6018 67.8949 40.6018H66.1804C65.643 40.6018 65.1569 40.296 64.6962 39.6589C64.5425 39.4296 64.4148 39.2002 64.3125 38.9454L65.5663 38.5632C65.771 38.9454 65.9757 39.2002 66.1547 39.3022H67.844C67.844 39.3022 67.9463 39.2257 68.023 39.1747C68.0996 39.1238 68.151 39.0728 68.1767 39.0219C68.2276 38.9709 68.2276 38.9454 68.2276 38.9454V38.2319C67.9206 38.1555 67.4856 38.0281 66.8458 37.8751C66.2061 37.6968 65.72 37.5694 65.3873 37.4929C65.0799 37.4165 64.8499 37.2381 64.6962 37.0088C64.5425 36.7539 64.4658 36.4991 64.4658 36.2188V35.6072C64.4658 35.3269 64.5172 35.0976 64.6448 34.9192C64.7219 34.8173 64.8499 34.6644 65.0289 34.486C65.2079 34.3076 65.3616 34.1802 65.4897 34.1037C65.7453 33.9509 65.9757 33.8999 66.2061 33.8999H67.7926C68.3047 33.8999 68.7907 34.2057 69.2515 34.8427C69.4048 35.0466 69.5328 35.2759 69.6352 35.5562L68.3814 35.913C68.2276 35.6072 68.0486 35.3779 67.7926 35.225H66.2574V35.1485Z" fill="currentColor"/>
</svg>
