<svg viewBox="0 0 116 49" fill="none" xmlns="http://www.w3.org/2000/svg">
    <path d="M32.3896 25.6951C32.3896 31.7642 27.8122 32.7525 23.0052 32.7525H14.6406V18.6384H23.0052C27.8122 18.6384 32.3896 19.6469 32.3896 25.6959V25.6951ZM26.6052 25.6951C26.6052 22.2066 24.2329 22.2871 21.2987 22.2871H20.3618V29.1223H21.2987C24.2329 29.1223 26.6052 29.1827 26.6052 25.6951Z" fill="currentColor"/>
    <path d="M37.3749 24.1027L38.1238 33.0554H32.6094L33.3584 24.1027H37.3749ZM32.9004 21.0379C32.9004 19.7073 34.0034 18.6384 35.3766 18.6384C36.7498 18.6384 37.832 19.7073 37.832 21.0379C37.832 22.3685 36.729 23.4374 35.3766 23.4374C34.0242 23.4374 32.9004 22.3484 32.9004 21.0379Z" fill="currentColor"/>
    <path d="M48.2301 33.0548C43.2985 33.0548 38.2422 31.361 38.2422 25.6953C38.2422 20.0297 43.1115 18.356 47.9184 18.356C52.3713 18.356 56.283 19.8678 57.1782 23.3563H51.3314C50.7903 22.5903 49.8751 21.9652 47.9193 21.9652C45.2353 21.9652 44.0283 23.3563 44.0283 25.6953C44.0283 28.0344 45.6933 29.4456 48.2942 29.4456C50.5617 29.4456 51.4777 28.4774 51.7478 27.8121H47.5028V24.3639H57.5115C58.0111 30.4532 54.0777 33.054 48.231 33.054L48.2301 33.0548Z" fill="currentColor"/>
    <path d="M58.4521 27.5911L57.7031 18.6384H63.2175L62.4685 27.5911H58.4521ZM62.9257 30.6559C62.9257 31.9866 61.8226 33.0554 60.4495 33.0554C59.0763 33.0554 57.994 31.9866 57.994 30.6559C57.994 29.3253 59.0971 28.2564 60.4495 28.2564C61.8019 28.2564 62.9257 29.3454 62.9257 30.6559Z" fill="currentColor"/>
    <path d="M71.5746 27.6507L69.8473 29.1626V32.7517H64.125V18.6384H69.8473V23.1144L74.6955 18.6384H81.7909L75.4237 24.2638L82.0826 32.7525H75.3408L71.5746 27.6516V27.6507Z" fill="currentColor"/>
    <path d="M94.483 30.7558H87.9914L87.1803 32.7517H81.25L87.9914 18.6384H94.483L101.225 32.7525H95.2956L94.484 30.7566L94.483 30.7558ZM92.9852 27.1263L91.2372 22.8115L89.4891 27.1263H92.9852Z" fill="currentColor"/>
</svg>
