<svg viewBox="0 0 116 49" fill="none" xmlns="http://www.w3.org/2000/svg">
    <path d="M73.3292 7.12329H43.4922V43.8722H73.3292V7.12329Z" fill="white"/>
    <path d="M69.5248 32.0339L45.7031 40.8176V17.3092L73.3301 7.12329V26.4694C73.3301 28.9679 71.8097 31.1908 69.5248 32.0339Z" fill="currentColor"/>
    <path d="M70.3208 18.2041C69.8683 17.7882 69.1623 17.6374 68.2028 17.7518C68.8347 17.2919 69.3149 16.8056 69.6424 16.2942C70.1353 15.5267 70.3806 14.7335 70.3814 13.9145C70.3814 12.938 70.0373 12.2455 69.3485 11.838C68.659 11.4304 67.6688 11.4523 66.3817 11.9266L57.8595 15.0691L55.6495 23.7202L53.4499 16.704L47.9141 18.7473L47.9178 32.1667L51.2295 30.9477V21.9921L53.9921 29.9287L57.3075 28.7067L60.0702 18.7329V27.6885L62.8329 26.668L65.7864 25.5808C66.09 25.4687 66.7063 25.1786 67.6359 24.7096C68.3344 24.3573 68.8572 24.0134 69.2027 23.6785C69.7614 23.1383 70.2789 22.6027 70.6005 21.9103C70.9228 21.2178 71.0111 20.7375 71.0118 20.0201C71.0118 19.1374 70.7747 18.6223 70.3223 18.2056L70.3208 18.2041ZM63.3834 15.5502L65.0347 14.9411C65.6599 14.7108 66.099 14.6623 66.351 14.7964C66.603 14.9305 66.7287 15.1987 66.7287 15.6025C66.7287 16.0374 66.6023 16.4161 66.351 16.7396C66.0982 17.0624 65.6846 17.2207 65.0414 17.4578L63.3834 18.0693V15.5502ZM66.8192 22.0163C66.5275 22.3853 66.0264 22.7004 65.3159 22.9626L63.3834 23.6755V20.8678L65.3077 20.1587C66.0309 19.892 66.5365 19.8307 66.8251 19.9731C67.1131 20.1163 67.2575 20.3913 67.2575 20.8011C67.2575 21.2421 67.1116 21.6474 66.8199 22.0171L66.8192 22.0163Z" fill="white"/>
    <path d="M47.9141 34.4022L49.3717 33.8651C49.6888 33.7484 49.9267 33.7499 50.0852 33.8704C50.243 33.9909 50.3223 34.2159 50.3223 34.5454C50.3223 34.875 50.2363 35.181 50.0642 35.4356C49.8922 35.6901 49.629 35.8826 49.2752 36.0129L48.7951 36.1902V37.4364L47.9141 37.7615V34.403V34.4022ZM48.7951 35.5091L49.0097 35.4295C49.1787 35.3674 49.2977 35.2886 49.3657 35.1939C49.4338 35.0992 49.4682 34.9977 49.4682 34.8894C49.4682 34.781 49.4383 34.7053 49.3792 34.6545C49.3201 34.603 49.2079 34.6076 49.0441 34.6682L48.7943 34.7606V35.5098L48.7951 35.5091Z" fill="white"/>
    <path d="M52.1853 35.6305L51.1898 35.9979L51.0515 36.6032L50.1562 36.9335L51.2228 33.1819L52.1793 32.8296L53.2458 35.7949L52.3274 36.1335L52.1853 35.6312V35.6305ZM52.0035 34.9714L51.6902 33.8796L51.3798 35.2009L52.0028 34.9714H52.0035Z" fill="white"/>
    <path d="M53.532 35.6928V32.3344L54.9934 31.7957C55.2641 31.6957 55.4713 31.6465 55.6149 31.6488C55.7585 31.651 55.8736 31.7101 55.9611 31.8268C56.0487 31.9435 56.0928 32.1086 56.0928 32.3223C56.0928 32.5086 56.0591 32.6821 55.9918 32.8412C55.9245 33.0011 55.8325 33.145 55.7151 33.2723C55.6403 33.3533 55.5378 33.4352 55.407 33.5185C55.5117 33.5216 55.5872 33.5344 55.6351 33.5579C55.6672 33.5738 55.7136 33.6155 55.7757 33.6829C55.837 33.7503 55.8781 33.8049 55.8983 33.8465L56.3231 34.6632L55.3322 35.0284L54.8632 34.1753C54.8042 34.0647 54.7511 33.9973 54.7047 33.9753C54.6419 33.9466 54.5701 33.9473 54.49 33.9769L54.4123 34.0056V35.3686L53.5312 35.6936L53.532 35.6928ZM54.413 33.3708L54.7825 33.2344C54.8229 33.22 54.8999 33.1761 55.0143 33.1026C55.0727 33.0677 55.1198 33.0147 55.1564 32.945C55.1931 32.8753 55.2118 32.8033 55.2118 32.7298C55.2118 32.6215 55.1826 32.5488 55.1243 32.5124C55.0659 32.476 54.9575 32.4867 54.7974 32.5458L54.4123 32.6874V33.37L54.413 33.3708Z" fill="white"/>
    <path d="M56.375 31.2765L59.0405 30.2939V31.1235L58.146 31.4531V33.9819L57.2694 34.3054V31.7766L56.375 32.1061V31.2765Z" fill="white"/>
    <path d="M59.4382 30.15L60.2572 29.8477L61.3252 31.3114V29.4537L62.1516 29.1492V32.5076L61.3252 32.8122L60.2624 31.3599V33.2038L59.4375 33.5077V30.1492L59.4382 30.15Z" fill="white"/>
    <path d="M62.7344 28.9363L65.0842 28.0696V28.7863L63.6131 29.3287V29.8628L64.978 29.3598V30.0446L63.6131 30.5477V31.2098L65.1269 30.6515V31.4121L62.7344 32.294V28.9355V28.9363Z" fill="white"/>
    <path d="M65.6101 31.2297V27.8713L67.0715 27.3326C67.3422 27.2326 67.5494 27.1834 67.693 27.1856C67.8366 27.1879 67.9518 27.247 68.0393 27.3637C68.1268 27.4803 68.1709 27.6455 68.1709 27.8591C68.1709 28.0455 68.1372 28.219 68.0699 28.3781C68.0026 28.5379 67.9106 28.6819 67.7932 28.8092C67.7184 28.8902 67.616 28.9721 67.4851 29.0554C67.5898 29.0584 67.6653 29.0713 67.7132 29.0948C67.7453 29.1107 67.7917 29.1524 67.8538 29.2198C67.9151 29.2872 67.9563 29.3418 67.9764 29.3834L68.4012 30.2001L67.4103 30.5653L66.9414 29.7122C66.8823 29.6016 66.8292 29.5342 66.7828 29.5122C66.72 29.4834 66.6482 29.4842 66.5682 29.5137L66.4904 29.5425V30.9055L65.6094 31.2305L65.6101 31.2297ZM66.4912 28.9077L66.8606 28.7713C66.901 28.7569 66.978 28.7129 67.0924 28.6395C67.1508 28.6046 67.1979 28.5516 67.2346 28.4819C67.2712 28.4122 67.2899 28.3402 67.2899 28.2667C67.2899 28.1584 67.2607 28.0857 67.2024 28.0493C67.1441 28.0129 67.0356 28.0235 66.8756 28.0826L66.4904 28.2243V28.9069L66.4912 28.9077Z" fill="white"/>
    <path d="M68.5391 29.0642L69.3737 28.6945C69.3917 28.8483 69.4283 28.9566 69.4844 29.0202C69.5749 29.1225 69.7035 29.143 69.8718 29.0809C69.9967 29.0346 70.0932 28.9642 70.1612 28.8702C70.2293 28.7755 70.263 28.6831 70.263 28.5914C70.263 28.5043 70.2308 28.4384 70.1665 28.3937C70.1022 28.349 69.9526 28.3392 69.717 28.3649C69.3326 28.4043 69.0581 28.3695 68.8943 28.2604C68.729 28.152 68.6468 27.9664 68.6468 27.7035C68.6468 27.5308 68.6887 27.3528 68.7739 27.1679C68.8584 26.9831 68.9856 26.8156 69.1553 26.6656C69.3251 26.5156 69.5577 26.3861 69.8531 26.277C70.2159 26.1436 70.4926 26.1209 70.6825 26.2103C70.8732 26.2997 70.9862 26.5118 71.0221 26.8467L70.1956 27.2088C70.174 27.0656 70.1276 26.9732 70.0573 26.93C69.987 26.8876 69.8898 26.8883 69.7656 26.9346C69.6639 26.9724 69.5869 27.0262 69.5353 27.0959C69.4837 27.1664 69.4582 27.2376 69.4582 27.3111C69.4582 27.3649 69.4792 27.405 69.5218 27.4315C69.5629 27.4603 69.6609 27.4656 69.8157 27.4467C70.1994 27.4028 70.4739 27.4005 70.6392 27.4399C70.8052 27.4785 70.9256 27.5581 71.0011 27.6785C71.0767 27.799 71.1141 27.9505 71.1141 28.1338C71.1141 28.349 71.0639 28.5664 70.963 28.7846C70.862 29.0036 70.7214 29.193 70.5412 29.3536C70.3602 29.5142 70.1328 29.6453 69.8576 29.746C69.3752 29.924 69.0409 29.9377 68.8547 29.7862C68.6685 29.6347 68.5638 29.3945 68.5391 29.0642Z" fill="white"/>
</svg>
