<svg viewBox="0 0 276 56" fill="none" xmlns="http://www.w3.org/2000/svg">
    <path d="M159.075 36.4648L144.395 0.497314H128.43V53.5311H141.826V23.0688L153.754 53.5311H164.581L176.325 23.0688V53.5311H189.721V0.497314H173.94L159.075 36.4648Z" fill="currentColor"/>
    <path fill-rule="evenodd" clip-rule="evenodd" d="M235.425 0.53441L254.877 53.5681H241.114L237.26 42.9247H212.119L208.266 53.5681H194.503L214.138 0.53441H235.425ZM233.223 31.9142L226.066 12.0954H223.13L215.973 31.9142H233.223ZM36.1354 26.776C34.178 25.5526 32.0982 24.5739 29.8961 23.8399C27.694 23.1059 25.5531 22.433 23.4734 21.8213C21.883 21.2096 20.4761 20.6591 19.2527 20.1697C17.907 19.558 16.8671 18.9464 16.1331 18.3347C15.399 17.6006 15.032 16.6831 15.032 15.582C15.032 14.481 15.3379 13.5635 15.9495 12.8294C16.6836 12.0954 17.5399 11.5449 18.5187 11.1779C19.4974 10.8108 20.5984 10.6273 21.8218 10.6273C22.8005 10.6273 23.7792 10.7497 24.7579 10.9944C25.3696 11.239 25.9201 11.4837 26.4095 11.7284L26.593 11.9119C26.7153 12.0342 26.8988 12.1566 27.1435 12.2789C27.694 12.8294 28.4281 13.747 28.7951 15.215V15.3985C29.0398 16.1326 29.2233 16.9889 29.3456 17.9676H41.8241C41.4571 9.34278 37.42 6.03964 37.42 6.03964C35.5849 4.08223 33.3216 2.553 30.6302 1.45195C27.9387 0.473241 24.8191 -0.0161133 21.2713 -0.0161133C17.4788 -0.0161133 14.1145 0.595579 11.1783 1.81896C8.11988 3.04235 5.73428 4.81626 4.02154 7.14069C2.30881 9.34278 1.45244 12.1566 1.45244 15.582C1.45244 18.2735 1.94179 20.5368 2.9205 22.3718C4.02154 24.2069 5.48961 25.675 7.32468 26.776C9.03742 27.8771 10.9948 28.7946 13.1969 29.5286C15.2767 30.2627 17.2953 30.9355 19.2527 31.5472C21.2101 32.0366 22.8617 32.5871 24.2074 33.1988C25.6755 33.6881 26.7765 34.2998 27.5105 35.0339C28.3669 35.7679 28.7951 36.8078 28.7951 38.1535C28.7951 39.6216 28.1222 40.8449 26.7765 41.8237C25.4308 42.9247 23.5345 43.4752 21.0878 43.4752C19.742 43.3529 18.5187 43.1082 17.4176 42.7412C16.1942 42.3742 15.2155 41.7625 14.4815 40.9061C14.2368 40.6614 13.9921 40.3556 13.7475 39.9886C13.3804 39.071 12.8299 37.7865 12.8299 35.9514H-0.015625C0.106713 37.4195 0.290221 38.704 0.534898 39.8051C1.14659 42.8635 2.43114 45.4938 4.38856 47.6959C6.22364 49.7757 8.67041 51.3661 11.7289 52.4671C14.7873 53.5681 18.274 54.1187 22.1888 54.1187C26.7153 54.1187 30.4467 53.3846 33.3828 51.9166C36.4412 50.5709 38.7045 48.6746 40.1726 46.2278C41.6406 43.9034 42.3747 41.212 42.3747 38.1535C42.3747 35.462 41.8241 33.1988 40.7231 31.3637C39.4997 29.5286 37.9705 27.9994 36.1354 26.776Z" fill="currentColor"/>
    <path d="M89.3601 13.1964C91.5622 11.8507 94.0089 11.1779 96.7004 11.1779C99.6365 11.1779 101.839 11.7284 103.857 12.8294C105.815 13.9305 107.405 15.6432 108.628 17.9676H121.841L121.474 16.4996C121.352 15.5209 121.168 14.6645 120.923 13.9305C119.7 11.239 118.048 8.9146 115.969 6.95718C113.522 4.75509 110.647 3.04235 107.344 1.81896C103.918 0.595579 100.248 -0.0161133 96.3334 -0.0161133C92.2962 -0.0161133 88.4425 0.717918 85.1394 2.00247C81.8363 3.3482 78.9613 5.18327 76.5145 7.5077C74.0678 9.95447 72.1715 12.8294 70.8258 16.1326C69.6024 19.4357 68.9907 23.0447 68.9907 26.9595C68.9907 30.8744 69.6024 34.4833 70.8258 37.7865C72.1715 41.0896 74.0678 43.9646 76.5145 46.4113C78.9613 48.8581 81.8974 50.7544 85.3229 52.1001C88.626 53.3235 92.3574 53.9352 96.5169 53.9352C100.921 53.9352 104.775 53.2011 108.078 51.7331C111.381 50.265 114.195 48.3688 116.519 46.0443V45.8608C120.006 42.5577 121.841 37.7865 121.841 33.0153V23.8399H96.5169V34.1163H109.546V36.3184C107.16 39.6216 104.408 41.2731 102.206 42.0072C101.349 42.3742 100.432 42.6189 99.453 42.7412H97.4344C94.3759 42.7412 91.7457 42.1295 89.5436 40.9061C87.2191 39.5604 85.5064 37.7253 84.4054 35.4009C83.182 32.9541 82.5703 30.1403 82.5703 26.9595C82.5703 24.0234 83.182 21.332 84.4054 18.8852C85.6287 16.5608 87.2803 14.6645 89.3601 13.1964ZM62.5679 0.53441V12.0954H49.1719V0.53441H62.5679ZM62.5679 17.9676V53.5681H49.1719V17.9676H62.5679Z" fill="currentColor"/>
    <path d="M243.695 0.497314L262.78 53.5311H273.974V0.497314H243.695Z" fill="currentColor"/>
</svg>
