<svg viewBox="0 0 237 103" fill="none" xmlns="http://www.w3.org/2000/svg">
    <path d="M79.1973 47.1655L94.6579 40.9614V46.3734L84.3509 50.7295V58.1216L79.1973 60.1017V47.1655ZM90.9963 16.9371C98.9977 16.9371 105.643 23.0091 105.643 31.1933V47.4295C105.372 53.8976 110.932 59.0456 117.578 59.0456C124.087 59.0456 129.241 53.7656 129.241 47.4295V29.3452L124.087 31.3253V47.2975C124.087 50.8614 121.104 53.6336 117.442 53.6336C113.916 53.6336 110.797 50.7296 110.797 47.2975V31.1933C110.932 20.3691 101.981 11.657 90.9963 11.657C79.8754 11.657 70.7891 20.3691 70.7891 31.1933V62.8737L76.3494 60.8936V31.1933C76.3494 23.2732 82.8591 16.9371 90.9963 16.9371ZM144.294 59.0456C150.94 59.0456 156.229 53.7656 156.229 47.4295V19.049L151.075 21.0291V47.4295C151.075 50.8616 147.821 53.7656 144.159 53.7656C140.497 53.7656 137.513 50.8616 137.513 47.4295V26.4412L131.953 28.4213V47.4295C132.089 53.7656 137.513 59.0456 144.294 59.0456ZM159.077 18.1251V47.4295C159.077 55.3496 152.431 61.8177 144.294 61.8177C138.328 61.8177 132.902 58.2536 130.597 53.3695C128.291 58.2536 123.409 61.8177 117.578 61.8177C109.576 61.8177 103.066 55.3496 103.066 47.4295V31.1933C103.066 24.7252 97.6416 19.5771 90.9963 19.5771C84.4865 19.5771 79.1973 24.8572 79.1973 31.1933V43.9974L94.6579 37.7934V32.3812L84.3509 36.8693V31.1933C84.3509 27.6292 87.3345 24.8572 90.9963 24.8572C94.3867 24.8572 97.6416 27.6292 97.6416 31.1933C97.7772 31.3253 97.6416 47.4295 97.6416 47.4295C97.6416 58.1216 106.457 67.0977 117.442 67.0977C122.595 67.0977 127.071 64.8537 130.597 61.8177C134.123 64.8537 139.006 67.0977 144.159 67.0977C155.28 67.0977 164.095 58.1216 164.095 47.4295V16.145L159.077 18.1251Z" fill="currentColor"/>
    <path d="M15.1366 96.6329C14.5596 96.6329 14.0448 96.5271 13.5922 96.3152C13.1397 96.0925 12.7833 95.7915 12.5231 95.4126C12.2629 95.0336 12.1328 94.599 12.1328 94.1086C12.1328 93.6405 12.2346 93.217 12.4383 92.8381C12.6419 92.448 12.9587 92.1193 13.3886 91.8517C13.8185 91.5843 14.3673 91.3948 15.0348 91.2834L18.5985 90.6983V91.8351L15.3401 92.37C14.684 92.4815 14.2088 92.6877 13.9147 92.9886C13.6318 93.2895 13.4905 93.6461 13.4905 94.0585C13.4905 94.4597 13.6488 94.7996 13.9657 95.0783C14.2937 95.3569 14.7123 95.4962 15.2214 95.4962C15.8437 95.4962 16.3867 95.368 16.8505 95.1117C17.3144 94.8441 17.6765 94.4875 17.9366 94.0418C18.1969 93.5959 18.327 93.1 18.327 92.5539V90.2804C18.327 89.7454 18.1289 89.3108 17.7331 88.9764C17.337 88.6421 16.8223 88.4749 16.1887 88.4749C15.6344 88.4749 15.1478 88.6143 14.7293 88.8928C14.3107 89.1604 13.9995 89.5113 13.7959 89.946L12.6419 89.3274C12.8116 88.9485 13.0775 88.6031 13.4395 88.2909C13.8129 87.979 14.2371 87.7338 14.7123 87.5554C15.1875 87.3659 15.6796 87.2712 16.1887 87.2712C16.8562 87.2712 17.4446 87.3994 17.9536 87.6558C18.474 87.912 18.8756 88.2687 19.1585 88.7257C19.4527 89.1714 19.5997 89.6897 19.5997 90.2804V96.4324H18.327V94.6436L18.5136 94.8274C18.3552 95.1618 18.1063 95.4682 17.7669 95.7469C17.4388 96.0143 17.0486 96.2317 16.596 96.3989C16.1548 96.5549 15.6683 96.6329 15.1366 96.6329ZM23.151 96.4324V88.7257H21.3352V87.4718H23.151V86.6694C23.151 86.0453 23.2925 85.5214 23.5753 85.098C23.8581 84.6634 24.2315 84.3345 24.6953 84.1117C25.1591 83.8888 25.6571 83.7773 26.1887 83.7773C26.3018 83.7773 26.432 83.7884 26.5791 83.8108C26.7261 83.8219 26.845 83.8386 26.9354 83.8609V84.9977C26.8562 84.9753 26.7488 84.9643 26.6131 84.9643C26.4772 84.9531 26.381 84.9475 26.3244 84.9475C25.7814 84.9475 25.3289 85.0757 24.9668 85.332C24.6048 85.5884 24.4238 86.0342 24.4238 86.6694V87.4718H29.5319V88.7257H24.4238V96.4324H23.151ZM34.9624 96.4324V87.4718H36.2352V96.4324H34.9624ZM29.6506 96.4324V88.7257H27.8348V87.4718H29.6506V86.6694C29.6506 86.0453 29.7921 85.5214 30.075 85.098C30.3577 84.6634 30.7311 84.3345 31.195 84.1117C31.6588 83.8888 32.1566 83.7773 32.6883 83.7773C32.8015 83.7773 32.9316 83.7884 33.0787 83.8108C33.2257 83.8219 33.3446 83.8386 33.435 83.8609V84.9977C33.3558 84.9753 33.2484 84.9643 33.1126 84.9643C32.9768 84.9531 32.8806 84.9475 32.8241 84.9475C32.2811 84.9475 31.8285 85.0757 31.4664 85.332C31.1044 85.5884 30.9235 86.0342 30.9235 86.6694V87.4718H36.0315V88.7257H30.9235V96.4324H29.6506ZM38.5913 96.4324V83.7773H39.8642V96.4324H38.5913ZM42.4693 96.4324V87.4718H43.7422V96.4324H42.4693ZM42.4693 85.8168V83.9779H43.7422V85.8168H42.4693ZM48.9777 96.6329C48.4007 96.6329 47.8859 96.5271 47.4335 96.3152C46.9809 96.0925 46.6245 95.7915 46.3643 95.4126C46.1041 95.0336 45.9739 94.599 45.9739 94.1086C45.9739 93.6405 46.0759 93.217 46.2794 92.8381C46.4831 92.448 46.7999 92.1193 47.2298 91.8517C47.6596 91.5843 48.2084 91.3948 48.8759 91.2834L52.4396 90.6983V91.8351L49.1814 92.37C48.5252 92.4815 48.05 92.6877 47.7559 92.9886C47.4731 93.2895 47.3316 93.6461 47.3316 94.0585C47.3316 94.4597 47.4901 94.7996 47.8068 95.0783C48.1348 95.3569 48.5534 95.4962 49.0626 95.4962C49.6848 95.4962 50.2279 95.368 50.6917 95.1117C51.1555 94.8441 51.5176 94.4875 51.7779 94.0418C52.038 93.5959 52.1681 93.1 52.1681 92.5539V90.2804C52.1681 89.7454 51.9702 89.3108 51.5742 88.9764C51.1781 88.6421 50.6635 88.4749 50.0298 88.4749C49.4755 88.4749 48.989 88.6143 48.5704 88.8928C48.1518 89.1604 47.8407 89.5113 47.637 89.946L46.4831 89.3274C46.6528 88.9485 46.9187 88.6031 47.2808 88.2909C47.654 87.979 48.0783 87.7338 48.5534 87.5554C49.0286 87.3659 49.5208 87.2712 50.0298 87.2712C50.6973 87.2712 51.2857 87.3994 51.7948 87.6558C52.3152 87.912 52.7169 88.2687 52.9997 88.7257C53.2938 89.1714 53.4409 89.6897 53.4409 90.2804V96.4324H52.1681V94.6436L52.3548 94.8274C52.1965 95.1618 51.9476 95.4682 51.6081 95.7469C51.2801 96.0143 50.8897 96.2317 50.4372 96.3989C49.996 96.5549 49.5094 96.6329 48.9777 96.6329ZM59.372 96.5326C58.5574 96.5326 57.9296 96.2987 57.4883 95.8305C57.0471 95.3624 56.8265 94.6937 56.8265 93.8244V88.7257H55.1464V87.4718H55.5707C55.9553 87.4718 56.2608 87.3492 56.4871 87.104C56.7134 86.8478 56.8265 86.5301 56.8265 86.1512V85.3989H58.0992V87.4718H60.1017V88.7257H58.0992V93.8244C58.0992 94.1253 58.1446 94.3928 58.2351 94.6269C58.3255 94.8498 58.4782 95.0281 58.6933 95.1618C58.9195 95.2955 59.2193 95.3624 59.5927 95.3624C59.6831 95.3624 59.7907 95.3569 59.915 95.3457C60.0396 95.3345 60.1471 95.3234 60.2375 95.3122V96.4324C60.1017 96.4657 59.949 96.4881 59.7793 96.4992C59.6096 96.5214 59.4738 96.5326 59.372 96.5326ZM66.2817 96.6329C65.4333 96.6329 64.6639 96.4324 63.9737 96.0311C63.295 95.6187 62.7576 95.056 62.3616 94.3427C61.9656 93.6294 61.7676 92.8214 61.7676 91.9187C61.7676 91.0159 61.96 90.2191 62.3446 89.5281C62.7293 88.826 63.2497 88.2743 63.9059 87.873C64.5734 87.4719 65.3201 87.2712 66.146 87.2712C66.8021 87.2712 67.3848 87.3939 67.8939 87.639C68.4144 87.873 68.8556 88.1962 69.2177 88.6086C69.5797 89.0099 69.8568 89.4668 70.0491 89.9794C70.2415 90.481 70.3376 90.9992 70.3376 91.5342C70.3376 91.6457 70.332 91.7737 70.3206 91.9187C70.3094 92.0524 70.2924 92.1918 70.2698 92.3366H62.5823V91.1664H69.54L68.9292 91.6679C69.031 91.0549 68.9574 90.5088 68.7085 90.0296C68.471 89.5393 68.1258 89.1547 67.6733 88.8762C67.2207 88.5863 66.7117 88.4414 66.146 88.4414C65.5803 88.4414 65.0542 88.5863 64.5677 88.8762C64.0926 89.1659 63.7192 89.5726 63.4477 90.0964C63.1762 90.6092 63.0687 91.2221 63.1253 91.9354C63.0687 92.6487 63.1818 93.2728 63.4647 93.8077C63.7588 94.3315 64.1548 94.7383 64.6526 95.0281C65.1616 95.3179 65.7048 95.4627 66.2817 95.4627C66.9492 95.4627 67.5092 95.3067 67.9618 94.9946C68.4144 94.6826 68.7821 94.2925 69.0649 93.8244L70.1509 94.3928C69.97 94.7941 69.6927 95.1674 69.3194 95.5129C68.946 95.8473 68.4992 96.1203 67.9788 96.332C67.4696 96.5326 66.904 96.6329 66.2817 96.6329ZM77.4679 96.4324L74.3452 87.4718H75.7878L78.3673 95.3122H77.8581L80.2849 87.4718H81.5577L83.9845 95.3122H83.4753L86.0718 87.4718H87.4972L84.3747 96.4324H83.1019L80.7431 88.759H81.0995L78.7406 96.4324H77.4679ZM93.0824 96.6329C92.2225 96.6329 91.4419 96.4324 90.7405 96.0311C90.039 95.6187 89.479 95.0615 89.0604 94.3594C88.6532 93.6461 88.4495 92.8381 88.4495 91.9354C88.4495 91.0438 88.6532 90.2469 89.0604 89.5448C89.4677 88.8427 90.0164 88.2909 90.7065 87.8898C91.408 87.4774 92.1999 87.2712 93.0824 87.2712C93.9648 87.2712 94.7511 87.4719 95.4413 87.873C96.1427 88.2743 96.6914 88.826 97.0874 89.5281C97.4947 90.2302 97.6984 91.0326 97.6984 91.9354C97.6984 92.8492 97.4891 93.6629 97.0704 94.3762C96.6518 95.0783 96.0918 95.6299 95.3904 96.0311C94.7002 96.4324 93.9309 96.6329 93.0824 96.6329ZM93.0824 95.3792C93.6933 95.3792 94.242 95.2287 94.7285 94.9278C95.2262 94.6269 95.6166 94.2145 95.8994 93.6907C96.1936 93.1668 96.3407 92.5817 96.3407 91.9354C96.3407 91.289 96.1936 90.7095 95.8994 90.1968C95.6166 89.6841 95.2262 89.2773 94.7285 88.9764C94.242 88.6755 93.6933 88.525 93.0824 88.525C92.4714 88.525 91.917 88.6755 91.4193 88.9764C90.9328 89.2773 90.5424 89.6841 90.2483 90.1968C89.9542 90.7095 89.8071 91.289 89.8071 91.9354C89.8071 92.5817 89.9542 93.1668 90.2483 93.6907C90.5424 94.2145 90.9328 94.6269 91.4193 94.9278C91.917 95.2287 92.4714 95.3792 93.0824 95.3792ZM99.943 96.4324V87.4718H101.216V88.943L101.046 88.7257C101.261 88.3021 101.583 87.9678 102.013 87.7226C102.455 87.4774 102.986 87.3549 103.609 87.3549H104.186V88.6086H103.388C102.732 88.6086 102.206 88.8092 101.81 89.2104C101.414 89.6117 101.216 90.1801 101.216 90.9156V96.4324H99.943ZM105.677 96.4324V83.7773H106.95V96.4324H105.677ZM113.662 96.6329C112.813 96.6329 112.05 96.4324 111.371 96.0311C110.692 95.6187 110.155 95.0615 109.759 94.3594C109.374 93.6461 109.182 92.8437 109.182 91.9521C109.182 91.0494 109.374 90.2469 109.759 89.5448C110.155 88.8427 110.686 88.2909 111.354 87.8898C112.033 87.4774 112.802 87.2712 113.662 87.2712C114.443 87.2712 115.138 87.4384 115.749 87.7728C116.36 88.1071 116.841 88.5585 117.192 89.1269L116.988 89.4779V83.7773H118.261V96.4324H116.988V94.4262L117.192 94.6102C116.875 95.2565 116.4 95.7581 115.766 96.1147C115.144 96.4602 114.443 96.6329 113.662 96.6329ZM113.73 95.3792C114.341 95.3792 114.889 95.2287 115.376 94.9278C115.874 94.6269 116.264 94.22 116.547 93.7074C116.841 93.1836 116.988 92.5985 116.988 91.9521C116.988 91.3056 116.841 90.7262 116.547 90.2135C116.264 89.6897 115.874 89.2773 115.376 88.9764C114.889 88.6755 114.341 88.525 113.73 88.525C113.13 88.525 112.587 88.6755 112.101 88.9764C111.614 89.2773 111.23 89.6841 110.947 90.1968C110.675 90.7095 110.539 91.2946 110.539 91.9521C110.539 92.5985 110.675 93.1836 110.947 93.7074C111.23 94.22 111.609 94.6269 112.084 94.9278C112.57 95.2287 113.119 95.3792 113.73 95.3792ZM127.916 96.6329C127.022 96.6329 126.235 96.4267 125.557 96.0143C124.878 95.6021 124.346 95.0448 123.961 94.3427C123.577 93.6294 123.384 92.8269 123.384 91.9354C123.384 91.0438 123.577 90.2469 123.961 89.5448C124.346 88.8427 124.878 88.2909 125.557 87.8898C126.235 87.4774 127.022 87.2712 127.916 87.2712C128.481 87.2712 129.013 87.3716 129.511 87.5721C130.009 87.7728 130.45 88.0458 130.834 88.3913C131.219 88.7257 131.508 89.1157 131.7 89.5615L130.546 90.1466C130.32 89.6675 129.975 89.2773 129.511 88.9764C129.047 88.6755 128.515 88.525 127.916 88.525C127.316 88.525 126.773 88.6755 126.286 88.9764C125.811 89.2661 125.432 89.673 125.149 90.1968C124.878 90.7095 124.742 91.2946 124.742 91.9521C124.742 92.5985 124.878 93.1836 125.149 93.7074C125.432 94.22 125.811 94.6269 126.286 94.9278C126.773 95.2287 127.316 95.3792 127.916 95.3792C128.515 95.3792 129.041 95.2287 129.494 94.9278C129.958 94.6269 130.308 94.2257 130.546 93.7241L131.7 94.3427C131.508 94.7773 131.219 95.1674 130.834 95.5129C130.45 95.8583 130.009 96.1315 129.511 96.332C129.013 96.5326 128.481 96.6329 127.916 96.6329ZM138.192 96.6329C137.334 96.6329 136.553 96.4324 135.85 96.0311C135.15 95.6187 134.589 95.0615 134.171 94.3594C133.764 93.6461 133.56 92.8381 133.56 91.9354C133.56 91.0438 133.764 90.2469 134.171 89.5448C134.579 88.8427 135.127 88.2909 135.817 87.8898C136.519 87.4774 137.311 87.2712 138.192 87.2712C139.075 87.2712 139.861 87.4719 140.551 87.873C141.254 88.2743 141.802 88.826 142.198 89.5281C142.606 90.2302 142.809 91.0326 142.809 91.9354C142.809 92.8492 142.599 93.6629 142.18 94.3762C141.762 95.0783 141.203 95.6299 140.501 96.0311C139.811 96.4324 139.042 96.6329 138.192 96.6329ZM138.192 95.3792C138.803 95.3792 139.353 95.2287 139.839 94.9278C140.337 94.6269 140.727 94.2145 141.01 93.6907C141.304 93.1668 141.452 92.5817 141.452 91.9354C141.452 91.289 141.304 90.7095 141.01 90.1968C140.727 89.6841 140.337 89.2773 139.839 88.9764C139.353 88.6755 138.803 88.525 138.192 88.525C137.582 88.525 137.027 88.6755 136.53 88.9764C136.043 89.2773 135.652 89.6841 135.358 90.1968C135.065 90.7095 134.918 91.289 134.918 91.9354C134.918 92.5817 135.065 93.1668 135.358 93.6907C135.652 94.2145 136.043 94.6269 136.53 94.9278C137.027 95.2287 137.582 95.3792 138.192 95.3792ZM145.053 96.4324V87.4718H146.326V89.2104L146.038 89.1436C146.264 88.5641 146.631 88.1071 147.141 87.7728C147.661 87.4384 148.26 87.2712 148.94 87.2712C149.584 87.2712 150.162 87.4161 150.67 87.7058C151.191 87.9957 151.599 88.3969 151.893 88.9095C152.198 89.4111 152.35 89.9794 152.35 90.6147V96.4324H151.078V91.0996C151.078 90.5535 150.977 90.0909 150.772 89.712C150.581 89.3331 150.303 89.0432 149.942 88.8427C149.59 88.6308 149.183 88.525 148.719 88.525C148.255 88.525 147.842 88.6308 147.481 88.8427C147.118 89.0432 146.836 89.3386 146.631 89.7287C146.428 90.1076 146.326 90.5645 146.326 91.0996V96.4324H145.053ZM155.715 96.4324V88.7257H153.899V87.4718H155.715V86.6694C155.715 86.0453 155.857 85.5214 156.139 85.098C156.423 84.6634 156.796 84.3345 157.26 84.1117C157.723 83.8888 158.222 83.7773 158.753 83.7773C158.866 83.7773 158.996 83.7884 159.143 83.8108C159.29 83.8219 159.409 83.8386 159.499 83.8609V84.9977C159.42 84.9753 159.313 84.9643 159.176 84.9643C159.041 84.9531 158.945 84.9475 158.889 84.9475C158.346 84.9475 157.893 85.0757 157.531 85.332C157.169 85.5884 156.987 86.0342 156.987 86.6694V87.4718H159.211V88.7257H156.987V96.4324H155.715ZM165.071 96.6329C164.223 96.6329 163.454 96.4324 162.763 96.0311C162.084 95.6187 161.546 95.056 161.151 94.3427C160.755 93.6294 160.557 92.8214 160.557 91.9187C160.557 91.0159 160.749 90.2191 161.133 89.5281C161.518 88.826 162.039 88.2743 162.695 87.873C163.363 87.4719 164.109 87.2712 164.935 87.2712C165.591 87.2712 166.174 87.3939 166.684 87.639C167.204 87.873 167.645 88.1962 168.006 88.6086C168.369 89.0099 168.646 89.4668 168.838 89.9794C169.031 90.481 169.127 90.9992 169.127 91.5342C169.127 91.6457 169.122 91.7737 169.11 91.9187C169.099 92.0524 169.082 92.1918 169.059 92.3366H161.371V91.1664H168.329L167.719 91.6679C167.82 91.0549 167.747 90.5088 167.498 90.0296C167.26 89.5393 166.915 89.1547 166.463 88.8762C166.009 88.5863 165.501 88.4414 164.935 88.4414C164.37 88.4414 163.843 88.5863 163.357 88.8762C162.881 89.1659 162.508 89.5726 162.237 90.0964C161.965 90.6092 161.858 91.2221 161.914 91.9354C161.858 92.6487 161.97 93.2728 162.254 93.8077C162.548 94.3315 162.944 94.7383 163.442 95.0281C163.951 95.3179 164.494 95.4627 165.071 95.4627C165.738 95.4627 166.298 95.3067 166.75 94.9946C167.204 94.6826 167.572 94.2925 167.854 93.8244L168.94 94.3928C168.759 94.7941 168.482 95.1674 168.108 95.5129C167.735 95.8473 167.288 96.1203 166.768 96.332C166.258 96.5326 165.692 96.6329 165.071 96.6329ZM171.371 96.4324V87.4718H172.643V88.943L172.473 88.7257C172.689 88.3021 173.011 87.9678 173.442 87.7226C173.883 87.4774 174.414 87.3549 175.036 87.3549H175.613V88.6086H174.816C174.16 88.6086 173.634 88.8092 173.237 89.2104C172.841 89.6117 172.643 90.1801 172.643 90.9156V96.4324H171.371ZM181.245 96.6329C180.398 96.6329 179.628 96.4324 178.937 96.0311C178.259 95.6187 177.721 95.056 177.325 94.3427C176.93 93.6294 176.732 92.8214 176.732 91.9187C176.732 91.0159 176.924 90.2191 177.308 89.5281C177.693 88.826 178.213 88.2743 178.87 87.873C179.538 87.4719 180.284 87.2712 181.11 87.2712C181.766 87.2712 182.349 87.3939 182.858 87.639C183.379 87.873 183.82 88.1962 184.181 88.6086C184.544 89.0099 184.82 89.4668 185.013 89.9794C185.206 90.481 185.302 90.9992 185.302 91.5342C185.302 91.6457 185.296 91.7737 185.284 91.9187C185.274 92.0524 185.256 92.1918 185.234 92.3366H177.546V91.1664H184.503L183.894 91.6679C183.995 91.0549 183.922 90.5088 183.673 90.0296C183.435 89.5393 183.09 89.1547 182.638 88.8762C182.184 88.5863 181.676 88.4414 181.11 88.4414C180.545 88.4414 180.018 88.5863 179.532 88.8762C179.056 89.1659 178.683 89.5726 178.411 90.0964C178.14 90.6092 178.033 91.2221 178.089 91.9354C178.033 92.6487 178.145 93.2728 178.429 93.8077C178.723 94.3315 179.119 94.7383 179.616 95.0281C180.126 95.3179 180.669 95.4627 181.245 95.4627C181.913 95.4627 182.473 95.3067 182.925 94.9946C183.379 94.6826 183.746 94.2925 184.029 93.8244L185.115 94.3928C184.934 94.7941 184.657 95.1674 184.283 95.5129C183.91 95.8473 183.463 96.1203 182.943 96.332C182.433 96.5326 181.867 96.6329 181.245 96.6329ZM187.546 96.4324V87.4718H188.818V89.2104L188.53 89.1436C188.756 88.5641 189.124 88.1071 189.632 87.7728C190.153 87.4384 190.753 87.2712 191.431 87.2712C192.077 87.2712 192.654 87.4161 193.163 87.7058C193.684 87.9957 194.09 88.3969 194.384 88.9095C194.691 89.4111 194.843 89.9794 194.843 90.6147V96.4324H193.57V91.0996C193.57 90.5535 193.468 90.0909 193.265 89.712C193.072 89.3331 192.795 89.0432 192.433 88.8427C192.083 88.6308 191.675 88.525 191.211 88.525C190.748 88.525 190.335 88.6308 189.972 88.8427C189.61 89.0432 189.328 89.3386 189.124 89.7287C188.92 90.1076 188.818 90.5645 188.818 91.0996V96.4324H187.546ZM201.431 96.6329C200.538 96.6329 199.751 96.4267 199.072 96.0143C198.394 95.6021 197.862 95.0448 197.478 94.3427C197.093 93.6294 196.9 92.8269 196.9 91.9354C196.9 91.0438 197.093 90.2469 197.478 89.5448C197.862 88.8427 198.394 88.2909 199.072 87.8898C199.751 87.4774 200.538 87.2712 201.431 87.2712C201.997 87.2712 202.529 87.3716 203.027 87.5721C203.524 87.7728 203.966 88.0458 204.351 88.3913C204.735 88.7257 205.024 89.1157 205.216 89.5615L204.062 90.1466C203.836 89.6675 203.491 89.2773 203.027 88.9764C202.563 88.6755 202.03 88.525 201.431 88.525C200.832 88.525 200.289 88.6755 199.802 88.9764C199.327 89.2661 198.948 89.673 198.665 90.1968C198.394 90.7095 198.258 91.2946 198.258 91.9521C198.258 92.5985 198.394 93.1836 198.665 93.7074C198.948 94.22 199.327 94.6269 199.802 94.9278C200.289 95.2287 200.832 95.3792 201.431 95.3792C202.03 95.3792 202.557 95.2287 203.009 94.9278C203.474 94.6269 203.824 94.2257 204.062 93.7241L205.216 94.3427C205.024 94.7773 204.735 95.1674 204.351 95.5129C203.966 95.8583 203.524 96.1315 203.027 96.332C202.529 96.5326 201.997 96.6329 201.431 96.6329ZM211.59 96.6329C210.741 96.6329 209.972 96.4324 209.282 96.0311C208.604 95.6187 208.066 95.056 207.67 94.3427C207.274 93.6294 207.077 92.8214 207.077 91.9187C207.077 91.0159 207.268 90.2191 207.653 89.5281C208.038 88.826 208.558 88.2743 209.214 87.873C209.881 87.4719 210.629 87.2712 211.454 87.2712C212.111 87.2712 212.694 87.3939 213.202 87.639C213.722 87.873 214.164 88.1962 214.526 88.6086C214.888 89.0099 215.165 89.4668 215.358 89.9794C215.549 90.481 215.645 90.9992 215.645 91.5342C215.645 91.6457 215.64 91.7737 215.629 91.9187C215.617 92.0524 215.601 92.1918 215.579 92.3366H207.891V91.1664H214.848L214.237 91.6679C214.339 91.0549 214.265 90.5088 214.016 90.0296C213.78 89.5393 213.435 89.1547 212.981 88.8762C212.529 88.5863 212.02 88.4414 211.454 88.4414C210.888 88.4414 210.363 88.5863 209.876 88.8762C209.401 89.1659 209.028 89.5726 208.756 90.0964C208.485 90.6092 208.377 91.2221 208.434 91.9354C208.377 92.6487 208.49 93.2728 208.772 93.8077C209.067 94.3315 209.463 94.7383 209.961 95.0281C210.47 95.3179 211.013 95.4627 211.59 95.4627C212.258 95.4627 212.818 95.3067 213.27 94.9946C213.722 94.6826 214.09 94.2925 214.374 93.8244L215.46 94.3928C215.278 94.7941 215.001 95.1674 214.628 95.5129C214.255 95.8473 213.808 96.1203 213.288 96.332C212.778 96.5326 212.212 96.6329 211.59 96.6329ZM221.046 96.6329C220.175 96.6329 219.412 96.4156 218.755 95.981C218.1 95.5464 217.623 94.9556 217.331 94.209L218.399 93.7074C218.659 94.2535 219.021 94.6881 219.485 95.0113C219.96 95.3345 220.48 95.4962 221.046 95.4962C221.589 95.4962 222.048 95.368 222.421 95.1117C222.794 94.8441 222.981 94.4987 222.981 94.0752C222.981 93.7631 222.89 93.518 222.71 93.3396C222.529 93.1501 222.319 93.0053 222.081 92.9049C221.844 92.8047 221.634 92.7322 221.454 92.6877L220.147 92.3198C219.31 92.0858 218.704 91.757 218.331 91.3336C217.958 90.91 217.771 90.4196 217.771 89.8624C217.771 89.3386 217.907 88.8817 218.179 88.4916C218.45 88.1015 218.818 87.8006 219.282 87.5888C219.746 87.3771 220.26 87.2712 220.825 87.2712C221.596 87.2712 222.291 87.4719 222.913 87.873C223.547 88.2631 223.994 88.8092 224.254 89.5113L223.167 90.0129C222.941 89.5113 222.613 89.1214 222.184 88.8427C221.766 88.5529 221.295 88.4081 220.774 88.4081C220.266 88.4081 219.858 88.5361 219.553 88.7925C219.247 89.0489 219.095 89.3721 219.095 89.7622C219.095 90.0631 219.174 90.3026 219.333 90.481C219.491 90.6593 219.672 90.793 219.876 90.8822C220.091 90.9714 220.277 91.0382 220.436 91.0828L221.946 91.5175C222.682 91.7292 223.253 92.0579 223.659 92.5037C224.078 92.9496 224.288 93.4734 224.288 94.0752C224.288 94.5656 224.146 95.0058 223.864 95.3959C223.592 95.7859 223.213 96.0925 222.727 96.3152C222.24 96.5271 221.68 96.6329 221.046 96.6329Z" fill="currentColor"/>
</svg>
