<svg viewBox="0 0 116 49" fill="none" xmlns="http://www.w3.org/2000/svg">
    <path d="M95.4521 31.7256H81.4476L80.6641 35.6996H94.6685L95.4521 31.7256Z" fill="#0086FF"/>
    <path d="M93.856 39.9122L94.6681 35.696H80.6636L79.8516 39.9122H93.856Z" fill="#FFE000"/>
    <path d="M52.6435 19.0408L51.8672 23.1147H55.9263L56.7099 19.0408H52.6435Z" fill="currentColor"/>
    <path d="M54.6706 8.51343C54.6706 8.51343 53.7574 13.2497 53.0078 17.1385L61.7246 17.1314C62.2716 17.1314 62.6819 17.6285 62.5795 18.1655L62.4526 18.7182C62.3542 19.2282 61.9084 19.5971 61.3882 19.5971L58.5759 19.6085L57.9077 23.1112L63.3103 23.1126C65.0158 23.1183 66.4832 21.9161 66.8067 20.2424C66.9249 19.6313 67.0532 18.9917 67.1701 18.3849C67.4506 16.9248 66.2611 15.8294 64.7735 15.8294L64.8661 15.3508C66.4064 15.2967 67.492 14.5132 67.7841 12.9891L67.9936 11.8295C68.3227 10.1145 67.0075 8.51485 65.2609 8.51485L54.6706 8.51343ZM63.0695 12.8253L63.0254 13.1315C62.9156 13.7055 62.414 14.1201 61.8299 14.1215L58.2524 14.1272L58.6714 11.925L62.3202 11.9221C62.7987 11.9207 63.1593 12.3566 63.0695 12.8253Z" fill="currentColor"/>
    <path d="M83.204 8.51343L82.4844 12.207H86.3283L84.2341 23.1055H88.9556L91.0544 12.207H94.9041L95.6093 8.51343H83.204Z" fill="currentColor"/>
    <path d="M41.9513 14.8166C42.2348 13.311 43.2179 12.2227 45.0858 12.2227L52.1398 12.2298L52.8548 8.52056L43.8747 8.51343C40.763 8.51058 38.4834 9.71994 37.5003 13.7725C37.1712 15.1286 36.9518 16.62 36.6882 17.9917C36.1796 20.6312 38.197 23.1112 40.887 23.1198H50.0381L51.7764 14.13H44.3705L43.7764 17.1413H46.8253L46.3893 19.3692H43.4202C41.4184 19.3692 41.2759 18.2581 41.5025 17.0573L41.9513 14.8166Z" fill="currentColor"/>
    <path d="M26.0592 14.8166C26.3427 13.311 27.3258 12.2227 29.1937 12.2227L36.2491 12.2298L36.9686 8.52056L27.9841 8.51343C24.8724 8.51058 22.5928 9.71994 21.6097 13.7725C21.2806 15.1286 21.0611 16.62 20.7976 17.9917C20.2889 20.6312 22.3064 23.1112 24.9963 23.1198H34.1476L35.8858 14.13H28.4784L27.8843 17.1428H30.9333L30.4973 19.3706H27.5296C25.5278 19.3706 25.3853 18.2595 25.6118 17.0587L26.0592 14.8166Z" fill="currentColor"/>
    <path d="M67.8946 21.2584C67.7137 22.217 68.4503 23.1045 69.4263 23.1045H80.2303L80.9284 19.4522H72.8187L73.2705 17.1146H79.1617L79.7288 14.119H73.8488L74.2177 12.2102H81.3416L82.0511 8.53516H72.2717C71.1746 8.53516 70.1871 9.32715 69.9848 10.4055L67.8946 21.2584Z" fill="currentColor"/>
    <path d="M31.1379 32.8215H28.1016V34.3739H31.1379V32.8215Z" fill="currentColor"/>
    <path d="M56.9193 32.8215H53.8828V34.3739H56.9193V32.8215Z" fill="currentColor"/>
    <path d="M23.315 29.0466L21.2031 39.9111H77.7423L79.8544 29.0466H23.315ZM32.1473 37.0429H31.1422V35.2932H28.1059V37.0429H27.1009V32.8888C27.1009 32.7445 27.1465 32.6299 27.2526 32.5238L27.709 32.0675C27.8151 31.9614 27.9297 31.9158 28.074 31.9158H31.172C31.3163 31.9158 31.431 31.9614 31.5371 32.0675L31.9934 32.5238C32.0997 32.6299 32.1451 32.7445 32.1451 32.8888V37.0429H32.1473ZM37.5653 32.8273H34.2922V34.0602H37.0325V34.9738H34.2922V37.044H33.2871V32.8888C33.2871 32.7445 33.3328 32.6299 33.4389 32.5238L33.8954 32.0675C34.0015 31.9614 34.1162 31.9158 34.2604 31.9158H37.5632V32.8273H37.5653ZM42.718 32.8273H39.4449V34.0602H42.1852V34.9738H39.4449V37.044H38.4398V32.8888C38.4398 32.7445 38.4855 32.6299 38.5916 32.5238L39.0479 32.0675C39.1542 31.9614 39.2687 31.9158 39.4131 31.9158H42.7159V32.8273H42.718ZM44.5965 37.0429H43.5915V31.9147H44.5965V37.0429ZM49.7874 37.0429H46.7129C46.5684 37.0429 46.4538 36.9973 46.3477 36.8912L45.8913 36.4349C45.7852 36.3288 45.7396 36.2142 45.7396 36.0699V31.9147H46.7446V36.1304H49.7895V37.0429H49.7874ZM51.7423 37.0429H50.7373V31.9147H51.7423V37.0429ZM57.9299 37.0429H56.9248V35.2932H53.8883V37.0429H52.8833V32.8888C52.8833 32.7445 52.9289 32.6299 53.035 32.5238L53.4914 32.0675C53.5975 31.9614 53.7121 31.9158 53.8566 31.9158H56.9544C57.0989 31.9158 57.2134 31.9614 57.3195 32.0675L57.776 32.5238C57.8821 32.6299 57.9277 32.7445 57.9277 32.8888V37.0429H57.9299ZM63.5685 32.8273H61.5743V37.0429H60.5692V32.8273H58.575V31.9137H63.5685V32.8273ZM68.6065 32.8273H65.3335V33.9159H68.0739V34.8295H65.3335V36.1304H68.6065V37.044H65.3027C65.1584 37.044 65.0438 36.9984 64.9377 36.8923L64.4813 36.436C64.3751 36.3299 64.3296 36.2153 64.3296 36.071V32.8888C64.3296 32.7445 64.3751 32.6299 64.4813 32.5238L64.9377 32.0675C65.0438 31.9614 65.1584 31.9158 65.3027 31.9158H68.6055V32.8273H68.6065ZM73.9185 32.8273H70.638V33.969H72.9441C73.0886 33.969 73.2032 34.0146 73.3093 34.1207L73.7657 34.577C73.8718 34.6831 73.9174 34.7977 73.9174 34.942V36.0678C73.9174 36.2195 73.8718 36.3267 73.7657 36.4328L73.3093 36.8891C73.2032 36.9952 73.0886 37.0408 72.9441 37.0408H69.6328V36.1272H72.9134V34.8826H70.6146C70.4702 34.8826 70.3555 34.837 70.2494 34.7309L69.7931 34.2746C69.687 34.1685 69.6414 34.0539 69.6414 33.9096V32.8899C69.6414 32.753 69.6795 32.631 69.7858 32.5249L70.2421 32.0686C70.3482 31.9625 70.4629 31.9169 70.6072 31.9169H73.9185V32.8273Z" fill="currentColor"/>
</svg>
