<svg viewBox="0 0 116 49" fill="none" xmlns="http://www.w3.org/2000/svg">
    <path d="M38.3125 17.5403H40.0634V25.8763H38.3125V17.5403Z" fill="currentColor"/>
    <path d="M34.1541 26.0456C33.8227 26.0851 33.5351 26.1078 33.2912 26.1078C32.5721 26.1078 31.9405 26.0229 31.409 25.8362C30.8712 25.6607 30.4397 25.4174 30.1021 25.1118C29.7707 24.8005 29.5205 24.4553 29.3704 24.0648C29.2078 23.6743 29.1328 23.2612 29.1328 22.8254C29.1328 21.8294 29.508 21.0315 30.2459 20.4429C30.9963 19.8487 32.0093 19.5544 33.2975 19.5544C33.6101 19.5544 33.9478 19.5827 34.3167 19.645C34.6857 19.7072 35.0609 19.8204 35.4423 19.9902C35.8175 20.16 36.1489 20.4033 36.4366 20.7202C36.718 21.0371 36.8993 21.4389 36.9868 21.92H35.161C35.0921 21.5974 34.8921 21.3258 34.5482 21.1051C34.2042 20.8843 33.7852 20.7712 33.2975 20.7712C32.5346 20.7712 31.953 20.9749 31.5591 21.371C31.1526 21.7672 30.9588 22.2595 30.9588 22.8311C30.9588 23.1028 30.9963 23.3573 31.0838 23.6064C31.1713 23.8554 31.3027 24.0762 31.4778 24.2685C31.6591 24.4553 31.878 24.6081 32.1531 24.7213C32.422 24.8345 32.7409 24.8854 33.1036 24.8854C33.7415 24.8854 34.198 24.7835 34.473 24.5741C34.7544 24.3704 34.992 24.0308 35.1922 23.5442H37.0244C36.9306 24.1271 36.718 24.5968 36.3865 24.9589C36.0489 25.3155 35.68 25.5758 35.2672 25.7399C34.8545 25.9041 34.4855 26.0003 34.1541 26.0456Z" fill="currentColor"/>
    <path d="M43.4165 17.5403H41.6719V18.8249H43.4165V17.5403Z" fill="currentColor"/>
    <path d="M41.6719 19.7864H43.4165V25.87H41.6719V19.7864Z" fill="currentColor"/>
    <path d="M49.8495 24.5741C49.5745 24.7778 49.1117 24.8853 48.4801 24.8853C48.1174 24.8853 47.8048 24.8344 47.5359 24.7213C47.2607 24.6081 47.0419 24.4553 46.8606 24.2686C46.6792 24.0761 46.5479 23.8554 46.4666 23.6064C46.3853 23.3574 46.3415 23.1027 46.3415 22.8311C46.3415 22.2595 46.5417 21.7672 46.9419 21.371C47.3358 20.9749 47.9111 20.7712 48.674 20.7712C49.1617 20.7712 49.5807 20.8843 49.9247 21.1051C50.2686 21.3257 50.4749 21.5974 50.5437 21.92H52.3697C52.2882 21.4389 52.0944 21.0371 51.8132 20.7202C51.5319 20.4033 51.2003 20.16 50.8126 19.9902C50.4375 19.8204 50.0622 19.7072 49.6933 19.645C49.3243 19.5827 48.9866 19.5544 48.674 19.5544C47.3859 19.5544 46.3728 19.8487 45.6287 20.4429C44.8908 21.0315 44.5156 21.8294 44.5156 22.8254C44.5156 23.2612 44.5969 23.6743 44.7532 24.0648C44.9095 24.4553 45.1535 24.8005 45.4911 25.1117C45.8225 25.4173 46.2603 25.6607 46.7981 25.8361C47.3295 26.0115 47.9611 26.0965 48.6802 26.0965C48.9241 26.0965 49.2118 26.0738 49.5432 26.0342C49.8746 25.989 50.2436 25.8927 50.6562 25.7286C51.0689 25.5645 51.4378 25.3042 51.7694 24.9476C52.1005 24.5855 52.3198 24.1157 52.4134 23.5328H50.5875C50.3748 24.0252 50.131 24.3705 49.8495 24.5741Z" fill="currentColor"/>
    <path d="M56.2967 23.0976L55.1898 23.9125V25.8763H53.4453V17.5403H55.1898V22.2261L58.2978 19.787H60.7739L57.6663 22.0846L61.0365 25.8763H58.6792L56.2967 23.0976Z" fill="currentColor"/>
    <path fill-rule="evenodd" clip-rule="evenodd" d="M63.4476 25.8253C62.9726 25.6386 62.5912 25.3952 62.2848 25.0783C61.9844 24.767 61.7595 24.4218 61.6156 24.037C61.4656 23.6579 61.3906 23.2617 61.3906 22.8543C61.3906 22.4581 61.4591 22.0676 61.6156 21.6828C61.7655 21.298 61.9844 20.9528 62.2908 20.6415C62.5912 20.3302 62.9726 20.0869 63.4415 19.9002C63.9105 19.7191 64.4544 19.6285 65.0738 19.6285C65.6303 19.6285 66.1365 19.7134 66.5933 19.8832C67.0497 20.053 67.3934 20.3133 67.6435 20.6642H67.6751V17.5403H69.4261V25.8763H67.6751V25.0387H67.6435C67.6123 25.1405 67.5186 25.248 67.3748 25.367C67.2309 25.4914 67.0432 25.6046 66.8122 25.7178C66.5742 25.831 66.3055 25.9215 66.0117 25.9951C65.7113 26.0687 65.3988 26.1026 65.0673 26.1026C64.4484 26.1026 63.9105 26.0121 63.4476 25.8253ZM63.7415 21.4564C63.5603 21.6488 63.4229 21.8639 63.3414 22.1016C63.2604 22.3449 63.2162 22.5939 63.2101 22.8543C63.2101 23.1259 63.2478 23.3749 63.3353 23.6183C63.4164 23.8616 63.5542 24.0767 63.7354 24.269C63.9166 24.4615 64.148 24.6086 64.4419 24.7218C64.7361 24.835 65.0798 24.8859 65.4799 24.8859C65.8739 24.8859 66.218 24.835 66.5057 24.7218C66.7996 24.6086 67.031 24.4615 67.2122 24.269C67.3934 24.0709 67.5312 23.8559 67.6123 23.6183C67.6937 23.3749 67.7375 23.1259 67.7375 22.8543C67.7375 22.5826 67.6998 22.3336 67.6123 22.0959C67.5312 21.8582 67.3934 21.6432 67.2122 21.4564C67.031 21.2697 66.7931 21.1169 66.5057 21.0094C66.2119 20.9018 65.8678 20.8453 65.4799 20.8453C65.0863 20.8453 64.7361 20.9018 64.4483 21.0094C64.1606 21.1169 63.9231 21.2697 63.7415 21.4564Z" fill="currentColor"/>
    <path fill-rule="evenodd" clip-rule="evenodd" d="M76.4621 19.8318C76.9874 20.0185 77.4191 20.2675 77.7502 20.5901C78.0757 20.9127 78.3132 21.2749 78.4822 21.688C78.6383 22.0954 78.7197 22.5369 78.7197 23.0009V23.2386H72.3789C72.385 23.431 72.4288 23.6234 72.5163 23.8158C72.6039 24.0139 72.7352 24.195 72.9042 24.3704C73.0793 24.5402 73.3107 24.6817 73.6107 24.7949C73.8985 24.9024 74.2487 24.959 74.6552 24.959C75.2052 24.959 75.6182 24.8798 75.9182 24.7326C76.2246 24.5798 76.4686 24.3648 76.6623 24.0818H78.5633C78.4384 24.3082 78.2881 24.5232 78.113 24.7439C77.9444 24.9646 77.7068 25.1797 77.4126 25.3834C77.1126 25.5872 76.7438 25.7626 76.2935 25.8985C75.8371 26.0342 75.3118 26.1021 74.7115 26.1021C73.9799 26.1021 73.3545 26.0173 72.8167 25.8419C72.2727 25.6607 71.8411 25.4231 71.5099 25.1231C71.1784 24.8175 70.9408 24.4779 70.7779 24.0931C70.6219 23.7083 70.5469 23.3065 70.5469 22.8877C70.5469 22.3897 70.6405 21.937 70.8342 21.5238C71.0284 21.1107 71.3032 20.7599 71.6599 20.4656C72.0226 20.1713 72.4478 19.9506 72.948 19.7921C73.4546 19.6337 73.9986 19.5544 74.5924 19.5544C75.3118 19.5544 75.9307 19.6507 76.4621 19.8318ZM72.7166 21.4616C72.5475 21.6653 72.4353 21.92 72.3664 22.22V22.2256H76.8873C76.8374 21.9313 76.7312 21.6823 76.5748 21.4786C76.4183 21.2749 76.2372 21.1107 76.0122 20.9863C75.7868 20.8617 75.5619 20.7712 75.324 20.7203C75.0804 20.6693 74.8489 20.641 74.6114 20.641C74.3925 20.641 74.1672 20.6637 73.9358 20.7203C73.7108 20.7712 73.4919 20.8561 73.2731 20.9749C73.0607 21.0938 72.873 21.2579 72.7166 21.4616Z" fill="currentColor"/>
    <path fill-rule="evenodd" clip-rule="evenodd" d="M88.0826 25.9041V24.7892C88.0575 24.7917 88.0255 24.7942 87.9874 24.7972C87.9387 24.8009 87.8799 24.8055 87.8135 24.8118C87.7008 24.8232 87.6007 24.8232 87.5196 24.8232C87.4134 24.8232 87.3259 24.8005 87.2509 24.7609C87.1755 24.7157 87.1382 24.6251 87.1382 24.4779V21.5974C87.1382 21.3258 87.107 21.0881 87.0507 20.873C86.9882 20.658 86.8444 20.4486 86.6129 20.2506C86.3815 20.0468 86.0126 19.877 85.5125 19.7525C85.0119 19.6224 84.3492 19.5544 83.524 19.5544C82.4669 19.5544 81.6352 19.7129 81.0475 20.0242C80.4537 20.3354 80.0909 20.8787 79.9783 21.6427H81.6915C81.7544 20.9693 82.3733 20.6354 83.5301 20.6354C84.1117 20.6354 84.5807 20.7033 84.9183 20.8278C85.262 20.958 85.431 21.1843 85.431 21.5069C85.431 21.6257 85.3998 21.7276 85.3435 21.7955C85.281 21.8691 85.1684 21.9313 84.9872 21.9823C84.8121 22.0332 84.5555 22.0785 84.2179 22.1181C83.8863 22.1577 83.3675 22.2143 82.6546 22.2709H82.642C82.2294 22.3048 81.8731 22.3444 81.5728 22.3954C81.2724 22.4463 80.9664 22.5369 80.6722 22.667C80.3722 22.7972 80.1221 22.9896 79.9284 23.2329C79.7343 23.482 79.6406 23.8046 79.6406 24.1894C79.6406 24.7892 79.8781 25.2533 80.3536 25.5928C80.8286 25.9267 81.5039 26.0965 82.3733 26.0965C82.8297 26.0965 83.2423 26.0682 83.599 26.0173C83.9678 25.9663 84.2742 25.8927 84.5182 25.8079C84.7683 25.7173 84.9746 25.6325 85.1246 25.5419C85.281 25.457 85.4184 25.3608 85.5246 25.2589C85.5437 25.3494 85.5688 25.4344 85.6 25.5135C85.6312 25.5928 85.6937 25.672 85.7873 25.7569C85.8813 25.8419 86.0126 25.9097 86.1877 25.9607C86.3628 26.0173 86.5817 26.0399 86.8379 26.0399C87.0507 26.0399 87.2318 26.0342 87.3757 26.0173C87.5257 26.0002 87.6947 25.972 87.8885 25.938C87.976 25.921 88.0384 25.9097 88.0826 25.9041ZM85.3812 23.4253C85.3812 23.7366 85.2936 24.0082 85.1311 24.2289C84.9685 24.4497 84.7558 24.6251 84.4931 24.7439C84.2365 24.8628 83.9678 24.9533 83.68 25.0099C83.3927 25.0665 83.1175 25.0891 82.8609 25.0891C82.6858 25.0891 82.5233 25.0778 82.3607 25.0495C82.1982 25.0212 82.0543 24.9759 81.9104 24.9024C81.7665 24.8345 81.6603 24.7383 81.5728 24.6081C81.4852 24.4836 81.4475 24.3251 81.4475 24.1328C81.4475 23.8668 81.5541 23.6631 81.7917 23.5272C82.0231 23.3858 82.4483 23.2839 83.0923 23.216C83.8053 23.1367 84.3115 23.0801 84.5993 23.0405C84.8871 22.9952 85.1497 22.9274 85.3872 22.8368L85.3812 23.4253Z" fill="currentColor"/>
    <path d="M88.9062 17.5403H90.6511V25.8763H88.9062V17.5403Z" fill="currentColor"/>
    <path fill-rule="evenodd" clip-rule="evenodd" d="M92.8693 25.1174C93.2004 25.4231 93.626 25.6607 94.17 25.8361C94.7013 26.0116 95.3328 26.0965 96.0644 26.0965C96.6647 26.0965 97.19 26.0286 97.6468 25.8927C98.0906 25.7569 98.472 25.5815 98.7659 25.3778C99.0597 25.174 99.2976 24.959 99.4727 24.7383C99.6414 24.5232 99.7913 24.3025 99.9166 24.0762H98.0156C97.8219 24.3591 97.5779 24.5742 97.2715 24.727C96.9776 24.8741 96.5585 24.9533 96.0085 24.9533C95.608 24.9533 95.2518 24.8968 94.964 24.7892C94.664 24.676 94.4326 24.5345 94.2575 24.3648C94.0885 24.1894 93.9511 24.0082 93.8696 23.8102C93.7821 23.6177 93.7322 23.4253 93.7257 23.2329H100.073V23.0009C100.073 22.5369 99.9916 22.0954 99.8355 21.688C99.6851 21.2805 99.4411 20.9127 99.11 20.5901C98.7784 20.2675 98.3533 20.0185 97.8219 19.8318C97.2966 19.6507 96.6712 19.5544 95.9521 19.5544C95.358 19.5544 94.814 19.6337 94.3199 19.7921C93.8133 19.9506 93.3881 20.1713 93.0253 20.4656C92.6691 20.7542 92.3939 21.1107 92.2001 21.5238C91.9999 21.937 91.9062 22.3897 91.9062 22.8877C91.9062 23.3065 91.9812 23.7083 92.1438 24.0931C92.2941 24.4723 92.5377 24.8118 92.8693 25.1174ZM94.0759 21.456C94.2324 21.2522 94.42 21.0881 94.6389 20.9693C94.8578 20.8504 95.0767 20.7655 95.3016 20.7146C95.533 20.658 95.7584 20.6354 95.9769 20.6354C96.2148 20.6354 96.4523 20.6637 96.6837 20.7146C96.9213 20.7655 97.1466 20.8561 97.3716 20.9806C97.5904 21.1051 97.7781 21.2692 97.9342 21.4729C98.0906 21.6767 98.1968 21.9257 98.2531 22.22H93.7322C93.7946 21.92 93.9073 21.6653 94.0759 21.456Z" fill="currentColor"/>
    <path d="M105.573 19.627C105.779 19.627 106.017 19.6439 106.267 19.6836L106.272 21.2455C106.066 21.1833 105.879 21.1436 105.704 21.1267C105.535 21.104 105.347 21.0984 105.159 21.0984C104.91 21.0984 104.666 21.1267 104.422 21.1889C104.178 21.2455 103.947 21.353 103.728 21.4945C103.515 21.6473 103.34 21.8341 103.209 22.0717C103.077 22.3094 103.009 22.5924 103.009 22.9319V25.869H101.258V19.7854H103.009V20.9682H103.034C103.316 20.5664 103.652 20.2382 104.046 19.9948C104.453 19.7515 104.954 19.627 105.573 19.627Z" fill="currentColor"/>
    <path d="M29.9164 28.8401L21.8567 26.9014L18.4375 27.6284L20.1471 30.5366L29.9164 28.8401Z" fill="currentColor"/>
    <path d="M15.0212 21.5682L10.625 14.0554L13.3116 36.8359L15.9981 29.8079L15.0212 21.5682Z" fill="currentColor"/>
    <path d="M20.151 30.5339L18.4414 27.6257L15.9991 29.8068L13.3125 36.8349L20.151 30.5339Z" fill="currentColor"/>
    <path d="M20.151 30.5339L18.4414 27.6257L15.9991 29.8068L13.3125 36.8349L20.151 30.5339Z" fill="currentColor"/>
    <path d="M15.0212 21.5682L10.625 14.0554L29.9194 28.8385L21.8597 26.8997L15.0212 21.5682Z" fill="currentColor"/>
</svg>
