<svg viewBox="0 0 116 49" fill="none" xmlns="http://www.w3.org/2000/svg">
    <path fill-rule="evenodd" clip-rule="evenodd" d="M93.9929 24.9339C94.0118 24.9776 94.02 25.0253 94.0168 25.0729V25.1333C94.0168 25.1743 94.0168 25.2014 94.023 25.2167C94.0285 25.2397 94.0381 25.257 94.0565 25.2668V25.2904H93.858C93.8531 25.2744 93.8492 25.2582 93.8463 25.2417C93.8429 25.2167 93.8388 25.1917 93.8388 25.1646V25.0812C93.8374 25.0249 93.8279 24.986 93.8094 24.9665C93.7902 24.9471 93.7566 24.9374 93.706 24.9374H93.53V25.2862H93.3534V24.3967H93.7662C93.8237 24.3967 93.871 24.4064 93.9011 24.4203C93.9326 24.4335 93.9593 24.4551 93.9812 24.4822C94.0189 24.53 94.0401 24.5891 94.0415 24.6504C94.0415 24.6934 94.0305 24.7337 94.01 24.7747C93.9882 24.8165 93.951 24.848 93.9066 24.8623C93.9413 24.8758 93.9708 24.9001 93.9908 24.9318L93.9929 24.9339ZM93.8107 24.569C93.7849 24.5577 93.7568 24.5524 93.7286 24.5538H93.53V24.7921H93.7231C93.7525 24.7939 93.782 24.7892 93.8094 24.7782C93.8429 24.7615 93.86 24.7282 93.86 24.6775C93.86 24.6232 93.8429 24.5871 93.8107 24.569ZM92.9281 24.8797C92.9281 25.3001 93.2582 25.6413 93.6649 25.6413V25.9186C93.1096 25.9186 92.6597 25.453 92.6597 24.8797C92.6597 24.3057 93.1096 23.8408 93.6649 23.8408V24.1173C93.2582 24.1173 92.9281 24.4585 92.9281 24.8797ZM91.5163 28.0764C91.5163 29.289 90.4796 29.968 89.1917 29.968C88.3741 29.968 87.5566 29.551 86.9116 28.8839L88.029 27.7289C88.3515 28.134 88.813 28.4426 89.1917 28.4794C89.5724 28.5142 89.8942 28.3474 89.951 28.1688C90.0893 27.7171 89.2944 27.6921 89.0527 27.6226C88.1434 27.3377 87.0841 26.9436 87.0841 25.7768C87.0841 24.3849 88.4885 23.9082 89.1917 23.9082C89.9976 23.9082 90.8144 24.2883 91.4711 24.9804L90.3673 26.1222C90.0667 25.7171 89.5498 25.3953 89.193 25.3953C89.0095 25.3953 88.6405 25.4669 88.6405 25.847C88.6405 26.5489 91.5183 26.2153 91.5183 28.0722L91.5163 28.0764ZM84.8212 29.4815C84.613 29.7546 84.0269 29.9701 83.6476 29.9701C81.9789 29.9701 80.7588 28.6844 80.7588 26.9457C80.7588 25.207 81.8632 23.9102 83.5332 23.9102C83.9009 23.9102 84.6267 24.1118 84.8232 24.3988V21.2334H86.4035V29.8748H84.8232V29.4815H84.8212ZM83.7619 25.2438C83.0477 25.2438 82.4726 26.0055 82.4726 26.9464C82.4726 27.886 83.0477 28.6365 83.7619 28.6365C84.5459 28.6365 85.0519 27.731 85.0519 26.9457C85.0519 26.1604 84.5569 25.2438 83.7619 25.2438ZM78.4622 29.4579C78.1979 29.7428 77.7255 29.9582 77.1969 29.9582C75.6426 29.9582 75.0442 29.2445 75.0442 28.1493C75.0442 26.911 76.0117 26.0791 77.5776 26.0791H78.4643C78.4643 25.6392 78.1418 25.3522 77.6577 25.3522C77.1743 25.3522 76.9209 25.4474 76.6683 25.7324L75.4023 24.9818C76.0363 24.2438 76.8874 23.8984 77.7741 23.8984C79.4783 23.8984 80.1679 24.8616 80.1679 25.7678V29.8728H78.4643V29.4558L78.4622 29.4579ZM78.4622 27.4113H77.4612C77.0127 27.4113 76.6772 27.7331 76.747 28.1848C76.7936 28.5065 77.0688 28.6365 77.4612 28.6365C78.2089 28.6365 78.4622 28.1959 78.4622 27.9346V27.4113ZM74.5183 27.339H70.4662C70.4662 28.0291 71.1447 28.5176 71.7089 28.5176C72.2738 28.5176 72.7682 28.2911 73.0331 27.7907L74.1725 28.8748C73.7117 29.5183 73.0106 29.9701 71.7089 29.9701C69.8438 29.9701 68.7037 28.6844 68.7037 26.9457C68.7037 25.207 69.8082 23.9102 71.6042 23.9102C73.4002 23.9102 74.5176 25.1841 74.5176 26.9457L74.5183 27.339ZM71.6042 25.364C70.9818 25.364 70.6031 25.7087 70.4997 26.2209H72.7326C72.6408 25.6608 72.2492 25.364 71.6042 25.364ZM63.6499 29.8853H61.9456V29.4683C61.6813 29.7532 61.2089 29.9687 60.6803 29.9687C59.126 29.9687 58.5282 29.255 58.5282 28.1598C58.5282 26.9214 59.4957 26.0896 61.061 26.0896H61.9477C61.9477 25.6497 61.6252 25.3627 61.1411 25.3627C60.6577 25.3627 60.4043 25.4579 60.1517 25.7428L58.8863 24.9923C59.5197 24.2542 60.3708 23.9089 61.2575 23.9089C62.9624 23.9089 63.6519 24.8727 63.6519 25.7782V29.8832L63.6499 29.8853ZM61.9456 27.4217H60.9446C60.4968 27.4217 60.1606 27.7435 60.2304 28.1952C60.277 28.517 60.5522 28.6469 60.9446 28.6469C61.693 28.6469 61.9456 28.2063 61.9456 27.945V27.4217ZM58.4515 25.4092C58.0263 25.2195 57.9455 25.2542 57.749 25.2542C57.0588 25.2542 56.6555 25.6344 56.6555 26.576V29.8853H54.952V24.002H56.6555V24.5253C56.8746 24.1201 57.4731 23.9186 57.8538 23.9186C58.2098 23.9186 58.418 23.9304 58.6823 24.0854L58.4515 25.4071V25.4092ZM53.5921 25.2542C52.9026 25.2542 52.4993 25.6344 52.4993 26.576V29.8853H50.7951V24.002H52.5V24.5253C52.7191 24.1201 53.3169 23.9186 53.6976 23.9186C54.0536 23.9186 54.2618 23.9304 54.5261 24.0854L54.2953 25.4071C53.8701 25.2174 53.7886 25.2522 53.5921 25.2522V25.2542ZM47.2558 28.5281C47.8084 28.5281 48.3151 28.3015 48.5794 27.8012L49.7194 28.8853C49.2579 29.5288 48.5568 29.9805 47.2558 29.9805C45.39 29.9805 44.2499 28.6949 44.2499 26.9561C44.2499 25.2174 45.3544 23.9207 47.151 23.9207C48.947 23.9207 50.0638 25.1945 50.0638 26.9561V27.3495H46.0124C46.0124 28.0402 46.6916 28.5281 47.2558 28.5281ZM48.2794 26.2313C48.1877 25.6712 47.7954 25.3745 47.151 25.3745C46.506 25.3745 46.1493 25.7199 46.0466 26.2313H48.2794ZM42.3923 27.3863C42.3923 27.8151 42.3813 28.5281 43.0154 28.5281C43.3468 28.5281 43.7576 28.4586 43.7576 28.4586L43.7384 29.6837C43.4741 29.8387 43.1516 29.9826 42.8072 29.9826C41.3447 29.9826 40.688 29.3384 40.688 27.3863V25.4579H40.0547V24.0055H40.688V22.3126H42.393V24.0027H43.8733V25.4551H42.3923V27.3863ZM66.3052 21.1159H67.9622V29.8776H66.3052V21.1159Z" fill="currentColor"/>
    <path d="M26.9386 34.4813C26.8383 34.4802 26.7424 34.4388 26.6721 34.3661C26.6018 34.2934 26.5627 34.1954 26.5634 34.0935V16.8009C26.5634 16.5868 26.7325 16.4131 26.9393 16.4131C27.1454 16.4131 27.3145 16.5875 27.3145 16.8009V34.0935C27.3153 34.1954 27.2762 34.2934 27.2059 34.3661C27.1355 34.4388 27.039 34.4802 26.9386 34.4813ZM28.7949 23.9385C28.6945 23.9374 28.5987 23.896 28.5283 23.8233C28.458 23.7506 28.4189 23.6526 28.4197 23.5507V19.4659C28.4197 19.2526 28.5881 19.0781 28.7949 19.0781C29.0003 19.0781 29.1694 19.2526 29.1694 19.4659V23.5486C29.1701 23.6504 29.1312 23.7483 29.061 23.821C28.9908 23.8936 28.8951 23.9351 28.7949 23.9364V23.9378V23.9385ZM28.7949 34.4813C28.6945 34.4802 28.5987 34.4388 28.5283 34.3661C28.458 34.2934 28.4189 34.1954 28.4197 34.0935V30.0115C28.4197 29.7982 28.5881 29.6237 28.7949 29.6237C29.0003 29.6237 29.1694 29.7975 29.1694 30.0115V34.0935C29.1701 34.1953 29.1312 34.2932 29.061 34.3659C28.9908 34.4385 28.8951 34.48 28.7949 34.4813ZM23.2268 23.9385C23.1263 23.9374 23.0304 23.8959 22.96 23.823C22.8897 23.7502 22.8507 23.652 22.8516 23.55V19.4659C22.8516 19.2526 23.02 19.0781 23.2268 19.0781C23.4322 19.0781 23.6013 19.2526 23.6013 19.4659V23.5486C23.6021 23.6504 23.5631 23.7483 23.4929 23.821C23.4227 23.8936 23.327 23.9351 23.2268 23.9364V23.9378V23.9385ZM25.0824 32.5987C24.9822 32.5975 24.8867 32.556 24.8165 32.4835C24.7463 32.411 24.7073 32.3133 24.7078 32.2117V16.8009C24.7071 16.5868 24.8763 16.4131 25.0824 16.4131C25.2885 16.4131 25.4576 16.5875 25.4576 16.8009V32.2117C25.4581 32.3134 25.419 32.4112 25.3487 32.4838C25.2784 32.5563 25.1826 32.5976 25.0824 32.5987ZM30.6504 23.9385C30.5502 23.9372 30.4545 23.8957 30.3843 23.823C30.3142 23.7504 30.2752 23.6525 30.2759 23.5507V19.4659C30.2759 19.2526 30.4443 19.0781 30.6504 19.0781C30.8565 19.0781 31.0257 19.2526 31.0257 19.4659V23.5486C31.0264 23.6505 30.9873 23.7485 30.917 23.8212C30.8467 23.8939 30.7508 23.9353 30.6504 23.9364V23.9378V23.9385ZM32.5067 34.4813C32.4063 34.4802 32.3105 34.4388 32.2402 34.3661C32.1698 34.2934 32.1307 34.1954 32.1315 34.0935V16.8009C32.1315 16.5875 32.3006 16.4131 32.5067 16.4131C32.7128 16.4131 32.8819 16.5875 32.8819 16.8009V34.0935C32.8827 34.1955 32.8435 34.2936 32.773 34.3663C32.7025 34.439 32.6072 34.4804 32.5067 34.4813ZM34.363 34.4813C34.2626 34.4802 34.1667 34.4388 34.0964 34.3661C34.0261 34.2934 33.987 34.1954 33.9877 34.0935V16.8009C33.9877 16.5875 34.1569 16.4131 34.363 16.4131C34.5684 16.4131 34.7375 16.5875 34.7375 16.8009V34.0935C34.7382 34.1953 34.6992 34.2932 34.6291 34.3659C34.5589 34.4385 34.4632 34.48 34.363 34.4813Z" fill="currentColor"/>
</svg>
