<svg viewBox="0 0 116 49" fill="none" xmlns="http://www.w3.org/2000/svg">
    <path d="M79.2248 33.3656H79.2121L77.8894 30.9111H77.3359V34.7009H77.9656V32.2041H77.9782L78.979 34.0982H79.4326L80.446 32.2041H80.4587V34.7009H81.082V30.9111H80.5078L79.2248 33.3656Z" fill="currentColor"/>
    <path d="M86.4865 32.0067C86.3232 32.0067 86.1661 32.0505 86.0139 32.1241C85.8632 32.1992 85.7363 32.3229 85.6364 32.4528H85.6237V32.074H84.9688V34.696H85.6364V33.248C85.6364 33.043 85.6808 32.888 85.8061 32.7393C85.9314 32.5906 86.109 32.5217 86.2597 32.5217C86.4358 32.5217 86.6308 32.5968 86.7006 32.6955C86.7704 32.8003 86.7942 32.9882 86.7942 33.2731V34.6897H87.4492V33.2105C87.4492 32.7878 87.3984 32.5029 87.2287 32.2916C87.0971 32.1053 86.7942 32.0051 86.4865 32.0051V32.0067Z" fill="currentColor"/>
    <path d="M83.0481 32.0198C82.639 32.0198 82.2932 32.1434 82.0537 32.3861C81.8143 32.635 81.6953 32.9637 81.6953 33.3863C81.6953 33.809 81.8206 34.1377 82.0537 34.3866C82.2932 34.6355 82.6326 34.7529 83.0418 34.7529C83.451 34.7529 83.803 34.6292 84.0425 34.3866C84.282 34.1377 84.4009 33.809 84.4009 33.3863C84.4009 32.9637 84.282 32.635 84.0425 32.3861C83.8094 32.1434 83.4573 32.0198 83.0481 32.0198ZM83.5715 34.0313C83.4589 34.18 83.2622 34.2488 83.0545 34.2488C82.8467 34.2488 82.6643 34.1737 82.5438 34.0313C82.4312 33.8826 82.3678 33.6712 82.3678 33.3848C82.3678 33.0983 82.4248 32.8886 82.5438 32.7383C82.658 32.5896 82.8467 32.5207 83.0545 32.5207C83.2622 32.5207 83.4573 32.5958 83.5715 32.7383C83.6841 32.887 83.7475 33.0983 83.7475 33.3848C83.7475 33.6712 83.6841 33.881 83.5715 34.0313Z" fill="currentColor"/>
    <path d="M76.5964 30.9111H75.8906V31.5201H76.5964V30.9111Z" fill="currentColor"/>
    <path d="M76.5964 32.0703H75.8906V34.7048H76.5964V32.0703Z" fill="currentColor"/>
    <path d="M99.6149 32.085H98.9219V34.7069H99.6149V32.085Z" fill="currentColor"/>
    <path d="M97.5381 32.4405H97.5254C97.324 32.1791 97.0464 32.0178 96.6626 32.0178C96.2788 32.0178 96.0457 32.1352 95.8379 32.3654C95.6302 32.5955 95.4922 32.9367 95.4922 33.3844C95.4922 33.8321 95.6302 34.1546 95.8443 34.3972C96.0584 34.6336 96.3105 34.751 96.6626 34.751C97.0655 34.751 97.3366 34.5647 97.5381 34.2845H97.5508V34.7009H98.2058V30.9111H97.5381V32.4389V32.4405ZM97.5381 33.411C97.5381 33.6724 97.481 33.8712 97.3747 34.0137C97.2621 34.1561 97.0655 34.2313 96.8577 34.2313C96.6499 34.2313 96.4866 34.1561 96.3534 34.0137C96.2281 33.8712 96.1646 33.6599 96.1646 33.386C96.1646 33.112 96.2281 32.8897 96.347 32.7457C96.466 32.6033 96.6372 32.5281 96.8577 32.5281C97.0655 32.5281 97.2605 32.6095 97.3747 32.752C97.4873 32.9007 97.5381 33.0995 97.5381 33.3547V33.411Z" fill="currentColor"/>
    <path d="M99.6149 30.9111H98.9219V31.5138H99.6149V30.9111Z" fill="currentColor"/>
    <path d="M102.26 32.2561C102.084 32.1012 101.832 32.0198 101.422 32.0198C100.956 32.026 100.591 32.1873 100.327 32.336L100.515 32.7774C100.812 32.6287 101.075 32.516 101.41 32.516C101.592 32.516 101.719 32.5536 101.787 32.6209C101.857 32.6897 101.906 32.8134 101.906 32.9934V33.1609H101.679C101.207 33.1609 100.736 33.1922 100.484 33.3722C100.231 33.5523 100.219 33.6884 100.219 33.9812C100.219 34.2113 100.338 34.3788 100.446 34.4899C100.596 34.6261 100.81 34.7451 101.062 34.7451C101.251 34.7451 101.415 34.7263 101.578 34.6464C101.741 34.5713 101.805 34.4539 101.905 34.3177H101.917V34.7091H102.56V33.0247C102.553 32.671 102.434 32.4095 102.257 32.2546L102.26 32.2561ZM101.913 33.6791H101.906C101.906 33.8653 101.849 33.989 101.717 34.1142C101.586 34.2379 101.44 34.2755 101.245 34.2755C101.132 34.2755 101.031 34.2191 100.967 34.1581C100.904 34.0954 100.855 34.0344 100.855 33.9279C100.855 33.7855 100.88 33.6916 101.024 33.6055C101.169 33.5178 101.421 33.5116 101.692 33.5116H101.913V33.6791Z" fill="currentColor"/>
    <path d="M93.9066 32.0198C93.5101 32.0198 93.1945 32.1434 92.9629 32.3861C92.7298 32.6287 92.6172 32.9637 92.6172 33.3863C92.6172 33.809 92.7425 34.1377 92.9946 34.3866C93.2468 34.6355 93.5735 34.7529 93.9763 34.7529C94.3157 34.7529 94.7376 34.6418 95.0405 34.4179L94.8518 33.9765C94.6313 34.1001 94.4236 34.2504 94.0461 34.2504C93.832 34.2504 93.6496 34.2128 93.5117 34.1017C93.3737 33.9843 93.2722 33.7479 93.2722 33.5116H95.0786C95.0786 33.4677 95.0849 33.4176 95.0849 33.3754C95.0849 32.9402 95.0025 32.6052 94.782 32.3751C94.5616 32.1387 94.3031 32.0213 93.9066 32.0213V32.0198ZM93.2833 33.1562C93.296 32.9418 93.3531 32.7884 93.4657 32.671C93.5783 32.5536 93.7242 32.4847 93.9129 32.4847C94.1016 32.4847 94.2586 32.5536 94.3665 32.6647C94.4743 32.7821 94.5172 32.9386 94.5172 33.1562H93.2833Z" fill="currentColor"/>
    <path d="M90.1154 33.3656H90.1027L88.7816 30.9111H88.2266V34.7009H88.8562V32.2041H88.8689L89.8696 34.0982H90.3232L91.3366 32.2041H91.3493V34.7009H91.9726V30.9111H91.4001L90.1154 33.3656Z" fill="currentColor"/>
    <path d="M52.0422 32.5051C51.8948 32.408 51.7235 32.3611 51.5284 32.3611C51.3888 32.3611 51.2746 32.383 51.1858 32.4284C51.097 32.4738 51.0257 32.5254 50.9717 32.5865C50.9178 32.6475 50.8766 32.7023 50.8464 32.754H50.8131V32.3955H50.4531V35.5372H50.8258V34.324H50.848C50.8797 34.3757 50.9226 34.4336 50.9765 34.4947C51.0304 34.5557 51.1018 34.6105 51.1922 34.6543C51.2826 34.6997 51.3952 34.7216 51.53 34.7216C51.7251 34.7216 51.8963 34.6731 52.0438 34.5761C52.1913 34.479 52.3055 34.3428 52.3896 34.1659C52.472 33.9891 52.5133 33.7809 52.5133 33.5398C52.5133 33.2987 52.472 33.0921 52.388 32.9168C52.3039 32.7415 52.1897 32.6037 52.0422 32.5082V32.5051ZM52.0597 33.9734C52.0089 34.1033 51.9344 34.2051 51.8361 34.2786C51.7377 34.3522 51.6172 34.3898 51.4761 34.3898C51.3349 34.3898 51.2176 34.3538 51.1192 34.2818C51.0209 34.2098 50.9448 34.1096 50.894 33.9812C50.8433 33.8529 50.8179 33.7042 50.8179 33.5351C50.8179 33.366 50.8433 33.2173 50.894 33.0921C50.9448 32.9653 51.0193 32.8667 51.1161 32.7963C51.2144 32.7258 51.3333 32.6898 51.4761 32.6898C51.6188 32.6898 51.7409 32.7258 51.8392 32.7994C51.9376 32.873 52.0121 32.9731 52.0613 33.0999C52.112 33.2267 52.1358 33.3723 52.1358 33.5367C52.1358 33.701 52.1104 33.8466 52.0597 33.9765V33.9734Z" fill="currentColor"/>
    <path d="M54.5316 32.5082C54.373 32.4096 54.1875 32.3611 53.9781 32.3611C53.7688 32.3611 53.5832 32.4096 53.4246 32.5082C53.266 32.6068 53.1423 32.7446 53.0551 32.923C52.9663 33.1015 52.9219 33.3081 52.9219 33.5445C52.9219 33.7809 52.9663 33.9812 53.0551 34.1597C53.1439 34.3366 53.2676 34.4743 53.4246 34.5729C53.5832 34.6716 53.7672 34.7201 53.9781 34.7201C54.189 34.7201 54.373 34.6716 54.5316 34.5729C54.6902 34.4743 54.8139 34.3366 54.9027 34.1597C54.9915 33.9828 55.0359 33.7777 55.0359 33.5445C55.0359 33.3113 54.9915 33.0999 54.9027 32.923C54.8139 32.7446 54.6902 32.6068 54.5316 32.5082ZM54.584 33.9687C54.5348 34.0971 54.4587 34.2004 54.3587 34.2771C54.2572 34.3538 54.1304 34.3929 53.9765 34.3929C53.8227 34.3929 53.6974 34.3538 53.5975 34.2771C53.4976 34.2004 53.423 34.0971 53.3723 33.9687C53.3215 33.8403 53.2977 33.6995 53.2977 33.5445C53.2977 33.3895 53.3231 33.2439 53.3723 33.1156C53.4214 32.9872 53.4976 32.8823 53.5975 32.8056C53.6974 32.7274 53.8243 32.6882 53.9765 32.6882C54.1288 32.6882 54.2572 32.7274 54.3587 32.8056C54.4602 32.8839 54.5348 32.9872 54.584 33.1172C54.6331 33.2471 54.6585 33.3895 54.6585 33.5461C54.6585 33.7026 54.6331 33.8419 54.584 33.9703V33.9687Z" fill="currentColor"/>
    <path d="M57.798 33.3841C57.7568 33.5297 57.714 33.6878 57.6712 33.8569C57.6394 33.9837 57.6061 34.1214 57.5728 34.2639C57.5427 34.1199 57.511 33.9805 57.4793 33.8537C57.4364 33.6847 57.3952 33.5282 57.3571 33.3841L57.0812 32.3901H56.6895L56.4087 33.3841C56.3675 33.5313 56.3263 33.6894 56.2835 33.86C56.2517 33.9884 56.22 34.1277 56.1883 34.2717C56.1566 34.123 56.1233 33.979 56.09 33.8491C56.0456 33.68 56.0043 33.5235 55.9663 33.3841L55.6824 32.3901H55.2891L55.9932 34.6677H56.3659L56.6673 33.6362C56.6974 33.5328 56.7275 33.4264 56.7561 33.3184C56.7846 33.2104 56.8132 33.0992 56.8417 32.985C56.856 32.9302 56.8687 32.8754 56.8829 32.819C56.8972 32.8738 56.9115 32.9302 56.9242 32.985C56.9527 33.0977 56.9797 33.2088 57.0082 33.3168C57.0368 33.4248 57.0669 33.5313 57.097 33.6362L57.3968 34.6677H57.7711L58.4752 32.3901H58.0819L57.798 33.3841Z" fill="currentColor"/>
    <path d="M60.4711 32.6319C60.3744 32.5395 60.2665 32.4707 60.1444 32.4268C60.0239 32.383 59.897 32.3611 59.7654 32.3611C59.5576 32.3611 59.3752 32.4112 59.2182 32.5114C59.0612 32.6115 58.9407 32.7509 58.855 32.9309C58.7694 33.1093 58.7266 33.316 58.7266 33.5476C58.7266 33.7793 58.7694 33.9844 58.8566 34.1612C58.9438 34.3381 59.0675 34.4743 59.2293 34.5745C59.3911 34.6731 59.583 34.7232 59.8066 34.7232C59.9668 34.7232 60.1111 34.6966 60.2411 34.6465C60.3696 34.5949 60.4775 34.5228 60.5647 34.4305C60.6519 34.3381 60.7122 34.2317 60.7471 34.1127L60.3855 34.0345C60.3569 34.1127 60.3157 34.1785 60.2618 34.2333C60.2078 34.288 60.1428 34.3272 60.0667 34.3554C59.9906 34.3835 59.9049 34.3961 59.8098 34.3961C59.667 34.3961 59.5433 34.3647 59.4371 34.3037C59.3308 34.2411 59.2483 34.1519 59.1897 34.0329C59.1373 33.9264 59.1104 33.7996 59.1056 33.6556H60.7851V33.5132C60.7851 33.3113 60.7566 33.1375 60.7011 32.9904C60.6456 32.8432 60.5694 32.7258 60.4727 32.6319H60.4711ZM59.1817 33.0514C59.2341 32.9418 59.3118 32.8542 59.4101 32.7884C59.51 32.7227 59.629 32.6898 59.7669 32.6898C59.9049 32.6898 60.0239 32.7227 60.119 32.7884C60.2142 32.8542 60.2871 32.945 60.3363 33.0592C60.3728 33.1453 60.3966 33.2408 60.4061 33.3457H59.1056C59.1135 33.2408 59.1373 33.1422 59.1817 33.0514Z" fill="currentColor"/>
    <path d="M62.2565 32.3626C62.1185 32.3626 61.9964 32.3971 61.8901 32.4675C61.7839 32.538 61.7093 32.6303 61.6665 32.7462H61.6459V32.3955H61.2891V34.6731H61.6618V33.2518C61.6618 33.1422 61.6856 33.0483 61.7331 32.9684C61.7807 32.8886 61.8473 32.826 61.9314 32.7822C62.0154 32.7383 62.1106 32.7164 62.2153 32.7164C62.266 32.7164 62.312 32.7196 62.3564 32.7242C62.4008 32.7305 62.4278 32.7336 62.4389 32.7368V32.3673C62.4198 32.3673 62.3913 32.3642 62.3548 32.3626C62.3183 32.3626 62.285 32.3611 62.2565 32.3611V32.3626Z" fill="currentColor"/>
    <path d="M64.4164 32.6319C64.3197 32.5395 64.2118 32.4707 64.0897 32.4268C63.9692 32.383 63.8423 32.3611 63.7107 32.3611C63.5029 32.3611 63.3205 32.4112 63.1635 32.5114C63.0065 32.6115 62.886 32.7509 62.8003 32.9309C62.7147 33.1093 62.6719 33.316 62.6719 33.5476C62.6719 33.7793 62.7147 33.9844 62.8019 34.1612C62.8891 34.3381 63.0129 34.4743 63.1746 34.5745C63.3364 34.6731 63.5283 34.7232 63.7519 34.7232C63.9121 34.7232 64.0564 34.6966 64.1865 34.6465C64.3149 34.5949 64.4228 34.5228 64.51 34.4305C64.5972 34.3381 64.6575 34.2317 64.6924 34.1127L64.3308 34.0345C64.3022 34.1127 64.261 34.1785 64.2071 34.2333C64.1532 34.288 64.0881 34.3272 64.012 34.3554C63.9359 34.3835 63.8502 34.3961 63.7551 34.3961C63.6123 34.3961 63.4886 34.3647 63.3824 34.3037C63.2761 34.2411 63.1937 34.1519 63.135 34.0329C63.0826 33.9264 63.0557 33.7996 63.0509 33.6556H64.7304V33.5132C64.7304 33.3113 64.7019 33.1375 64.6464 32.9904C64.5909 32.8432 64.5147 32.7258 64.418 32.6319H64.4164ZM63.127 33.0514C63.1794 32.9418 63.2571 32.8542 63.3554 32.7884C63.4553 32.7227 63.5743 32.6898 63.7123 32.6898C63.8502 32.6898 63.9692 32.7227 64.0643 32.7884C64.1595 32.8542 64.2325 32.945 64.2816 33.0592C64.3181 33.1453 64.3419 33.2408 64.3514 33.3457H63.0509C63.0588 33.2408 63.0826 33.1422 63.127 33.0514Z" fill="currentColor"/>
    <path d="M66.8109 32.7571H66.7887C66.7585 32.7055 66.7157 32.6507 66.6634 32.5896C66.611 32.5286 66.5397 32.4769 66.4493 32.4315C66.3605 32.3862 66.2463 32.3642 66.1067 32.3642C65.9148 32.3642 65.7435 32.4128 65.596 32.5082C65.4469 32.6053 65.3312 32.7415 65.2487 32.9168C65.1662 33.0921 65.125 33.3003 65.125 33.5398C65.125 33.7793 65.1662 33.9891 65.2487 34.166C65.3312 34.3429 65.447 34.479 65.5944 34.5761C65.7419 34.6731 65.9132 34.7217 66.1067 34.7217C66.2431 34.7217 66.3557 34.6998 66.4461 34.6544C66.5349 34.609 66.6063 34.5557 66.6618 34.4947C66.7157 34.4321 66.7601 34.3757 66.7918 34.3241H66.8251V34.6747H67.1852V31.6003H66.8125V32.7556L66.8109 32.7571ZM66.7443 33.9859C66.6919 34.1143 66.6174 34.2145 66.5191 34.2865C66.4207 34.3585 66.3018 34.3945 66.1606 34.3945C66.0195 34.3945 65.9005 34.3569 65.8006 34.2834C65.7023 34.2098 65.6262 34.108 65.5754 33.9781C65.5247 33.8482 65.4993 33.7026 65.4993 33.5383C65.4993 33.3739 65.5247 33.2283 65.5754 33.1015C65.6262 32.9747 65.7007 32.8745 65.799 32.801C65.8974 32.7274 66.0179 32.6914 66.159 32.6914C66.3002 32.6914 66.4207 32.7274 66.5191 32.7978C66.6174 32.8683 66.6919 32.9669 66.7427 33.0937C66.7934 33.2205 66.8188 33.3676 66.8188 33.5367C66.8188 33.7057 66.7934 33.8545 66.7411 33.9828L66.7443 33.9859Z" fill="currentColor"/>
    <path d="M70.5813 32.5067C70.4338 32.4096 70.2625 32.3627 70.0675 32.3627C69.9279 32.3627 69.8137 32.3846 69.7249 32.43C69.6361 32.4754 69.5663 32.527 69.5124 32.5881C69.4585 32.6491 69.4172 32.7039 69.3871 32.7556H69.3649V31.6003H68.9922V34.6747H69.3522V34.3241H69.3855C69.4172 34.3757 69.46 34.4336 69.5155 34.4947C69.5695 34.5557 69.6424 34.6105 69.7312 34.6544C69.8216 34.6998 69.9342 34.7217 70.069 34.7217C70.2641 34.7217 70.4354 34.6731 70.5829 34.5761C70.7304 34.479 70.8446 34.3429 70.9286 34.166C71.0111 33.9891 71.0523 33.7809 71.0523 33.5398C71.0523 33.2988 71.0111 33.0921 70.927 32.9168C70.843 32.7415 70.7288 32.6037 70.5813 32.5083V32.5067ZM70.5988 33.975C70.548 34.1049 70.4735 34.2067 70.3751 34.2802C70.2768 34.3538 70.1563 34.3914 70.0151 34.3914C69.874 34.3914 69.7566 34.3554 69.6583 34.2834C69.56 34.2114 69.4838 34.1112 69.4331 33.9828C69.3823 33.8545 69.357 33.7057 69.357 33.5367C69.357 33.3676 69.3823 33.2189 69.4331 33.0937C69.4838 32.9669 69.5584 32.8683 69.6551 32.7978C69.7534 32.7274 69.8724 32.6914 70.0151 32.6914C70.1579 32.6914 70.28 32.7274 70.3783 32.801C70.4766 32.8745 70.5512 32.9747 70.6003 33.1015C70.6511 33.2283 70.6749 33.3739 70.6749 33.5383C70.6749 33.7026 70.6495 33.8482 70.5988 33.9781V33.975Z" fill="currentColor"/>
    <path d="M73.0243 32.3933L72.5295 33.7363C72.4803 33.8694 72.4375 34.0025 72.401 34.1355C72.3852 34.1934 72.3677 34.2482 72.3519 34.3046C72.336 34.2482 72.3186 34.1934 72.3027 34.1355C72.2662 34.0025 72.2234 33.8694 72.1727 33.7363L71.6794 32.3933H71.2734L72.1584 34.6771L72.0791 34.8931C72.0442 34.9918 72.0046 35.0669 71.9586 35.1154C71.9126 35.1655 71.8618 35.1953 71.8047 35.2062C71.7476 35.2172 71.6842 35.2156 71.6144 35.2L71.5351 35.1921L71.4622 35.5115C71.4844 35.5177 71.5193 35.5255 71.5653 35.5334C71.6112 35.5412 71.6636 35.5443 71.7238 35.5443C71.8317 35.5443 71.9284 35.5256 72.0141 35.488C72.0997 35.4504 72.1743 35.3941 72.2393 35.3174C72.3043 35.2407 72.3582 35.1436 72.4042 35.0262L73.4287 32.3901H73.0275L73.0243 32.3933Z" fill="currentColor"/>
    <path d="M97.2784 18.7947V27.7485H95.3594V18.7947H97.2784Z" fill="currentColor"/>
    <path d="M102.263 26.274C102.215 26.2834 102.147 26.2959 102.058 26.3131C101.969 26.3272 101.881 26.335 101.792 26.335C101.665 26.335 101.552 26.3163 101.456 26.2787C101.36 26.2411 101.287 26.1754 101.233 26.0815C101.18 25.986 101.154 25.8513 101.154 25.6792V22.4263H102.436V21.0269H101.154V19.4177H99.2669V21.0269H98.3359V22.4263H99.2669V25.9234C99.2637 26.3632 99.3573 26.7279 99.546 27.016C99.7347 27.304 99.9996 27.5169 100.339 27.6546C100.682 27.7924 101.081 27.8519 101.536 27.8347C101.782 27.8253 101.99 27.8018 102.161 27.7611C102.333 27.7235 102.466 27.6891 102.561 27.6609L102.264 26.2756L102.263 26.274Z" fill="currentColor"/>
    <path d="M36.8638 21.0356H34.9766V27.751H36.8638V21.0356Z" fill="currentColor"/>
    <path d="M35.926 18.2825C35.6453 18.2825 35.4042 18.3764 35.2028 18.5627C35.0046 18.7458 34.9062 18.9665 34.9062 19.2233C34.9062 19.48 35.0046 19.7054 35.2028 19.8917C35.4042 20.0748 35.6437 20.1672 35.926 20.1672C36.2083 20.1672 36.4462 20.0748 36.6445 19.8917C36.8459 19.7054 36.9458 19.4815 36.9458 19.2233C36.9458 18.965 36.8459 18.7474 36.6445 18.5627C36.4462 18.3764 36.2067 18.2825 35.926 18.2825Z" fill="currentColor"/>
    <path d="M43.3876 24.8126H43.2813L40.7819 18.7969H38.4141V27.7507H40.276V21.901H40.3505L42.7009 27.7069H43.9681L46.3169 21.9229H46.3914V27.7507H48.2533V18.7969H45.8871L43.3876 24.8126Z" fill="currentColor"/>
    <path d="M54.654 21.3781C54.1544 21.087 53.5613 20.9414 52.873 20.9414C52.1847 20.9414 51.5883 21.087 51.0872 21.3781C50.5876 21.6662 50.2022 22.0716 49.931 22.5929C49.6598 23.111 49.5234 23.7184 49.5234 24.4118C49.5234 25.1053 49.6598 25.7048 49.931 26.2261C50.2022 26.7442 50.5876 27.1496 51.0872 27.4408C51.5899 27.7288 52.1847 27.8744 52.873 27.8744C53.5613 27.8744 54.156 27.7304 54.654 27.4408C55.1567 27.1496 55.5437 26.7442 55.8149 26.2261C56.0861 25.7048 56.2225 25.099 56.2225 24.4118C56.2225 23.7246 56.0861 23.1126 55.8149 22.5929C55.5437 22.0716 55.1567 21.6662 54.654 21.3781ZM54.1386 25.4449C54.0323 25.7518 53.8737 25.9928 53.6644 26.1713C53.455 26.3466 53.1933 26.4343 52.8793 26.4343C52.5653 26.4343 52.2973 26.3466 52.0816 26.1713C51.8691 25.9928 51.7073 25.7518 51.5979 25.4449C51.4916 25.1381 51.4377 24.7906 51.4377 24.3993C51.4377 24.0079 51.4916 23.6604 51.5979 23.3536C51.7073 23.0468 51.8691 22.8057 52.0816 22.6273C52.2973 22.4488 52.5637 22.3612 52.8793 22.3612C53.1949 22.3612 53.4534 22.4504 53.6644 22.6273C53.8737 22.8057 54.0323 23.0468 54.1386 23.3536C54.248 23.6604 54.3019 24.0079 54.3019 24.3993C54.3019 24.7906 54.2464 25.1381 54.1386 25.4449Z" fill="currentColor"/>
    <path d="M62.617 21.2482C62.2649 21.0447 61.8526 20.9414 61.3799 20.9414C60.874 20.9414 60.4442 21.0572 60.0906 21.2874C59.7353 21.5143 59.4831 21.8243 59.3325 22.214H59.2532V21.0291H57.4531V27.7445H59.3404V23.8624C59.3436 23.5743 59.3975 23.327 59.5038 23.1235C59.6132 22.9169 59.7639 22.7588 59.9558 22.6508C60.1508 22.5428 60.376 22.4895 60.6298 22.4895C61.0072 22.4895 61.3054 22.6054 61.5211 22.8386C61.7368 23.0687 61.843 23.3896 61.8399 23.7998V27.7429H63.7272V23.4663C63.7272 22.9451 63.6304 22.4958 63.4353 22.1201C63.2403 21.7413 62.9675 21.4501 62.6154 21.2451L62.617 21.2482Z" fill="currentColor"/>
    <path d="M70.5215 21.7898C70.2313 21.5065 69.8919 21.2952 69.5017 21.1559C69.1148 21.0134 68.6961 20.9414 68.2473 20.9414C67.5796 20.9414 66.9975 21.087 66.5011 21.3781C66.0079 21.6693 65.6257 22.0763 65.3529 22.5976C65.0817 23.1188 64.9453 23.7262 64.9453 24.4165C64.9453 25.1068 65.0817 25.7377 65.3529 26.2574C65.6241 26.7739 66.0111 27.1731 66.5138 27.4549C67.0197 27.7351 67.6224 27.8744 68.3218 27.8744C68.8832 27.8744 69.378 27.7899 69.8063 27.6208C70.2376 27.4486 70.5897 27.2091 70.8609 26.9039C71.1353 26.5955 71.3177 26.2339 71.4065 25.8191L69.6603 25.7048C69.5953 25.8739 69.5002 26.0163 69.3765 26.1337C69.2528 26.2495 69.1037 26.3372 68.9292 26.3967C68.7548 26.4546 68.5629 26.4843 68.3535 26.4843C68.0379 26.4843 67.7635 26.4186 67.5336 26.2871C67.3036 26.1556 67.1244 25.9693 66.9975 25.7267C66.8738 25.4841 66.812 25.1976 66.812 24.8658V24.8611H71.4477V24.3492C71.4477 23.7778 71.3668 23.2801 71.2035 22.8543C71.0417 22.4254 70.8133 22.07 70.5215 21.7883V21.7898ZM66.8151 23.709C66.8262 23.4679 66.8865 23.2472 67.0023 23.0484C67.126 22.8292 67.2973 22.657 67.5161 22.5287C67.7382 22.3972 67.9919 22.3314 68.279 22.3314C68.566 22.3314 68.7944 22.3909 69.0006 22.5115C69.2099 22.6273 69.3749 22.7901 69.4922 22.9967C69.6112 23.2034 69.6699 23.4413 69.6699 23.709H66.8151Z" fill="currentColor"/>
    <path d="M75.9175 26.3153C75.8287 26.3294 75.7399 26.3372 75.6511 26.3372C75.5242 26.3372 75.4116 26.3185 75.3149 26.2809C75.2197 26.2433 75.1468 26.1776 75.0928 26.0837C75.0389 25.9882 75.0135 25.8535 75.0135 25.6814V22.4285H76.295V21.0291H75.0135V19.4199H73.1263V21.0291H72.1953V22.4285H73.1263V25.9256C73.1231 26.3654 73.2167 26.7301 73.4054 27.0182C73.5941 27.3062 73.859 27.5191 74.1984 27.6568C74.5409 27.7946 74.9406 27.8541 75.3958 27.8369C75.6416 27.8275 75.8493 27.804 76.0206 27.7633C76.1919 27.7257 76.3251 27.6913 76.4203 27.6631L76.1237 26.2778C76.0761 26.2872 76.0079 26.2997 75.9191 26.3169L75.9175 26.3153Z" fill="currentColor"/>
    <path d="M79.4107 21.0356H77.5234V27.751H79.4107V21.0356Z" fill="currentColor"/>
    <path d="M78.4713 18.2825C78.1906 18.2825 77.9495 18.3764 77.7497 18.5627C77.5515 18.7458 77.4531 18.9665 77.4531 19.2233C77.4531 19.48 77.5515 19.7054 77.7497 19.8917C77.9511 20.0748 78.1906 20.1672 78.4713 20.1672C78.752 20.1672 78.9915 20.0748 79.1897 19.8917C79.3912 19.7054 79.4911 19.4815 79.4911 19.2233C79.4911 18.965 79.3912 18.7474 79.1897 18.5627C78.9915 18.3764 78.752 18.2825 78.4713 18.2825Z" fill="currentColor"/>
    <path d="M83.3679 26.2154L86.497 22.2457V21.0356H81.0048V22.5212H84.2227V22.5697L80.8906 26.6396V27.751H86.6127V26.2639H83.3679V26.2154Z" fill="currentColor"/>
    <path d="M94.0883 24.8626V24.3508C94.0883 23.7794 94.0075 23.2816 93.8441 22.8558C93.6823 22.4269 93.454 22.0716 93.1621 21.7898C92.8719 21.5065 92.5325 21.2952 92.1424 21.1559C91.7554 21.0134 91.3367 20.9414 90.8879 20.9414C90.2202 20.9414 89.6382 21.087 89.1418 21.3781C88.6485 21.6693 88.2663 22.0763 87.9935 22.5976C87.7223 23.1188 87.5859 23.7262 87.5859 24.4165C87.5859 25.1068 87.7223 25.7377 87.9935 26.2574C88.2647 26.7739 88.6517 27.1731 89.1544 27.4549C89.6604 27.7351 90.263 27.8744 90.9624 27.8744C91.5239 27.8744 92.0187 27.7899 92.4469 27.6208C92.8783 27.4486 93.2303 27.2091 93.5015 26.9039C93.7759 26.5955 93.9583 26.2339 94.0471 25.8191L92.301 25.7048C92.2359 25.8739 92.1408 26.0163 92.0171 26.1337C91.8934 26.2495 91.7443 26.3372 91.5698 26.3967C91.3954 26.4562 91.2035 26.4843 90.9941 26.4843C90.6785 26.4843 90.4042 26.4186 90.1742 26.2871C89.9442 26.1556 89.765 25.9693 89.6382 25.7267C89.5145 25.4841 89.4526 25.1976 89.4526 24.8658V24.8611H94.0883V24.8626ZM90.1584 22.5287C90.3804 22.3972 90.6341 22.3314 90.9212 22.3314C91.2083 22.3314 91.4366 22.3909 91.6444 22.5115C91.8537 22.6273 92.0187 22.7901 92.136 22.9967C92.2534 23.2034 92.3137 23.4413 92.3137 23.709H89.4589C89.47 23.4679 89.5303 23.2472 89.6461 23.0484C89.7698 22.8292 89.9411 22.657 90.1599 22.5287H90.1584Z" fill="currentColor"/>
    <path d="M28.1256 27.9631C27.9717 28.7537 27.2374 29.3923 26.3509 29.3923H17.7471C16.7432 29.3923 15.9343 28.6018 15.9343 27.625V19.2363C15.9343 18.3706 16.5909 17.6568 17.4394 17.5065V15.9255H16.6671C15.3555 15.9255 14.3516 16.9039 14.3516 18.1452V28.7161C14.3516 29.9574 15.3555 30.9358 16.6274 30.9358H27.469C28.7425 30.9358 29.7448 29.9574 29.7448 28.7161V27.9631H28.124H28.1256Z" fill="currentColor"/>
    <path d="M25.5788 15.9255H29.7847V20.0252L28.7808 19.0844L19.7139 27.9631H17.3984V25.781L26.3496 16.9039L25.5788 15.9255Z" fill="currentColor"/>
    <path d="M17.3984 23.4052L25.038 15.8821H20.4847L21.4109 16.8604L17.3984 20.8098V23.4052Z" fill="currentColor"/>
    <path d="M22.0719 27.967L29.7891 20.519V24.9584L28.7852 24.0552L24.7331 27.967H22.0703H22.0719Z" fill="currentColor"/>
</svg>
