<svg viewBox="0 0 116 49" fill="none" xmlns="http://www.w3.org/2000/svg">
    <path d="M22.0234 20.4784V23.9566L22.9834 23.1887L25.6805 20.9301V16.4131L22.0234 20.4784Z" fill="currentColor"/>
    <path d="M22.0252 28.6602L19.6024 29.925V23.1946L15.9453 27.2599V34.4872L19.6024 33.1321L22.0252 32.2287L25.6823 30.8736V24.3238L22.0252 26.6275V28.6602Z" fill="currentColor"/>
    <path d="M29.3368 20.4784V23.9566L28.4225 23.1887L25.6797 20.9301V16.4131L29.3368 20.4784Z" fill="currentColor"/>
    <path d="M29.3368 28.6602L31.8053 29.925V23.1946L35.4624 27.2599V34.4872L31.8053 33.1321L29.3368 32.2287L25.6797 30.8736V24.3238L29.3368 26.6275V28.6602Z" fill="currentColor"/>
    <path d="M43.2762 31.8175H41.5391V21.2475C41.5391 19.8021 42.2248 19.0793 43.5962 19.0793H44.8761C46.2475 19.0793 46.9332 19.8021 46.9332 21.2475V31.8175H45.1961V27.1649H43.2305V31.8175H43.2762ZM45.2418 25.6291V21.3831C45.2418 20.8862 45.0133 20.6603 44.5104 20.6603H44.0533C43.5505 20.6603 43.3219 20.8862 43.3219 21.3831V25.6291H45.2418Z" fill="currentColor"/>
    <path d="M48.9922 31.8175V19.0793H52.0093C53.6092 19.0793 54.4321 19.8924 54.4321 21.5186V29.9655C54.4321 31.1851 53.7464 31.8175 52.375 31.8175H48.9922ZM50.6836 30.2817H51.9636C52.4207 30.2817 52.6493 30.101 52.6493 29.6944V21.5637C52.6493 20.9314 52.375 20.6603 51.8721 20.6603H50.6836V30.2817Z" fill="currentColor"/>
    <path d="M59.5055 22.514V21.3848C59.5055 20.8879 59.2769 20.6169 58.7741 20.6169H58.4541C57.9512 20.6169 57.7226 20.8879 57.7226 21.3848V23.5078C57.7226 23.7336 57.7684 23.9143 57.8598 24.0047C57.9512 24.095 58.0884 24.1853 58.3169 24.3209L59.9626 25.1791C60.3283 25.3598 60.5569 25.5405 60.7397 25.6308C60.8769 25.7211 61.014 25.8567 61.1054 26.0373C61.1969 26.218 61.2426 26.489 61.2426 26.9407V29.651C61.2426 31.0964 60.5569 31.8192 59.1398 31.8192H58.0884C56.717 31.8192 56.0312 31.0513 56.0312 29.4703V28.8379H57.7684V29.5155C57.7684 30.0123 58.0426 30.2382 58.5455 30.2382H58.8655C59.3226 30.2382 59.5512 30.0123 59.5512 29.5155V27.3473C59.5512 27.1214 59.5055 26.9407 59.414 26.8504C59.3226 26.7601 59.1855 26.6697 58.9569 26.5342L57.3112 25.6308C56.9455 25.4501 56.6712 25.2694 56.5341 25.1339C56.3512 24.9984 56.2598 24.8177 56.1684 24.637C56.077 24.4112 56.077 24.1402 56.077 23.824V21.2041C56.077 19.7586 56.7627 19.0359 58.1341 19.0359H59.2312C60.6026 19.0359 61.2883 19.7586 61.2883 21.2041V22.4237H59.5055V22.514Z" fill="currentColor"/>
    <path d="M63.3516 31.8174V19.0793H67.6029V20.6151H65.043V24.4998H67.2829V26.0356H65.043V30.2816H67.6029V31.8174H63.3516Z" fill="currentColor"/>
    <path d="M72.8559 26.5776L74.4558 19.0793H76.3758V31.8174H74.6387L74.8215 23.4609L73.5416 29.5137H72.1702L70.8902 23.4609L71.073 31.8174H69.3359V19.0793H71.2559L72.8559 26.5776Z" fill="currentColor"/>
    <path d="M78.4766 19.0793H81.6308C83.0022 19.0793 83.7336 19.8021 83.7336 21.2475V25.0418C83.7336 26.4873 83.0479 27.21 81.6765 27.21H80.2594V31.8174H78.5223V19.0793H78.4766ZM80.168 25.6742H81.2651C81.7222 25.6742 81.9508 25.4484 81.9508 24.9515V21.383C81.9508 20.8862 81.6765 20.6603 81.1737 20.6603H80.168V25.6742Z" fill="currentColor"/>
    <path d="M85.5234 31.8174V19.0793H87.2605V31.8174H85.5234Z" fill="currentColor"/>
    <path d="M92.741 19.0793C94.0667 19.0793 94.7067 19.8021 94.7067 21.2475V24.4095C94.7067 25.5387 94.3867 26.2163 93.701 26.5325L94.8895 31.8174H93.2439L92.101 26.668H91.0496V31.8174H89.3125V19.0793H92.741ZM91.0953 25.2225H92.2382C92.741 25.2225 93.0153 24.9063 93.0153 24.3191V21.5637C93.0153 20.9313 92.741 20.6603 92.2382 20.6603H91.0953V25.2225Z" fill="currentColor"/>
    <path d="M96.625 31.8174V19.0793H100.876V20.6151H98.3164V24.4998H100.556V26.0356H98.3164V30.2816H100.876V31.8174H96.625Z" fill="currentColor"/>
</svg>
