<svg viewBox="0 0 116 49" fill="none" xmlns="http://www.w3.org/2000/svg">
    <path d="M26.618 33.7592C26.8554 33.8013 27.0928 33.8374 27.3363 33.8614C28.1398 33.9395 28.9128 33.8975 29.6311 33.7532C31.0433 33.4826 32.2302 32.8273 32.9546 31.9376C34.8355 30.0979 33.0459 26.0038 33.0459 26.0038C32.425 24.3084 31.5668 23.2322 31.1224 22.7513C30.9459 22.5649 30.7207 22.4266 30.4711 22.3545L27.1476 21.4106C26.825 21.3204 26.4842 21.3445 26.1798 21.4707C23.3615 22.6731 22.2902 26.4907 21.9432 28.2041C21.8945 28.4446 21.858 28.649 21.8398 28.7933C21.8276 28.8474 21.8215 28.9015 21.8154 28.9556C21.8093 29.0158 21.8032 29.0458 21.8032 29.0458C21.7606 29.4847 21.8154 29.9236 21.9493 30.3384C22.4789 31.9736 24.2928 33.3323 26.618 33.7592ZM26.2894 28.5648C26.5754 28.5288 26.8433 28.6671 27.0198 28.8895C27.1902 29.1059 27.458 29.2202 27.8233 29.2442C28.2494 29.2682 28.4746 29.1661 28.4868 28.9376C28.4929 28.8174 28.4502 28.7211 28.3528 28.643C28.2555 28.5709 28.085 28.4987 27.8354 28.4326C26.8494 28.1741 26.2345 27.8855 25.985 27.5608C25.7354 27.2362 25.6259 26.8755 25.6502 26.4787C25.6746 26.0398 25.8511 25.6611 26.1615 25.3364C26.4355 25.0599 26.8128 24.8855 27.3059 24.8074V24.5549C27.3059 24.2242 27.5798 23.9537 27.9146 23.9537C28.2494 23.9537 28.5233 24.2242 28.5233 24.5549V24.8375C28.5537 24.8435 28.578 24.8495 28.6085 24.8555C29.0163 24.9456 29.3511 25.102 29.6189 25.3184C30.0572 25.6791 29.8685 26.3765 29.3146 26.5088C29.0589 26.5689 28.7911 26.4847 28.6146 26.2923C28.4624 26.124 28.2372 26.0338 27.9511 26.0158C27.5737 25.9918 27.3789 26.0999 27.3668 26.3344C27.3606 26.4186 27.3911 26.4967 27.4459 26.5569C27.5006 26.617 27.6772 26.6951 27.9572 26.7733C28.6024 26.9537 29.065 27.104 29.345 27.2362C29.625 27.3624 29.8502 27.5669 30.0207 27.8374C30.1911 28.114 30.2702 28.4266 30.2459 28.7873C30.2155 29.2923 30.0024 29.7011 29.6189 30.0198C29.3268 30.2542 28.9676 30.4105 28.5293 30.4887V30.8133C28.5293 31.144 28.2555 31.4145 27.9207 31.4145C27.5859 31.4145 27.3119 31.144 27.3119 30.8133V30.4887C27.1415 30.4646 27.0198 30.4466 26.9711 30.4346C26.4963 30.3204 26.1128 30.122 25.8267 29.8334C25.3824 29.3885 25.6563 28.637 26.2894 28.5648Z" fill="currentColor"/>
    <path d="M27.5809 17.7455L31.7809 18.8757C31.9696 18.9238 32.1705 18.8757 32.3105 18.7374L33.4914 17.5651C33.7592 17.3006 33.6801 16.8437 33.3331 16.6994C32.9618 16.5431 32.7427 16.5972 32.0548 16.5551C31.0505 16.489 31.4218 15.7074 30.5392 15.4609C29.2853 15.1182 29.0114 16.3567 27.94 15.3227C27.6722 15.0701 27.3801 14.9499 27.1183 14.8958C26.7044 14.8176 26.3696 15.2325 26.5218 15.6172L27.2157 17.4148C27.2827 17.5771 27.4165 17.7034 27.5809 17.7455Z" fill="currentColor"/>
    <path d="M26.204 20.1052L31.4449 21.5661C31.8893 21.6924 32.3518 21.4338 32.4797 20.9949C32.6075 20.5561 32.3458 20.0992 31.9014 19.9729L26.6605 18.512C26.2162 18.3858 25.7536 18.6443 25.6257 19.0832C25.4979 19.522 25.7657 19.9789 26.204 20.1052Z" fill="currentColor"/>
    <path d="M41.6377 23.3412L44.6447 27.8381H44.7056L47.7308 23.287L47.7369 30.2369L50.0926 30.2309L50.0864 20.75L50.0804 19.5957H47.5299L44.6995 24.0987L41.869 19.6017L39.3125 19.6077L39.3247 30.2429H41.6438L41.6377 23.3412Z" fill="currentColor"/>
    <path d="M53.4929 30.7911C53.1825 30.7911 52.799 30.6528 52.4947 30.4724L51.7094 32.1438C52.312 32.4925 52.939 32.7029 53.7851 32.7029C55.1851 32.7029 55.8608 32.0777 56.4938 30.4183L59.6529 22.0737H57.2243L56.9382 22.9635L55.4286 27.6288L53.5781 22.1699L53.5477 22.0797H51.0703L54.3086 30.25C54.1077 30.6708 53.8886 30.7911 53.4929 30.7911Z" fill="currentColor"/>
    <path d="M68.1104 30.2238V29.4903L61.7861 29.4963L61.7801 23.2559L61.774 19.5886H60.9766V23.28L60.9827 30.2298L68.1104 30.2238Z" fill="currentColor"/>
    <path d="M72.8764 30.3928C74.3862 30.3928 75.3235 29.7856 76.1207 28.9319L75.5972 28.475C74.952 29.1603 74.1244 29.6954 72.9068 29.6954C71.367 29.6954 69.967 28.5711 69.8268 26.6413L76.334 26.6353C76.3521 26.5151 76.3521 26.467 76.3459 26.3287C76.3459 24.0321 74.9397 22.2706 72.7424 22.2766C70.6183 22.2766 69.0234 24.0742 69.0234 26.3227V26.3527C69.0296 28.7695 70.8131 30.3928 72.8764 30.3928ZM72.7182 22.962C74.5197 22.962 75.4266 24.4049 75.5364 25.968L69.8268 25.974C69.9608 24.2546 71.1661 22.962 72.7182 22.962Z" fill="currentColor"/>
    <path d="M80.9373 30.3832C82.429 30.3832 83.3968 29.6497 83.9384 28.9042V30.1968H84.6748L84.6691 25.3632C84.6691 24.4073 84.3888 23.6918 83.8653 23.1748C83.2932 22.6157 82.4471 22.3271 81.3881 22.3271C80.3107 22.3271 79.4645 22.6037 78.6061 23.0005L78.8864 23.6558C79.6104 23.289 80.3957 23.0305 81.3454 23.0305C82.9583 23.0305 83.9322 23.8362 83.9322 25.3992V25.7359C83.1773 25.5375 82.4229 25.4052 81.3331 25.4052C79.3002 25.4052 77.9001 26.3191 77.9063 27.9303V27.9603C77.9001 29.5656 79.4707 30.3832 80.9373 30.3832ZM78.7035 27.9062V27.8762C78.7035 26.8 79.6228 26.0666 81.2846 26.0666C82.4105 26.0666 83.2871 26.2469 83.9446 26.4153V27.299C83.9446 28.7118 82.5749 29.6858 80.9801 29.6858C79.781 29.6858 78.7035 29.0305 78.7035 27.9062Z" fill="currentColor"/>
    <path d="M90.082 30.3815C91.6345 30.3815 92.6327 29.4797 93.3144 28.4636V30.1951H94.0693L94.057 19.103H93.3021L93.3083 24.117C92.6631 23.1431 91.6464 22.2653 90.0763 22.2653C88.1831 22.2653 86.2595 23.8044 86.2656 26.3294V26.3595C86.2656 28.8785 88.1892 30.3815 90.082 30.3815ZM87.0752 26.3234V26.2933C87.0752 24.2132 88.4387 22.9808 90.149 22.9747C91.7804 22.9747 93.351 24.3094 93.351 26.2993V26.3294C93.351 28.3073 91.7866 29.66 90.1551 29.66C88.5118 29.666 87.0813 28.3615 87.0752 26.3234Z" fill="currentColor"/>
</svg>
